<ttFont>
    <TTGlyph name=".notdef" xMin="68" yMin="0" xMax="612" yMax="1365">
      <contour>
        <pt x="68" y="0" on="1"/>
        <pt x="68" y="1365" on="1"/>
        <pt x="612" y="1365" on="1"/>
        <pt x="612" y="0" on="1"/>
      </contour>
      <contour>
        <pt x="136" y="68" on="1"/>
        <pt x="544" y="68" on="1"/>
        <pt x="544" y="1297" on="1"/>
        <pt x="136" y="1297" on="1"/>
      </contour>
    </TTGlyph>
    <TTGlyph name="A" xMin="56" yMin="0" xMax="804" yMax="1760">
      <contour>
        <pt x="339" y="1760" on="1"/>
        <pt x="491" y="1760" on="1"/>
        <pt x="804" y="0" on="1"/>
        <pt x="660" y="0" on="1"/>
        <pt x="602" y="357" on="1"/>
        <pt x="250" y="357" on="1"/>
        <pt x="197" y="0" on="1"/>
        <pt x="56" y="0" on="1"/>
      </contour>
      <contour>
        <pt x="582" y="480" on="1"/>
        <pt x="420" y="1476" on="1"/>
        <pt x="418" y="1476" on="1"/>
        <pt x="269" y="480" on="1"/>
      </contour>
    </TTGlyph>
    <TTGlyph name="AE" xMin="56" yMin="0" xMax="1038" yMax="1760">
      <contour>
        <pt x="564" y="483" on="1"/>
        <pt x="564" y="1646" on="1"/>
        <pt x="546" y="1645" on="1"/>
        <pt x="301" y="483" on="1"/>
      </contour>
      <contour>
        <pt x="446" y="1760" on="1"/>
        <pt x="1038" y="1760" on="1"/>
        <pt x="1038" y="1644" on="1"/>
        <pt x="713" y="1644" on="1"/>
        <pt x="713" y="956" on="1"/>
        <pt x="1019" y="956" on="1"/>
        <pt x="1019" y="836" on="1"/>
        <pt x="713" y="836" on="1"/>
        <pt x="713" y="118" on="1"/>
        <pt x="1035" y="118" on="1"/>
        <pt x="1035" y="0" on="1"/>
        <pt x="564" y="0" on="1"/>
        <pt x="564" y="357" on="1"/>
        <pt x="272" y="357" on="1"/>
        <pt x="196" y="0" on="1"/>
        <pt x="56" y="0" on="1"/>
      </contour>
    </TTGlyph>
    <TTGlyph name="Aacute" xMin="56" yMin="0" xMax="804" yMax="2121">
      <component glyphName="acute" x="142" y="-26" flags="0x1004"/>
      <component glyphName="A" x="0" y="0" flags="0x1004"/>
    </TTGlyph>
    <TTGlyph name="Abreve" xMin="56" yMin="0" xMax="804" yMax="2083">
      <component glyphName="breve" x="-92" y="260" flags="0x1004"/>
      <component glyphName="A" x="0" y="0" flags="0x1004"/>
    </TTGlyph>
    <TTGlyph name="Acircumflex" xMin="56" yMin="0" xMax="804" yMax="2091">
      <component glyphName="circumflex" x="-69" y="260" flags="0x1004"/>
      <component glyphName="A" x="0" y="0" flags="0x1004"/>
    </TTGlyph>
    <TTGlyph name="Adieresis" xMin="56" yMin="0" xMax="804" yMax="2005">
      <component glyphName="dieresis" x="-72" y="1910" flags="0x1004"/>
      <component glyphName="A" x="0" y="0" flags="0x1004"/>
    </TTGlyph>
    <TTGlyph name="Agrave" xMin="56" yMin="0" xMax="804" yMax="2084">
      <component glyphName="grave" x="118" y="1910" flags="0x1004"/>
      <component glyphName="A" x="0" y="0" flags="0x1004"/>
    </TTGlyph>
    <TTGlyph name="Amacron" xMin="56" yMin="0" xMax="804" yMax="1953">
      <component glyphName="macron" x="68" y="1910" flags="0x1004"/>
      <component glyphName="A" x="0" y="0" flags="0x1004"/>
    </TTGlyph>
    <TTGlyph name="Aogonek" xMin="56" yMin="-421" xMax="816" yMax="1760">
      <component glyphName="ogonek" x="4" y="10" flags="0x1004"/>
      <component glyphName="A" x="0" y="0" flags="0x1004"/>
    </TTGlyph>
    <TTGlyph name="Aring" xMin="56" yMin="0" xMax="804" yMax="2134">
      <component glyphName="ring" x="-46" y="1910" flags="0x1004"/>
      <component glyphName="A" x="0" y="0" flags="0x1004"/>
    </TTGlyph>
    <TTGlyph name="Atilde" xMin="56" yMin="0" xMax="804" yMax="2080">
      <component glyphName="tilde" x="-142" y="1910" flags="0x1004"/>
      <component glyphName="A" x="0" y="0" flags="0x1004"/>
    </TTGlyph>
    <TTGlyph name="B" xMin="160" yMin="0" xMax="769" yMax="1760">
      <contour>
        <pt x="421" y="1629" on="1"/>
        <pt x="309" y="1629" on="1"/>
        <pt x="309" y="1004" on="1"/>
        <pt x="443" y="1004" on="1"/>
        <pt x="512" y="1004" on="0"/>
        <pt x="559" y="1034" on="0"/>
        <pt x="568" y="1054" on="1"/>
        <pt x="596" y="1117" on="0"/>
        <pt x="596" y="1486" on="0"/>
        <pt x="559" y="1586" on="0"/>
        <pt x="497" y="1629" on="0"/>
      </contour>
      <contour>
        <pt x="470" y="884" on="1"/>
        <pt x="309" y="884" on="1"/>
        <pt x="309" y="128" on="1"/>
        <pt x="467" y="128" on="1"/>
        <pt x="540" y="128" on="0"/>
        <pt x="608" y="224" on="0"/>
        <pt x="620" y="428" on="0"/>
        <pt x="620" y="500" on="1"/>
        <pt x="620" y="583" on="1"/>
        <pt x="620" y="731" on="0"/>
        <pt x="559" y="884" on="0"/>
      </contour>
      <contour>
        <pt x="160" y="1760" on="1"/>
        <pt x="417" y="1760" on="1"/>
        <pt x="575" y="1760" on="0"/>
        <pt x="718" y="1652" on="0"/>
        <pt x="736" y="1516" on="1"/>
        <pt x="744" y="1456" on="0"/>
        <pt x="745" y="1366" on="1"/>
        <pt x="745" y="1343" on="1"/>
        <pt x="745" y="1172" on="0"/>
        <pt x="701" y="992" on="0"/>
        <pt x="632" y="947" on="1"/>
        <pt x="710" y="909" on="0"/>
        <pt x="769" y="686" on="0"/>
        <pt x="769" y="518" on="1"/>
        <pt x="769" y="487" on="1"/>
        <pt x="765" y="230" on="0"/>
        <pt x="641" y="0" on="0"/>
        <pt x="462" y="0" on="1"/>
        <pt x="160" y="0" on="1"/>
      </contour>
    </TTGlyph>
    <TTGlyph name="C" xMin="134" yMin="-20" xMax="749" yMax="1782">
      <contour>
        <pt x="134" y="1251" on="1"/>
        <pt x="134" y="1571" on="0"/>
        <pt x="295" y="1782" on="0"/>
        <pt x="592" y="1782" on="0"/>
        <pt x="656" y="1709" on="1"/>
        <pt x="702" y="1656" on="0"/>
        <pt x="716" y="1604" on="1"/>
        <pt x="749" y="1482" on="0"/>
        <pt x="749" y="1239" on="1"/>
        <pt x="749" y="1087" on="1"/>
        <pt x="598" y="1087" on="1"/>
        <pt x="598" y="1257" on="1"/>
        <pt x="598" y="1479" on="0"/>
        <pt x="550" y="1629" on="0"/>
        <pt x="506" y="1649" on="1"/>
        <pt x="482" y="1660" on="0"/>
        <pt x="451" y="1660" on="1"/>
        <pt x="356" y="1660" on="0"/>
        <pt x="283" y="1466" on="0"/>
        <pt x="283" y="1258" on="1"/>
        <pt x="283" y="552" on="1"/>
        <pt x="283" y="297" on="0"/>
        <pt x="347" y="102" on="0"/>
        <pt x="539" y="102" on="0"/>
        <pt x="598" y="296" on="0"/>
        <pt x="598" y="551" on="1"/>
        <pt x="598" y="692" on="1"/>
        <pt x="748" y="692" on="1"/>
        <pt x="748" y="552" on="1"/>
        <pt x="748" y="321" on="0"/>
        <pt x="696" y="118" on="0"/>
        <pt x="663" y="74" on="1"/>
        <pt x="593" y="-20" on="0"/>
        <pt x="299" y="-20" on="0"/>
        <pt x="225" y="73" on="1"/>
        <pt x="134" y="187" on="0"/>
        <pt x="134" y="550" on="1"/>
      </contour>
    </TTGlyph>
    <TTGlyph name="Cacute" xMin="134" yMin="-20" xMax="749" yMax="2121">
      <component glyphName="C" x="0" y="0" flags="0x1004"/>
      <component glyphName="acute" x="164" y="-26" flags="0x1004"/>
    </TTGlyph>
    <TTGlyph name="Ccaron" xMin="134" yMin="-20" xMax="749" yMax="2090">
      <component glyphName="C" x="0" y="0" flags="0x1004"/>
      <component glyphName="caron" x="-47" y="260" flags="0x1004"/>
    </TTGlyph>
    <TTGlyph name="Ccedilla" xMin="134" yMin="-596" xMax="749" yMax="1782">
      <component glyphName="cedilla" x="-72" y="0" flags="0x1004"/>
      <component glyphName="C" x="0" y="0" flags="0x1004"/>
    </TTGlyph>
    <TTGlyph name="Ccircumflex" xMin="134" yMin="-20" xMax="749" yMax="2091">
      <component glyphName="C" x="0" y="0" flags="0x1004"/>
      <component glyphName="circumflex" x="-47" y="260" flags="0x1004"/>
    </TTGlyph>
    <TTGlyph name="Cdotaccent" xMin="134" yMin="-20" xMax="749" yMax="1988">
      <component glyphName="dotaccent" x="155" y="1910" flags="0x1004"/>
      <component glyphName="C" x="0" y="0" flags="0x1004"/>
    </TTGlyph>
    <TTGlyph name="D" xMin="159" yMin="0" xMax="771" yMax="1760">
      <contour>
        <pt x="621" y="1274" on="1"/>
        <pt x="621" y="1466" on="0"/>
        <pt x="533" y="1636" on="0"/>
        <pt x="439" y="1636" on="1"/>
        <pt x="307" y="1636" on="1"/>
        <pt x="307" y="128" on="1"/>
        <pt x="430" y="128" on="1"/>
        <pt x="554" y="128" on="0"/>
        <pt x="592" y="241" on="1"/>
        <pt x="622" y="334" on="0"/>
        <pt x="622" y="519" on="1"/>
      </contour>
      <contour>
        <pt x="159" y="1760" on="1"/>
        <pt x="430" y="1760" on="1"/>
        <pt x="667" y="1760" on="0"/>
        <pt x="732" y="1566" on="1"/>
        <pt x="770" y="1453" on="0"/>
        <pt x="770" y="1258" on="1"/>
        <pt x="771" y="504" on="1"/>
        <pt x="771" y="229" on="0"/>
        <pt x="615" y="0" on="0"/>
        <pt x="424" y="0" on="1"/>
        <pt x="159" y="0" on="1"/>
      </contour>
    </TTGlyph>
    <TTGlyph name="Dcaron" xMin="159" yMin="0" xMax="771" yMax="2090">
      <component glyphName="D" x="0" y="0" flags="0x1004"/>
      <component glyphName="caron" x="-50" y="260" flags="0x1004"/>
    </TTGlyph>
    <TTGlyph name="Dcroat" xMin="14" yMin="0" xMax="771" yMax="1760">
      <component glyphName="D" x="0" y="0" flags="0x1004"/>
      <component glyphName="macron" x="-76" y="911" flags="0x1004"/>
    </TTGlyph>
    <TTGlyph name="E" xMin="160" yMin="0" xMax="625" yMax="1760">
      <contour>
        <pt x="160" y="1760" on="1"/>
        <pt x="625" y="1760" on="1"/>
        <pt x="625" y="1644" on="1"/>
        <pt x="309" y="1644" on="1"/>
        <pt x="309" y="956" on="1"/>
        <pt x="606" y="956" on="1"/>
        <pt x="606" y="835" on="1"/>
        <pt x="309" y="835" on="1"/>
        <pt x="309" y="118" on="1"/>
        <pt x="622" y="118" on="1"/>
        <pt x="622" y="0" on="1"/>
        <pt x="160" y="0" on="1"/>
      </contour>
    </TTGlyph>
    <TTGlyph name="Eacute" xMin="160" yMin="0" xMax="625" yMax="2121">
      <component glyphName="E" x="0" y="0" flags="0x1004"/>
      <component glyphName="acute" x="118" y="-26" flags="0x1004"/>
    </TTGlyph>
    <TTGlyph name="Ebreve" xMin="160" yMin="0" xMax="625" yMax="2083">
      <component glyphName="breve" x="-110" y="260" flags="0x1004"/>
      <component glyphName="E" x="0" y="0" flags="0x1004"/>
    </TTGlyph>
    <TTGlyph name="Ecaron" xMin="160" yMin="0" xMax="625" yMax="2090">
      <component glyphName="E" x="0" y="0" flags="0x1004"/>
      <component glyphName="caron" x="-94" y="260" flags="0x1004"/>
    </TTGlyph>
    <TTGlyph name="Ecircumflex" xMin="160" yMin="0" xMax="625" yMax="2091">
      <component glyphName="E" x="0" y="0" flags="0x1004"/>
      <component glyphName="circumflex" x="-94" y="260" flags="0x1004"/>
    </TTGlyph>
    <TTGlyph name="Edieresis" xMin="58" yMin="0" xMax="670" yMax="2005">
      <component glyphName="E" x="0" y="0" flags="0x1004"/>
      <component glyphName="dieresis" x="-97" y="1910" flags="0x1004"/>
    </TTGlyph>
    <TTGlyph name="Edotaccent" xMin="160" yMin="0" xMax="625" yMax="1988">
      <component glyphName="dotaccent" x="112" y="1910" flags="0x1004"/>
      <component glyphName="E" x="0" y="0" flags="0x1004"/>
    </TTGlyph>
    <TTGlyph name="Egrave" xMin="160" yMin="0" xMax="625" yMax="2084">
      <component glyphName="grave" x="100" y="1910" flags="0x1004"/>
      <component glyphName="E" x="0" y="0" flags="0x1004"/>
    </TTGlyph>
    <TTGlyph name="Emacron" xMin="140" yMin="0" xMax="635" yMax="1953">
      <component glyphName="macron" x="50" y="1910" flags="0x1004"/>
      <component glyphName="E" x="0" y="0" flags="0x1004"/>
    </TTGlyph>
    <TTGlyph name="Eogonek" xMin="160" yMin="-421" xMax="630" yMax="1760">
      <component glyphName="E" x="0" y="0" flags="0x1004"/>
      <component glyphName="ogonek" x="-182" y="10" flags="0x1004"/>
    </TTGlyph>
    <TTGlyph name="Eth" xMin="88" yMin="0" xMax="771" yMax="1760">
      <component glyphName="D" x="0" y="0" flags="0x1004"/>
      <component glyphName="hyphen" x="0" y="0" flags="0x1004"/>
    </TTGlyph>
    <TTGlyph name="Euro" xMin="23" yMin="-20" xMax="749" yMax="1782">
      <contour>
        <pt x="134" y="1251" on="1"/>
        <pt x="134" y="1571" on="0"/>
        <pt x="295" y="1782" on="0"/>
        <pt x="592" y="1782" on="0"/>
        <pt x="656" y="1709" on="1"/>
        <pt x="702" y="1656" on="0"/>
        <pt x="716" y="1604" on="1"/>
        <pt x="749" y="1482" on="0"/>
        <pt x="749" y="1239" on="1"/>
        <pt x="749" y="1087" on="1"/>
        <pt x="598" y="1087" on="1"/>
        <pt x="598" y="1257" on="1"/>
        <pt x="598" y="1479" on="0"/>
        <pt x="550" y="1629" on="0"/>
        <pt x="506" y="1649" on="1"/>
        <pt x="482" y="1660" on="0"/>
        <pt x="451" y="1660" on="1"/>
        <pt x="356" y="1660" on="0"/>
        <pt x="283" y="1466" on="0"/>
        <pt x="283" y="1258" on="1"/>
        <pt x="283" y="1076" on="1"/>
        <pt x="508" y="1076" on="1"/>
        <pt x="508" y="986" on="1"/>
        <pt x="283" y="986" on="1"/>
        <pt x="283" y="849" on="1"/>
        <pt x="508" y="849" on="1"/>
        <pt x="508" y="751" on="1"/>
        <pt x="283" y="751" on="1"/>
        <pt x="283" y="552" on="1"/>
        <pt x="283" y="297" on="0"/>
        <pt x="347" y="102" on="0"/>
        <pt x="539" y="102" on="0"/>
        <pt x="598" y="296" on="0"/>
        <pt x="598" y="551" on="1"/>
        <pt x="598" y="692" on="1"/>
        <pt x="748" y="692" on="1"/>
        <pt x="748" y="552" on="1"/>
        <pt x="748" y="321" on="0"/>
        <pt x="696" y="118" on="0"/>
        <pt x="663" y="74" on="1"/>
        <pt x="593" y="-20" on="0"/>
        <pt x="299" y="-20" on="0"/>
        <pt x="225" y="73" on="1"/>
        <pt x="134" y="187" on="0"/>
        <pt x="134" y="550" on="1"/>
        <pt x="134" y="751" on="1"/>
        <pt x="23" y="751" on="1"/>
        <pt x="23" y="849" on="1"/>
        <pt x="134" y="849" on="1"/>
        <pt x="134" y="986" on="1"/>
        <pt x="23" y="986" on="1"/>
        <pt x="23" y="1076" on="1"/>
        <pt x="134" y="1076" on="1"/>
      </contour>
    </TTGlyph>
    <TTGlyph name="F" xMin="160" yMin="0" xMax="622" yMax="1760">
      <contour>
        <pt x="160" y="1760" on="1"/>
        <pt x="622" y="1760" on="1"/>
        <pt x="622" y="1644" on="1"/>
        <pt x="308" y="1644" on="1"/>
        <pt x="308" y="1005" on="1"/>
        <pt x="605" y="1005" on="1"/>
        <pt x="605" y="886" on="1"/>
        <pt x="308" y="886" on="1"/>
        <pt x="308" y="0" on="1"/>
        <pt x="160" y="0" on="1"/>
      </contour>
    </TTGlyph>
    <TTGlyph name="G" xMin="134" yMin="-20" xMax="747" yMax="1782">
      <contour>
        <pt x="134" y="1245" on="1"/>
        <pt x="134" y="1518" on="0"/>
        <pt x="188" y="1625" on="1"/>
        <pt x="266" y="1782" on="0"/>
        <pt x="445" y="1782" on="1"/>
        <pt x="560" y="1782" on="0"/>
        <pt x="682" y="1692" on="0"/>
        <pt x="700" y="1639" on="1"/>
        <pt x="734" y="1540" on="0"/>
        <pt x="747" y="1361" on="0"/>
        <pt x="747" y="1247" on="1"/>
        <pt x="747" y="1100" on="1"/>
        <pt x="595" y="1100" on="1"/>
        <pt x="595" y="1372" on="1"/>
        <pt x="595" y="1522" on="0"/>
        <pt x="535" y="1660" on="0"/>
        <pt x="356" y="1660" on="0"/>
        <pt x="283" y="1481" on="0"/>
        <pt x="283" y="1261" on="1"/>
        <pt x="283" y="543" on="1"/>
        <pt x="283" y="294" on="0"/>
        <pt x="347" y="102" on="0"/>
        <pt x="535" y="102" on="0"/>
        <pt x="599" y="296" on="0"/>
        <pt x="599" y="541" on="1"/>
        <pt x="599" y="763" on="1"/>
        <pt x="448" y="763" on="1"/>
        <pt x="448" y="890" on="1"/>
        <pt x="747" y="890" on="1"/>
        <pt x="747" y="0" on="1"/>
        <pt x="649" y="0" on="1"/>
        <pt x="633" y="102" on="1"/>
        <pt x="596" y="40" on="0"/>
        <pt x="496" y="-20" on="0"/>
        <pt x="417" y="-20" on="1"/>
        <pt x="269" y="-20" on="0"/>
        <pt x="134" y="239" on="0"/>
        <pt x="134" y="532" on="1"/>
      </contour>
    </TTGlyph>
    <TTGlyph name="Gbreve" xMin="134" yMin="-20" xMax="747" yMax="2083">
      <component glyphName="breve" x="-52" y="260" flags="0x1004"/>
      <component glyphName="G" x="0" y="0" flags="0x1004"/>
    </TTGlyph>
    <TTGlyph name="Gcircumflex" xMin="134" yMin="-20" xMax="747" yMax="2091">
      <component glyphName="G" x="0" y="0" flags="0x1004"/>
      <component glyphName="circumflex" x="-33" y="260" flags="0x1004"/>
    </TTGlyph>
    <TTGlyph name="Gcommaaccent" xMin="134" yMin="-612" xMax="747" yMax="1782">
      <component glyphName="uni0326" x="200" y="-389" flags="0x1004"/>
      <component glyphName="G" x="0" y="0" flags="0x1004"/>
    </TTGlyph>
    <TTGlyph name="Gdotaccent" xMin="134" yMin="-20" xMax="747" yMax="1988">
      <component glyphName="dotaccent" x="170" y="1910" flags="0x1004"/>
      <component glyphName="G" x="0" y="0" flags="0x1004"/>
    </TTGlyph>
    <TTGlyph name="H" xMin="160" yMin="0" xMax="780" yMax="1760">
      <contour>
        <pt x="631" y="1760" on="1"/>
        <pt x="780" y="1760" on="1"/>
        <pt x="780" y="0" on="1"/>
        <pt x="631" y="0" on="1"/>
        <pt x="631" y="886" on="1"/>
        <pt x="309" y="886" on="1"/>
        <pt x="309" y="0" on="1"/>
        <pt x="160" y="0" on="1"/>
        <pt x="160" y="1760" on="1"/>
        <pt x="309" y="1760" on="1"/>
        <pt x="309" y="998" on="1"/>
        <pt x="631" y="998" on="1"/>
      </contour>
    </TTGlyph>
    <TTGlyph name="Hbar" xMin="55" yMin="0" xMax="900" yMax="1760">
      <contour>
        <pt x="309" y="1416" on="1"/>
        <pt x="309" y="998" on="1"/>
        <pt x="631" y="998" on="1"/>
        <pt x="631" y="1416" on="1"/>
      </contour>
      <contour>
        <pt x="631" y="1760" on="1"/>
        <pt x="780" y="1760" on="1"/>
        <pt x="780" y="1498" on="1"/>
        <pt x="900" y="1498" on="1"/>
        <pt x="900" y="1416" on="1"/>
        <pt x="780" y="1416" on="1"/>
        <pt x="780" y="0" on="1"/>
        <pt x="631" y="0" on="1"/>
        <pt x="631" y="886" on="1"/>
        <pt x="309" y="886" on="1"/>
        <pt x="309" y="0" on="1"/>
        <pt x="160" y="0" on="1"/>
        <pt x="160" y="1416" on="1"/>
        <pt x="55" y="1416" on="1"/>
        <pt x="55" y="1498" on="1"/>
        <pt x="160" y="1498" on="1"/>
        <pt x="160" y="1760" on="1"/>
        <pt x="309" y="1760" on="1"/>
        <pt x="309" y="1498" on="1"/>
        <pt x="631" y="1498" on="1"/>
      </contour>
    </TTGlyph>
    <TTGlyph name="Hcircumflex" xMin="160" yMin="0" xMax="780" yMax="2091">
      <component glyphName="H" x="0" y="0" flags="0x1004"/>
      <component glyphName="circumflex" x="-12" y="260" flags="0x1004"/>
    </TTGlyph>
    <TTGlyph name="I" xMin="178" yMin="0" xMax="327" yMax="1760">
      <contour>
        <pt x="178" y="1760" on="1"/>
        <pt x="327" y="1760" on="1"/>
        <pt x="327" y="0" on="1"/>
        <pt x="178" y="0" on="1"/>
      </contour>
    </TTGlyph>
    <TTGlyph name="IJ" xMin="178" yMin="-21" xMax="1150" yMax="1760">
      <component glyphName="J" x="504" y="0" flags="0x1004"/>
      <component glyphName="I" x="0" y="0" flags="0x1004"/>
    </TTGlyph>
    <TTGlyph name="Iacute" xMin="78" yMin="0" xMax="476" yMax="2121">
      <component glyphName="acute" x="-22" y="-26" flags="0x1004"/>
      <component glyphName="I" x="0" y="0" flags="0x1004"/>
    </TTGlyph>
    <TTGlyph name="Ibreve" xMin="59" yMin="0" xMax="440" yMax="2083">
      <component glyphName="breve" x="-256" y="260" flags="0x1004"/>
      <component glyphName="I" x="0" y="0" flags="0x1004"/>
    </TTGlyph>
    <TTGlyph name="Icircumflex" xMin="48" yMin="0" xMax="455" yMax="2091">
      <component glyphName="circumflex" x="-233" y="260" flags="0x1004"/>
      <component glyphName="I" x="0" y="0" flags="0x1004"/>
    </TTGlyph>
    <TTGlyph name="Idieresis" xMin="-81" yMin="0" xMax="531" yMax="2005">
      <component glyphName="dieresis" x="-236" y="1910" flags="0x1004"/>
      <component glyphName="I" x="0" y="0" flags="0x1004"/>
    </TTGlyph>
    <TTGlyph name="Idotaccent" xMin="178" yMin="0" xMax="338" yMax="1988">
      <component glyphName="dotaccent" x="-34" y="1910" flags="0x1004"/>
      <component glyphName="I" x="0" y="0" flags="0x1004"/>
    </TTGlyph>
    <TTGlyph name="Igrave" xMin="90" yMin="0" xMax="422" yMax="2084">
      <component glyphName="grave" x="-46" y="1910" flags="0x1004"/>
      <component glyphName="I" x="0" y="0" flags="0x1004"/>
    </TTGlyph>
    <TTGlyph name="Imacron" xMin="-6" yMin="0" xMax="489" yMax="1953">
      <component glyphName="macron" x="-96" y="1910" flags="0x1004"/>
      <component glyphName="I" x="0" y="0" flags="0x1004"/>
    </TTGlyph>
    <TTGlyph name="Iogonek" xMin="63" yMin="-421" xMax="384" yMax="1760">
      <component glyphName="ogonek" x="-428" y="10" flags="0x1004"/>
      <component glyphName="I" x="0" y="0" flags="0x1004"/>
    </TTGlyph>
    <TTGlyph name="Itilde" xMin="-40" yMin="0" xMax="543" yMax="2080">
      <component glyphName="tilde" x="-306" y="1910" flags="0x1004"/>
      <component glyphName="I" x="0" y="0" flags="0x1004"/>
    </TTGlyph>
    <TTGlyph name="J" xMin="94" yMin="-21" xMax="646" yMax="1760">
      <contour>
        <pt x="497" y="1760" on="1"/>
        <pt x="646" y="1760" on="1"/>
        <pt x="646" y="420" on="1"/>
        <pt x="646" y="190" on="0"/>
        <pt x="521" y="-21" on="0"/>
        <pt x="219" y="-21" on="0"/>
        <pt x="94" y="174" on="0"/>
        <pt x="94" y="389" on="1"/>
        <pt x="94" y="540" on="1"/>
        <pt x="245" y="540" on="1"/>
        <pt x="245" y="331" on="1"/>
        <pt x="245" y="192" on="0"/>
        <pt x="303" y="115" on="0"/>
        <pt x="348" y="103" on="0"/>
        <pt x="375" y="103" on="1"/>
        <pt x="481" y="103" on="0"/>
        <pt x="492" y="242" on="1"/>
        <pt x="497" y="298" on="0"/>
        <pt x="497" y="349" on="1"/>
      </contour>
    </TTGlyph>
    <TTGlyph name="Jcircumflex" xMin="94" yMin="-21" xMax="757" yMax="2091">
      <component glyphName="J" x="0" y="0" flags="0x1004"/>
      <component glyphName="circumflex" x="69" y="260" flags="0x1004"/>
    </TTGlyph>
    <TTGlyph name="K" xMin="160" yMin="0" xMax="831" yMax="1760">
      <contour>
        <pt x="664" y="1760" on="1"/>
        <pt x="808" y="1760" on="1"/>
        <pt x="446" y="891" on="1"/>
        <pt x="831" y="0" on="1"/>
        <pt x="677" y="0" on="1"/>
        <pt x="311" y="860" on="1"/>
        <pt x="311" y="0" on="1"/>
        <pt x="160" y="0" on="1"/>
        <pt x="160" y="1760" on="1"/>
        <pt x="309" y="1760" on="1"/>
        <pt x="309" y="893" on="1"/>
      </contour>
    </TTGlyph>
    <TTGlyph name="Kcommaaccent" xMin="160" yMin="-612" xMax="831" yMax="1760">
      <component glyphName="uni0326" x="168" y="-389" flags="0x1004"/>
      <component glyphName="K" x="0" y="0" flags="0x1004"/>
    </TTGlyph>
    <TTGlyph name="L" xMin="160" yMin="0" xMax="621" yMax="1760">
      <contour>
        <pt x="160" y="1760" on="1"/>
        <pt x="309" y="1760" on="1"/>
        <pt x="309" y="118" on="1"/>
        <pt x="621" y="118" on="1"/>
        <pt x="621" y="0" on="1"/>
        <pt x="160" y="0" on="1"/>
      </contour>
    </TTGlyph>
    <TTGlyph name="Lacute" xMin="160" yMin="0" xMax="621" yMax="2121">
      <component glyphName="L" x="0" y="0" flags="0x1004"/>
      <component glyphName="acute" x="70" y="-26" flags="0x1004"/>
    </TTGlyph>
    <TTGlyph name="Lcaron" xMin="160" yMin="0" xMax="787" yMax="1764">
      <contour>
        <pt x="160" y="1760" on="1"/>
        <pt x="309" y="1760" on="1"/>
        <pt x="309" y="118" on="1"/>
        <pt x="621" y="118" on="1"/>
        <pt x="621" y="0" on="1"/>
        <pt x="160" y="0" on="1"/>
      </contour>
      <contour>
        <pt x="589" y="1764" on="1"/>
        <pt x="787" y="1764" on="1"/>
        <pt x="787" y="1580" on="1"/>
        <pt x="708" y="1298" on="1"/>
        <pt x="647" y="1298" on="1"/>
        <pt x="689" y="1571" on="1"/>
        <pt x="589" y="1571" on="1"/>
      </contour>
    </TTGlyph>
    <TTGlyph name="Lcommaaccent" xMin="160" yMin="-612" xMax="621" yMax="1760">
      <component glyphName="uni0326" x="146" y="-389" flags="0x1004"/>
      <component glyphName="L" x="0" y="0" flags="0x1004"/>
    </TTGlyph>
    <TTGlyph name="Ldot" xMin="160" yMin="0" xMax="672" yMax="1760">
      <component glyphName="periodcentered" x="339" y="29" flags="0x1004"/>
      <component glyphName="L" x="0" y="0" flags="0x1004"/>
    </TTGlyph>
    <TTGlyph name="Lslash" xMin="-1" yMin="0" xMax="621" yMax="1760">
      <contour>
        <pt x="160" y="1760" on="1"/>
        <pt x="309" y="1760" on="1"/>
        <pt x="309" y="1051" on="1"/>
        <pt x="497" y="1133" on="1"/>
        <pt x="497" y="1011" on="1"/>
        <pt x="309" y="929" on="1"/>
        <pt x="309" y="118" on="1"/>
        <pt x="621" y="118" on="1"/>
        <pt x="621" y="0" on="1"/>
        <pt x="160" y="0" on="1"/>
        <pt x="160" y="864" on="1"/>
        <pt x="-1" y="794" on="1"/>
        <pt x="-1" y="916" on="1"/>
        <pt x="160" y="986" on="1"/>
      </contour>
    </TTGlyph>
    <TTGlyph name="M" xMin="160" yMin="0" xMax="1038" yMax="1760">
      <contour>
        <pt x="871" y="1760" on="1"/>
        <pt x="1038" y="1760" on="1"/>
        <pt x="1038" y="0" on="1"/>
        <pt x="903" y="0" on="1"/>
        <pt x="903" y="754" on="1"/>
        <pt x="926" y="1463" on="1"/>
        <pt x="675" y="38" on="1"/>
        <pt x="533" y="38" on="1"/>
        <pt x="273" y="1463" on="1"/>
        <pt x="296" y="754" on="1"/>
        <pt x="296" y="0" on="1"/>
        <pt x="160" y="0" on="1"/>
        <pt x="160" y="1760" on="1"/>
        <pt x="327" y="1760" on="1"/>
        <pt x="604" y="282" on="1"/>
      </contour>
    </TTGlyph>
    <TTGlyph name="N" xMin="160" yMin="0" xMax="811" yMax="1760">
      <contour>
        <pt x="681" y="1760" on="1"/>
        <pt x="811" y="1760" on="1"/>
        <pt x="811" y="0" on="1"/>
        <pt x="695" y="0" on="1"/>
        <pt x="290" y="1326" on="1"/>
        <pt x="300" y="850" on="1"/>
        <pt x="300" y="0" on="1"/>
        <pt x="160" y="0" on="1"/>
        <pt x="160" y="1760" on="1"/>
        <pt x="264" y="1760" on="1"/>
        <pt x="696" y="399" on="1"/>
        <pt x="681" y="1005" on="1"/>
      </contour>
    </TTGlyph>
    <TTGlyph name="Nacute" xMin="160" yMin="0" xMax="811" yMax="2121">
      <component glyphName="N" x="0" y="0" flags="0x1004"/>
      <component glyphName="acute" x="208" y="-26" flags="0x1004"/>
    </TTGlyph>
    <TTGlyph name="Ncaron" xMin="160" yMin="0" xMax="811" yMax="2090">
      <component glyphName="N" x="0" y="0" flags="0x1004"/>
      <component glyphName="caron" x="-4" y="260" flags="0x1004"/>
    </TTGlyph>
    <TTGlyph name="Ncommaaccent" xMin="160" yMin="-612" xMax="811" yMax="1760">
      <component glyphName="uni0326" x="229" y="-389" flags="0x1004"/>
      <component glyphName="N" x="0" y="0" flags="0x1004"/>
    </TTGlyph>
    <TTGlyph name="Ntilde" xMin="160" yMin="0" xMax="811" yMax="2080">
      <component glyphName="tilde" x="-73" y="1910" flags="0x1004"/>
      <component glyphName="N" x="0" y="0" flags="0x1004"/>
    </TTGlyph>
    <TTGlyph name="O" xMin="134" yMin="-20" xMax="753" yMax="1782">
      <contour>
        <pt x="604" y="1280" on="1"/>
        <pt x="604" y="1490" on="0"/>
        <pt x="543" y="1660" on="0"/>
        <pt x="355" y="1660" on="0"/>
        <pt x="283" y="1485" on="0"/>
        <pt x="283" y="1281" on="1"/>
        <pt x="283" y="519" on="1"/>
        <pt x="283" y="276" on="0"/>
        <pt x="333" y="140" on="0"/>
        <pt x="394" y="102" on="0"/>
        <pt x="494" y="102" on="0"/>
        <pt x="554" y="140" on="0"/>
        <pt x="604" y="275" on="0"/>
        <pt x="604" y="519" on="1"/>
      </contour>
      <contour>
        <pt x="134" y="1268" on="1"/>
        <pt x="134" y="1587" on="0"/>
        <pt x="294" y="1782" on="0"/>
        <pt x="626" y="1782" on="0"/>
        <pt x="689" y="1674" on="1"/>
        <pt x="731" y="1601" on="0"/>
        <pt x="753" y="1407" on="0"/>
        <pt x="753" y="1268" on="1"/>
        <pt x="753" y="519" on="1"/>
        <pt x="753" y="290" on="0"/>
        <pt x="698" y="103" on="0"/>
        <pt x="664" y="63" on="1"/>
        <pt x="592" y="-20" on="0"/>
        <pt x="445" y="-20" on="1"/>
        <pt x="226" y="-20" on="0"/>
        <pt x="171" y="169" on="1"/>
        <pt x="134" y="293" on="0"/>
        <pt x="134" y="519" on="1"/>
      </contour>
    </TTGlyph>
    <TTGlyph name="OE" xMin="134" yMin="0" xMax="1082" yMax="1760">
      <contour>
        <pt x="606" y="126" on="1"/>
        <pt x="606" y="1634" on="1"/>
        <pt x="453" y="1634" on="1"/>
        <pt x="354" y="1634" on="0"/>
        <pt x="283" y="1482" on="0"/>
        <pt x="283" y="1282" on="1"/>
        <pt x="283" y="518" on="1"/>
        <pt x="283" y="227" on="0"/>
        <pt x="369" y="126" on="0"/>
        <pt x="446" y="126" on="1"/>
      </contour>
      <contour>
        <pt x="453" y="1760" on="1"/>
        <pt x="1082" y="1760" on="1"/>
        <pt x="1082" y="1644" on="1"/>
        <pt x="755" y="1644" on="1"/>
        <pt x="755" y="956" on="1"/>
        <pt x="1063" y="956" on="1"/>
        <pt x="1063" y="836" on="1"/>
        <pt x="755" y="836" on="1"/>
        <pt x="755" y="118" on="1"/>
        <pt x="1080" y="118" on="1"/>
        <pt x="1080" y="0" on="1"/>
        <pt x="446" y="0" on="1"/>
        <pt x="300" y="0" on="0"/>
        <pt x="226" y="76" on="1"/>
        <pt x="134" y="171" on="0"/>
        <pt x="134" y="519" on="1"/>
        <pt x="134" y="1269" on="1"/>
        <pt x="134" y="1465" on="0"/>
        <pt x="184" y="1638" on="0"/>
        <pt x="218" y="1676" on="1"/>
        <pt x="294" y="1760" on="0"/>
      </contour>
    </TTGlyph>
    <TTGlyph name="Oacute" xMin="134" yMin="-20" xMax="753" yMax="2120">
      <component glyphName="O" x="0" y="0" flags="0x1004"/>
      <component glyphName="acute" x="167" y="-27" flags="0x1004"/>
    </TTGlyph>
    <TTGlyph name="Obreve" xMin="134" yMin="-20" xMax="753" yMax="2082">
      <component glyphName="breve" x="-64" y="259" flags="0x1004"/>
      <component glyphName="O" x="0" y="0" flags="0x1004"/>
    </TTGlyph>
    <TTGlyph name="Ocircumflex" xMin="134" yMin="-20" xMax="753" yMax="2090">
      <component glyphName="O" x="0" y="0" flags="0x1004"/>
      <component glyphName="circumflex" x="-45" y="259" flags="0x1004"/>
    </TTGlyph>
    <TTGlyph name="Odieresis" xMin="107" yMin="-20" xMax="753" yMax="2004">
      <component glyphName="O" x="0" y="0" flags="0x1004"/>
      <component glyphName="dieresis" x="-48" y="1909" flags="0x1004"/>
    </TTGlyph>
    <TTGlyph name="Ograve" xMin="134" yMin="-20" xMax="753" yMax="2083">
      <component glyphName="grave" x="146" y="1909" flags="0x1004"/>
      <component glyphName="O" x="0" y="0" flags="0x1004"/>
    </TTGlyph>
    <TTGlyph name="Ohungarumlaut" xMin="134" yMin="-20" xMax="813" yMax="2340">
      <component glyphName="O" x="0" y="0" flags="0x1004"/>
      <component glyphName="hungarumlaut" x="-221" y="1909" flags="0x1004"/>
    </TTGlyph>
    <TTGlyph name="Omacron" xMin="134" yMin="-20" xMax="753" yMax="2019">
      <component glyphName="uni02C9" x="104" y="1278" flags="0x1004"/>
      <component glyphName="O" x="0" y="0" flags="0x1204"/>
    </TTGlyph>
    <TTGlyph name="Oslash" xMin="57" yMin="-206" xMax="892" yMax="1906">
      <contour>
        <pt x="602" y="1384" on="1"/>
        <pt x="596" y="1513" on="0"/>
        <pt x="574" y="1575" on="1"/>
        <pt x="544" y="1660" on="0"/>
        <pt x="355" y="1660" on="0"/>
        <pt x="283" y="1485" on="0"/>
        <pt x="283" y="1281" on="1"/>
        <pt x="283" y="519" on="1"/>
        <pt x="283" y="498" on="0"/>
        <pt x="283" y="478" on="1"/>
      </contour>
      <contour>
        <pt x="305" y="216" on="1"/>
        <pt x="327" y="144" on="0"/>
        <pt x="394" y="102" on="0"/>
        <pt x="494" y="102" on="0"/>
        <pt x="554" y="140" on="0"/>
        <pt x="604" y="275" on="0"/>
        <pt x="604" y="519" on="1"/>
        <pt x="604" y="1058" on="1"/>
      </contour>
      <contour>
        <pt x="173" y="163" on="1"/>
        <pt x="134" y="288" on="0"/>
        <pt x="134" y="519" on="1"/>
        <pt x="134" y="1268" on="1"/>
        <pt x="134" y="1587" on="0"/>
        <pt x="294" y="1782" on="0"/>
        <pt x="634" y="1782" on="0"/>
        <pt x="698" y="1658" on="1"/>
        <pt x="785" y="1906" on="1"/>
        <pt x="892" y="1870" on="1"/>
        <pt x="746" y="1459" on="1"/>
        <pt x="753" y="1376" on="0"/>
        <pt x="753" y="1268" on="1"/>
        <pt x="753" y="519" on="1"/>
        <pt x="753" y="290" on="0"/>
        <pt x="698" y="103" on="0"/>
        <pt x="664" y="63" on="1"/>
        <pt x="592" y="-20" on="0"/>
        <pt x="317" y="-20" on="0"/>
        <pt x="245" y="45" on="1"/>
        <pt x="156" y="-206" on="1"/>
        <pt x="57" y="-166" on="1"/>
      </contour>
    </TTGlyph>
    <TTGlyph name="Otilde" xMin="134" yMin="-20" xMax="753" yMax="2079">
      <component glyphName="tilde" x="-114" y="1909" flags="0x1004"/>
      <component glyphName="O" x="0" y="0" flags="0x1004"/>
    </TTGlyph>
    <TTGlyph name="P" xMin="160" yMin="0" xMax="771" yMax="1760">
      <contour>
        <pt x="622" y="1229" on="1"/>
        <pt x="622" y="1276" on="1"/>
        <pt x="622" y="1470" on="0"/>
        <pt x="563" y="1636" on="0"/>
        <pt x="474" y="1636" on="1"/>
        <pt x="309" y="1636" on="1"/>
        <pt x="309" y="815" on="1"/>
        <pt x="467" y="815" on="1"/>
        <pt x="559" y="815" on="0"/>
        <pt x="622" y="990" on="0"/>
      </contour>
      <contour>
        <pt x="160" y="1760" on="1"/>
        <pt x="466" y="1760" on="1"/>
        <pt x="574" y="1760" on="0"/>
        <pt x="699" y="1679" on="0"/>
        <pt x="720" y="1629" on="1"/>
        <pt x="756" y="1539" on="0"/>
        <pt x="771" y="1369" on="0"/>
        <pt x="771" y="1249" on="1"/>
        <pt x="771" y="1231" on="1"/>
        <pt x="771" y="1002" on="0"/>
        <pt x="714" y="814" on="0"/>
        <pt x="678" y="773" on="1"/>
        <pt x="605" y="689" on="0"/>
        <pt x="457" y="689" on="1"/>
        <pt x="309" y="689" on="1"/>
        <pt x="309" y="0" on="1"/>
        <pt x="160" y="0" on="1"/>
      </contour>
    </TTGlyph>
    <TTGlyph name="Q" xMin="134" yMin="-389" xMax="753" yMax="1782">
      <contour>
        <pt x="134" y="1268" on="1"/>
        <pt x="134" y="1587" on="0"/>
        <pt x="294" y="1782" on="0"/>
        <pt x="466" y="1782" on="1"/>
        <pt x="663" y="1782" on="0"/>
        <pt x="722" y="1602" on="1"/>
        <pt x="753" y="1508" on="0"/>
        <pt x="753" y="1268" on="1"/>
        <pt x="753" y="519" on="1"/>
        <pt x="753" y="290" on="0"/>
        <pt x="717" y="167" on="1"/>
        <pt x="675" y="24" on="0"/>
        <pt x="538" y="-10" on="1"/>
        <pt x="720" y="-337" on="1"/>
        <pt x="622" y="-389" on="1"/>
        <pt x="410" y="-19" on="1"/>
        <pt x="291" y="-10" on="0"/>
        <pt x="226" y="63" on="1"/>
        <pt x="190" y="103" on="0"/>
        <pt x="134" y="293" on="0"/>
        <pt x="134" y="519" on="1"/>
      </contour>
      <contour>
        <pt x="604" y="1280" on="1"/>
        <pt x="604" y="1490" on="0"/>
        <pt x="543" y="1660" on="0"/>
        <pt x="355" y="1660" on="0"/>
        <pt x="283" y="1485" on="0"/>
        <pt x="283" y="1281" on="1"/>
        <pt x="283" y="519" on="1"/>
        <pt x="283" y="276" on="0"/>
        <pt x="333" y="140" on="0"/>
        <pt x="394" y="102" on="0"/>
        <pt x="494" y="102" on="0"/>
        <pt x="554" y="140" on="0"/>
        <pt x="604" y="275" on="0"/>
        <pt x="604" y="519" on="1"/>
      </contour>
    </TTGlyph>
    <TTGlyph name="R" xMin="160" yMin="0" xMax="793" yMax="1760">
      <contour>
        <pt x="623" y="1335" on="1"/>
        <pt x="623" y="1468" on="0"/>
        <pt x="598" y="1592" on="0"/>
        <pt x="539" y="1636" on="0"/>
        <pt x="475" y="1636" on="1"/>
        <pt x="308" y="1636" on="1"/>
        <pt x="308" y="968" on="1"/>
        <pt x="464" y="968" on="1"/>
        <pt x="540" y="968" on="0"/>
        <pt x="595" y="1020" on="0"/>
        <pt x="623" y="1141" on="0"/>
        <pt x="623" y="1322" on="1"/>
      </contour>
      <contour>
        <pt x="160" y="1760" on="1"/>
        <pt x="459" y="1760" on="1"/>
        <pt x="640" y="1760" on="0"/>
        <pt x="701" y="1684" on="1"/>
        <pt x="747" y="1627" on="0"/>
        <pt x="772" y="1462" on="0"/>
        <pt x="772" y="1148" on="0"/>
        <pt x="699" y="949" on="0"/>
        <pt x="610" y="925" on="1"/>
        <pt x="645" y="919" on="0"/>
        <pt x="693" y="888" on="0"/>
        <pt x="712" y="851" on="1"/>
        <pt x="771" y="736" on="0"/>
        <pt x="771" y="285" on="1"/>
        <pt x="771" y="98" on="0"/>
        <pt x="778" y="41" on="0"/>
        <pt x="793" y="0" on="1"/>
        <pt x="645" y="0" on="1"/>
        <pt x="629" y="30" on="0"/>
        <pt x="623" y="197" on="0"/>
        <pt x="623" y="380" on="1"/>
        <pt x="623" y="574" on="1"/>
        <pt x="623" y="758" on="0"/>
        <pt x="578" y="858" on="0"/>
        <pt x="467" y="858" on="1"/>
        <pt x="309" y="868" on="1"/>
        <pt x="309" y="0" on="1"/>
        <pt x="160" y="0" on="1"/>
      </contour>
    </TTGlyph>
    <TTGlyph name="Racute" xMin="160" yMin="0" xMax="793" yMax="2121">
      <component glyphName="R" x="0" y="0" flags="0x1004"/>
      <component glyphName="acute" x="184" y="-26" flags="0x1004"/>
    </TTGlyph>
    <TTGlyph name="Rcaron" xMin="160" yMin="0" xMax="793" yMax="2090">
      <component glyphName="R" x="0" y="0" flags="0x1004"/>
      <component glyphName="caron" x="-27" y="260" flags="0x1004"/>
    </TTGlyph>
    <TTGlyph name="Rcommaaccent" xMin="160" yMin="-612" xMax="793" yMax="1760">
      <component glyphName="uni0326" x="206" y="-389" flags="0x1004"/>
      <component glyphName="R" x="0" y="0" flags="0x1004"/>
    </TTGlyph>
    <TTGlyph name="S" xMin="91" yMin="-20" xMax="724" yMax="1782">
      <contour>
        <pt x="98" y="1490" on="1"/>
        <pt x="113" y="1633" on="0"/>
        <pt x="252" y="1782" on="0"/>
        <pt x="548" y="1782" on="0"/>
        <pt x="606" y="1708" on="1"/>
        <pt x="638" y="1668" on="0"/>
        <pt x="656" y="1628" on="1"/>
        <pt x="694" y="1547" on="0"/>
        <pt x="695" y="1242" on="1"/>
        <pt x="695" y="1143" on="1"/>
        <pt x="542" y="1143" on="1"/>
        <pt x="542" y="1253" on="1"/>
        <pt x="542" y="1485" on="0"/>
        <pt x="512" y="1583" on="0"/>
        <pt x="496" y="1608" on="1"/>
        <pt x="467" y="1654" on="0"/>
        <pt x="392" y="1654" on="1"/>
        <pt x="240" y="1654" on="0"/>
        <pt x="240" y="1371" on="1"/>
        <pt x="240" y="1272" on="0"/>
        <pt x="278" y="1201" on="0"/>
        <pt x="297" y="1161" on="0"/>
        <pt x="415" y="1043" on="1"/>
        <pt x="511" y="946" on="1"/>
        <pt x="724" y="727" on="0"/>
        <pt x="724" y="160" on="0"/>
        <pt x="561" y="-20" on="0"/>
        <pt x="401" y="-20" on="1"/>
        <pt x="155" y="-20" on="0"/>
        <pt x="118" y="277" on="1"/>
        <pt x="105" y="377" on="0"/>
        <pt x="105" y="523" on="1"/>
        <pt x="105" y="706" on="1"/>
        <pt x="257" y="706" on="1"/>
        <pt x="257" y="526" on="1"/>
        <pt x="257" y="288" on="0"/>
        <pt x="320" y="108" on="0"/>
        <pt x="514" y="108" on="0"/>
        <pt x="567" y="225" on="0"/>
        <pt x="572" y="391" on="0"/>
        <pt x="572" y="486" on="1"/>
        <pt x="572" y="682" on="0"/>
        <pt x="417" y="833" on="1"/>
        <pt x="315" y="930" on="1"/>
        <pt x="181" y="1061" on="0"/>
        <pt x="91" y="1240" on="0"/>
        <pt x="91" y="1425" on="0"/>
      </contour>
    </TTGlyph>
    <TTGlyph name="Sacute" xMin="91" yMin="-20" xMax="724" yMax="2121">
      <component glyphName="S" x="0" y="0" flags="0x1004"/>
      <component glyphName="acute" x="152" y="-26" flags="0x1004"/>
    </TTGlyph>
    <TTGlyph name="Scaron" xMin="91" yMin="-20" xMax="724" yMax="2090">
      <component glyphName="S" x="0" y="0" flags="0x1004"/>
      <component glyphName="caron" x="-60" y="260" flags="0x1004"/>
    </TTGlyph>
    <TTGlyph name="Scedilla" xMin="91" yMin="-596" xMax="724" yMax="1782">
      <component glyphName="cedilla" x="-118" y="0" flags="0x1004"/>
      <component glyphName="S" x="0" y="0" flags="0x1004"/>
    </TTGlyph>
    <TTGlyph name="Scircumflex" xMin="91" yMin="-20" xMax="724" yMax="2091">
      <component glyphName="S" x="0" y="0" flags="0x1004"/>
      <component glyphName="circumflex" x="-60" y="260" flags="0x1004"/>
    </TTGlyph>
    <TTGlyph name="Scommaaccent" xMin="91" yMin="-612" xMax="724" yMax="1782">
      <component glyphName="uni0326" x="141" y="-389" flags="0x1004"/>
      <component glyphName="S" x="0" y="0" flags="0x1004"/>
    </TTGlyph>
    <TTGlyph name="T" xMin="40" yMin="0" xMax="537" yMax="1760">
      <contour>
        <pt x="40" y="1760" on="1"/>
        <pt x="537" y="1760" on="1"/>
        <pt x="537" y="1644" on="1"/>
        <pt x="372" y="1644" on="1"/>
        <pt x="372" y="0" on="1"/>
        <pt x="224" y="0" on="1"/>
        <pt x="224" y="1644" on="1"/>
        <pt x="40" y="1644" on="1"/>
      </contour>
    </TTGlyph>
    <TTGlyph name="Tcaron" xMin="40" yMin="0" xMax="537" yMax="2090">
      <component glyphName="T" x="0" y="0" flags="0x1004"/>
      <component glyphName="caron" x="-201" y="260" flags="0x1004"/>
    </TTGlyph>
    <TTGlyph name="Thorn" xMin="177" yMin="0" xMax="788" yMax="1760">
      <contour>
        <pt x="640" y="1008" on="1"/>
        <pt x="640" y="1211" on="0"/>
        <pt x="580" y="1377" on="0"/>
        <pt x="491" y="1377" on="1"/>
        <pt x="326" y="1377" on="1"/>
        <pt x="326" y="560" on="1"/>
        <pt x="485" y="560" on="1"/>
        <pt x="577" y="560" on="0"/>
        <pt x="640" y="733" on="0"/>
        <pt x="640" y="972" on="1"/>
      </contour>
      <contour>
        <pt x="177" y="1760" on="1"/>
        <pt x="326" y="1760" on="1"/>
        <pt x="326" y="1501" on="1"/>
        <pt x="483" y="1501" on="1"/>
        <pt x="656" y="1501" on="0"/>
        <pt x="722" y="1394" on="1"/>
        <pt x="765" y="1323" on="0"/>
        <pt x="788" y="1133" on="0"/>
        <pt x="788" y="993" on="1"/>
        <pt x="788" y="973" on="1"/>
        <pt x="788" y="744" on="0"/>
        <pt x="730" y="558" on="0"/>
        <pt x="694" y="518" on="1"/>
        <pt x="621" y="434" on="0"/>
        <pt x="474" y="434" on="1"/>
        <pt x="326" y="434" on="1"/>
        <pt x="326" y="0" on="1"/>
        <pt x="177" y="0" on="1"/>
      </contour>
    </TTGlyph>
    <TTGlyph name="U" xMin="146" yMin="-21" xMax="765" yMax="1760">
      <contour>
        <pt x="616" y="1760" on="1"/>
        <pt x="765" y="1760" on="1"/>
        <pt x="765" y="452" on="1"/>
        <pt x="765" y="204" on="0"/>
        <pt x="639" y="-21" on="0"/>
        <pt x="275" y="-21" on="0"/>
        <pt x="146" y="205" on="0"/>
        <pt x="146" y="452" on="1"/>
        <pt x="146" y="1760" on="1"/>
        <pt x="295" y="1760" on="1"/>
        <pt x="295" y="457" on="1"/>
        <pt x="295" y="274" on="0"/>
        <pt x="311" y="213" on="1"/>
        <pt x="341" y="102" on="0"/>
        <pt x="451" y="102" on="1"/>
        <pt x="541" y="102" on="0"/>
        <pt x="616" y="205" on="0"/>
        <pt x="616" y="456" on="1"/>
      </contour>
    </TTGlyph>
    <TTGlyph name="Uacute" xMin="146" yMin="-21" xMax="765" yMax="2121">
      <component glyphName="U" x="0" y="0" flags="0x1004"/>
      <component glyphName="acute" x="193" y="-26" flags="0x1004"/>
    </TTGlyph>
    <TTGlyph name="Ubreve" xMin="146" yMin="-21" xMax="765" yMax="2084">
      <component glyphName="breve" x="-53" y="261" flags="0x1004"/>
      <component glyphName="U" x="0" y="0" flags="0x1004"/>
    </TTGlyph>
    <TTGlyph name="Ucircumflex" xMin="146" yMin="-21" xMax="765" yMax="2092">
      <component glyphName="U" x="0" y="0" flags="0x1004"/>
      <component glyphName="circumflex" x="-19" y="261" flags="0x1004"/>
    </TTGlyph>
    <TTGlyph name="Udieresis" xMin="133" yMin="-21" xMax="765" yMax="2006">
      <component glyphName="U" x="0" y="0" flags="0x1004"/>
      <component glyphName="dieresis" x="-22" y="1911" flags="0x1004"/>
    </TTGlyph>
    <TTGlyph name="Ugrave" xMin="146" yMin="-21" xMax="765" yMax="2085">
      <component glyphName="grave" x="157" y="1911" flags="0x1004"/>
      <component glyphName="U" x="0" y="0" flags="0x1004"/>
    </TTGlyph>
    <TTGlyph name="Uhungarumlaut" xMin="146" yMin="-21" xMax="828" yMax="2342">
      <component glyphName="hungarumlaut" x="-206" y="1911" flags="0x1004"/>
      <component glyphName="U" x="0" y="0" flags="0x1004"/>
    </TTGlyph>
    <TTGlyph name="Umacron" xMin="146" yMin="-21" xMax="765" yMax="1954">
      <component glyphName="macron" x="107" y="1911" flags="0x1004"/>
      <component glyphName="U" x="0" y="0" flags="0x1004"/>
    </TTGlyph>
    <TTGlyph name="Uogonek" xMin="146" yMin="-421" xMax="765" yMax="1760">
      <component glyphName="U" x="0" y="0" flags="0x1004"/>
      <component glyphName="ogonek" x="-208" y="10" flags="0x1004"/>
    </TTGlyph>
    <TTGlyph name="Uring" xMin="146" yMin="-21" xMax="765" yMax="2135">
      <component glyphName="U" x="0" y="0" flags="0x1004"/>
      <component glyphName="ring" x="4" y="1911" flags="0x1004"/>
    </TTGlyph>
    <TTGlyph name="Utilde" xMin="146" yMin="-21" xMax="765" yMax="2081">
      <component glyphName="tilde" x="-103" y="1911" flags="0x1004"/>
      <component glyphName="U" x="0" y="0" flags="0x1004"/>
    </TTGlyph>
    <TTGlyph name="V" xMin="63" yMin="0" xMax="815" yMax="1760">
      <contour>
        <pt x="672" y="1760" on="1"/>
        <pt x="815" y="1760" on="1"/>
        <pt x="531" y="0" on="1"/>
        <pt x="376" y="0" on="1"/>
        <pt x="63" y="1760" on="1"/>
        <pt x="206" y="1760" on="1"/>
        <pt x="452" y="318" on="1"/>
        <pt x="453" y="318" on="1"/>
      </contour>
    </TTGlyph>
    <TTGlyph name="W" xMin="70" yMin="0" xMax="1268" yMax="1760">
      <contour>
        <pt x="1127" y="1760" on="1"/>
        <pt x="1268" y="1760" on="1"/>
        <pt x="1055" y="0" on="1"/>
        <pt x="908" y="0" on="1"/>
        <pt x="690" y="1448" on="1"/>
        <pt x="456" y="0" on="1"/>
        <pt x="319" y="0" on="1"/>
        <pt x="70" y="1760" on="1"/>
        <pt x="216" y="1760" on="1"/>
        <pt x="400" y="322" on="1"/>
        <pt x="620" y="1760" on="1"/>
        <pt x="744" y="1760" on="1"/>
        <pt x="979" y="322" on="1"/>
      </contour>
    </TTGlyph>
    <TTGlyph name="Wacute" xMin="70" yMin="0" xMax="1268" yMax="2121">
      <component glyphName="W" x="0" y="0" flags="0x1004"/>
      <component glyphName="acute" x="418" y="-26" flags="0x1004"/>
    </TTGlyph>
    <TTGlyph name="Wcircumflex" xMin="70" yMin="0" xMax="1268" yMax="2091">
      <component glyphName="W" x="0" y="0" flags="0x1004"/>
      <component glyphName="circumflex" x="207" y="260" flags="0x1004"/>
    </TTGlyph>
    <TTGlyph name="Wdieresis" xMin="70" yMin="0" xMax="1268" yMax="2005">
      <component glyphName="W" x="0" y="0" flags="0x1004"/>
      <component glyphName="dieresis" x="204" y="1910" flags="0x1004"/>
    </TTGlyph>
    <TTGlyph name="Wgrave" xMin="70" yMin="0" xMax="1268" yMax="2084">
      <component glyphName="grave" x="381" y="1910" flags="0x1004"/>
      <component glyphName="W" x="0" y="0" flags="0x1004"/>
    </TTGlyph>
    <TTGlyph name="X" xMin="74" yMin="0" xMax="681" yMax="1760">
      <contour>
        <pt x="459" y="853" on="1"/>
        <pt x="678" y="0" on="1"/>
        <pt x="545" y="0" on="1"/>
        <pt x="369" y="680" on="1"/>
        <pt x="198" y="0" on="1"/>
        <pt x="74" y="0" on="1"/>
        <pt x="307" y="919" on="1"/>
        <pt x="89" y="1760" on="1"/>
        <pt x="226" y="1760" on="1"/>
        <pt x="395" y="1101" on="1"/>
        <pt x="557" y="1760" on="1"/>
        <pt x="681" y="1760" on="1"/>
      </contour>
    </TTGlyph>
    <TTGlyph name="Y" xMin="24" yMin="0" xMax="778" yMax="1760">
      <contour>
        <pt x="624" y="1760" on="1"/>
        <pt x="778" y="1760" on="1"/>
        <pt x="491" y="773" on="1"/>
        <pt x="491" y="0" on="1"/>
        <pt x="342" y="0" on="1"/>
        <pt x="342" y="772" on="1"/>
        <pt x="24" y="1760" on="1"/>
        <pt x="174" y="1760" on="1"/>
        <pt x="415" y="982" on="1"/>
        <pt x="418" y="982" on="1"/>
      </contour>
    </TTGlyph>
    <TTGlyph name="Yacute" xMin="24" yMin="0" xMax="778" yMax="2121">
      <component glyphName="acute" x="135" y="-26" flags="0x1004"/>
      <component glyphName="Y" x="0" y="0" flags="0x1004"/>
    </TTGlyph>
    <TTGlyph name="Ycircumflex" xMin="24" yMin="0" xMax="778" yMax="2091">
      <component glyphName="circumflex" x="-76" y="260" flags="0x1004"/>
      <component glyphName="Y" x="0" y="0" flags="0x1004"/>
    </TTGlyph>
    <TTGlyph name="Ydieresis" xMin="24" yMin="0" xMax="778" yMax="2005">
      <component glyphName="dieresis" x="-79" y="1910" flags="0x1004"/>
      <component glyphName="Y" x="0" y="0" flags="0x1004"/>
    </TTGlyph>
    <TTGlyph name="Ygrave" xMin="24" yMin="0" xMax="778" yMax="2084">
      <component glyphName="grave" x="111" y="1910" flags="0x1004"/>
      <component glyphName="Y" x="0" y="0" flags="0x1004"/>
    </TTGlyph>
    <TTGlyph name="Z" xMin="112" yMin="0" xMax="603" yMax="1760">
      <contour>
        <pt x="121" y="1760" on="1"/>
        <pt x="603" y="1760" on="1"/>
        <pt x="603" y="1658" on="1"/>
        <pt x="262" y="118" on="1"/>
        <pt x="597" y="118" on="1"/>
        <pt x="597" y="0" on="1"/>
        <pt x="112" y="0" on="1"/>
        <pt x="112" y="125" on="1"/>
        <pt x="451" y="1644" on="1"/>
        <pt x="121" y="1644" on="1"/>
      </contour>
    </TTGlyph>
    <TTGlyph name="Zacute" xMin="112" yMin="0" xMax="636" yMax="2121">
      <component glyphName="Z" x="0" y="0" flags="0x1004"/>
      <component glyphName="acute" x="138" y="-26" flags="0x1004"/>
    </TTGlyph>
    <TTGlyph name="Zcaron" xMin="112" yMin="0" xMax="615" yMax="2090">
      <component glyphName="Z" x="0" y="0" flags="0x1004"/>
      <component glyphName="caron" x="-73" y="260" flags="0x1004"/>
    </TTGlyph>
    <TTGlyph name="Zdotaccent" xMin="112" yMin="0" xMax="603" yMax="1988">
      <component glyphName="dotaccent" x="107" y="1910" flags="0x1004"/>
      <component glyphName="Z" x="0" y="0" flags="0x1004"/>
    </TTGlyph>
    <TTGlyph name="a" xMin="144" yMin="-11" xMax="729" yMax="1518">
      <contour>
        <pt x="162" y="1051" on="1"/>
        <pt x="162" y="1214" on="0"/>
        <pt x="180" y="1309" on="0"/>
        <pt x="201" y="1380" on="0"/>
        <pt x="230" y="1426" on="0"/>
        <pt x="273" y="1474" on="0"/>
        <pt x="329" y="1501" on="0"/>
        <pt x="404" y="1518" on="0"/>
        <pt x="496" y="1518" on="0"/>
        <pt x="570" y="1502" on="0"/>
        <pt x="626" y="1482" on="0"/>
        <pt x="667" y="1431" on="0"/>
        <pt x="681" y="1412" on="1"/>
        <pt x="729" y="1347" on="0"/>
        <pt x="729" y="1043" on="1"/>
        <pt x="729" y="0" on="1"/>
        <pt x="580" y="0" on="1"/>
        <pt x="580" y="112" on="1"/>
        <pt x="567" y="72" on="0"/>
        <pt x="464" y="-11" on="0"/>
        <pt x="383" y="-11" on="1"/>
        <pt x="265" y="-11" on="0"/>
        <pt x="144" y="188" on="0"/>
        <pt x="144" y="377" on="1"/>
        <pt x="144" y="569" on="1"/>
        <pt x="144" y="672" on="0"/>
        <pt x="243" y="786" on="0"/>
        <pt x="279" y="809" on="1"/>
        <pt x="374" y="869" on="0"/>
        <pt x="566" y="950" on="0"/>
        <pt x="580" y="956" on="1"/>
        <pt x="580" y="1124" on="1"/>
        <pt x="580" y="1269" on="0"/>
        <pt x="558" y="1321" on="0"/>
        <pt x="551" y="1337" on="1"/>
        <pt x="529" y="1387" on="0"/>
        <pt x="361" y="1387" on="0"/>
        <pt x="312" y="1246" on="0"/>
        <pt x="312" y="1048" on="1"/>
        <pt x="312" y="1011" on="1"/>
        <pt x="162" y="1011" on="1"/>
      </contour>
      <contour>
        <pt x="580" y="837" on="1"/>
        <pt x="415" y="762" on="0"/>
        <pt x="364" y="724" on="0"/>
        <pt x="344" y="704" on="1"/>
        <pt x="292" y="652" on="0"/>
        <pt x="292" y="509" on="1"/>
        <pt x="292" y="390" on="1"/>
        <pt x="292" y="235" on="0"/>
        <pt x="340" y="113" on="0"/>
        <pt x="464" y="113" on="0"/>
        <pt x="560" y="175" on="0"/>
        <pt x="580" y="211" on="1"/>
      </contour>
    </TTGlyph>
    <TTGlyph name="aacute" xMin="144" yMin="-11" xMax="729" yMax="1861">
      <component glyphName="acute" x="181" y="-286" flags="0x1004"/>
      <component glyphName="a" x="0" y="0" flags="0x1004"/>
    </TTGlyph>
    <TTGlyph name="abreve" xMin="144" yMin="-11" xMax="729" yMax="1823">
      <component glyphName="breve" x="-53" y="0" flags="0x1004"/>
      <component glyphName="a" x="0" y="0" flags="0x1004"/>
    </TTGlyph>
    <TTGlyph name="acircumflex" xMin="144" yMin="-11" xMax="729" yMax="1831">
      <component glyphName="circumflex" x="-30" y="0" flags="0x1004"/>
      <component glyphName="a" x="0" y="0" flags="0x1004"/>
    </TTGlyph>
    <TTGlyph name="acute" xMin="100" yMin="1920" xMax="498" yMax="2147">
      <contour>
        <pt x="100" y="1989" on="1"/>
        <pt x="498" y="2147" on="1"/>
        <pt x="498" y="2003" on="1"/>
        <pt x="100" y="1920" on="1"/>
      </contour>
    </TTGlyph>
    <TTGlyph name="adieresis" xMin="122" yMin="-11" xMax="734" yMax="1745">
      <component glyphName="dieresis" x="-33" y="1650" flags="0x1004"/>
      <component glyphName="a" x="0" y="0" flags="0x1004"/>
    </TTGlyph>
    <TTGlyph name="ae" xMin="144" yMin="-18" xMax="1150" yMax="1518">
      <contour>
        <pt x="1000" y="874" on="1"/>
        <pt x="1000" y="1082" on="1"/>
        <pt x="1000" y="1271" on="0"/>
        <pt x="977" y="1328" on="0"/>
        <pt x="941" y="1387" on="0"/>
        <pt x="812" y="1387" on="0"/>
        <pt x="748" y="1301" on="0"/>
        <pt x="729" y="1166" on="0"/>
        <pt x="729" y="1063" on="1"/>
        <pt x="729" y="874" on="1"/>
      </contour>
      <contour>
        <pt x="580" y="211" on="1"/>
        <pt x="580" y="840" on="1"/>
        <pt x="416" y="764" on="0"/>
        <pt x="364" y="724" on="0"/>
        <pt x="344" y="705" on="1"/>
        <pt x="292" y="655" on="0"/>
        <pt x="292" y="511" on="1"/>
        <pt x="292" y="390" on="1"/>
        <pt x="292" y="234" on="0"/>
        <pt x="340" y="112" on="0"/>
        <pt x="464" y="112" on="0"/>
        <pt x="560" y="175" on="0"/>
      </contour>
      <contour>
        <pt x="450" y="1518" on="1"/>
        <pt x="610" y="1518" on="0"/>
        <pt x="655" y="1427" on="1"/>
        <pt x="727" y="1518" on="0"/>
        <pt x="1012" y="1518" on="0"/>
        <pt x="1111" y="1392" on="0"/>
        <pt x="1149" y="1223" on="0"/>
        <pt x="1149" y="1002" on="1"/>
        <pt x="1150" y="754" on="1"/>
        <pt x="729" y="754" on="1"/>
        <pt x="729" y="443" on="1"/>
        <pt x="730" y="272" on="0"/>
        <pt x="744" y="216" on="1"/>
        <pt x="771" y="113" on="0"/>
        <pt x="856" y="113" on="1"/>
        <pt x="857" y="113" on="0"/>
        <pt x="858" y="113" on="1"/>
        <pt x="896" y="112" on="0"/>
        <pt x="916" y="120" on="1"/>
        <pt x="985" y="146" on="0"/>
        <pt x="996" y="279" on="1"/>
        <pt x="1000" y="334" on="0"/>
        <pt x="1000" y="439" on="1"/>
        <pt x="1000" y="556" on="1"/>
        <pt x="1145" y="556" on="1"/>
        <pt x="1145" y="505" on="1"/>
        <pt x="1145" y="262" on="0"/>
        <pt x="1134" y="218" on="1"/>
        <pt x="1103" y="91" on="0"/>
        <pt x="1056" y="45" on="0"/>
        <pt x="1028" y="22" on="1"/>
        <pt x="978" y="-18" on="0"/>
        <pt x="868" y="-18" on="1"/>
        <pt x="693" y="-18" on="0"/>
        <pt x="626" y="103" on="1"/>
        <pt x="565" y="44" on="0"/>
        <pt x="415" y="-11" on="0"/>
        <pt x="372" y="-11" on="1"/>
        <pt x="144" y="-11" on="0"/>
        <pt x="144" y="375" on="1"/>
        <pt x="144" y="566" on="1"/>
        <pt x="144" y="692" on="0"/>
        <pt x="230" y="768" on="1"/>
        <pt x="318" y="844" on="0"/>
        <pt x="516" y="928" on="1"/>
        <pt x="564" y="948" on="0"/>
        <pt x="580" y="956" on="1"/>
        <pt x="580" y="1065" on="1"/>
        <pt x="580" y="1271" on="0"/>
        <pt x="555" y="1334" on="0"/>
        <pt x="517" y="1388" on="0"/>
        <pt x="451" y="1388" on="1"/>
        <pt x="339" y="1388" on="0"/>
        <pt x="323" y="1270" on="1"/>
        <pt x="312" y="1183" on="0"/>
        <pt x="312" y="1047" on="1"/>
        <pt x="312" y="1011" on="1"/>
        <pt x="162" y="1011" on="1"/>
        <pt x="162" y="1051" on="1"/>
        <pt x="162" y="1262" on="0"/>
        <pt x="180" y="1316" on="1"/>
        <pt x="219" y="1431" on="0"/>
        <pt x="340" y="1518" on="0"/>
      </contour>
    </TTGlyph>
    <TTGlyph name="agrave" xMin="144" yMin="-11" xMax="729" yMax="1824">
      <component glyphName="grave" x="157" y="1650" flags="0x1004"/>
      <component glyphName="a" x="0" y="0" flags="0x1004"/>
    </TTGlyph>
    <TTGlyph name="amacron" xMin="144" yMin="-11" xMax="729" yMax="1693">
      <component glyphName="macron" x="107" y="1650" flags="0x1004"/>
      <component glyphName="a" x="0" y="0" flags="0x1004"/>
    </TTGlyph>
    <TTGlyph name="ampersand" xMin="60" yMin="-20" xMax="928" yMax="1782">
      <contour>
        <pt x="321" y="1482" on="1"/>
        <pt x="322" y="1441" on="1"/>
        <pt x="322" y="1333" on="0"/>
        <pt x="434" y="1057" on="1"/>
        <pt x="511" y="1153" on="0"/>
        <pt x="594" y="1338" on="0"/>
        <pt x="594" y="1566" on="0"/>
        <pt x="544" y="1663" on="0"/>
        <pt x="451" y="1663" on="1"/>
        <pt x="330" y="1663" on="0"/>
        <pt x="323" y="1524" on="1"/>
        <pt x="322" y="1502" on="0"/>
        <pt x="321" y="1489" on="0"/>
      </contour>
      <contour>
        <pt x="751" y="365" on="1"/>
        <pt x="893" y="67" on="0"/>
        <pt x="923" y="0" on="1"/>
        <pt x="799" y="0" on="1"/>
        <pt x="773" y="62" on="0"/>
        <pt x="693" y="226" on="1"/>
        <pt x="643" y="113" on="0"/>
        <pt x="537" y="15" on="0"/>
        <pt x="432" y="-20" on="0"/>
        <pt x="364" y="-20" on="1"/>
        <pt x="228" y="-20" on="0"/>
        <pt x="60" y="168" on="0"/>
        <pt x="60" y="496" on="0"/>
        <pt x="127" y="654" on="0"/>
        <pt x="187" y="774" on="0"/>
        <pt x="343" y="950" on="1"/>
        <pt x="176" y="1324" on="0"/>
        <pt x="176" y="1443" on="1"/>
        <pt x="176" y="1782" on="0"/>
        <pt x="462" y="1782" on="1"/>
        <pt x="629" y="1782" on="0"/>
        <pt x="734" y="1606" on="0"/>
        <pt x="734" y="1290" on="0"/>
        <pt x="595" y="1055" on="0"/>
        <pt x="490" y="925" on="1"/>
        <pt x="561" y="761" on="0"/>
        <pt x="681" y="513" on="1"/>
        <pt x="762" y="683" on="0"/>
        <pt x="859" y="797" on="1"/>
        <pt x="928" y="690" on="1"/>
        <pt x="838" y="578" on="0"/>
      </contour>
      <contour>
        <pt x="619" y="376" on="1"/>
        <pt x="473" y="670" on="0"/>
        <pt x="404" y="817" on="1"/>
        <pt x="320" y="705" on="0"/>
        <pt x="212" y="475" on="0"/>
        <pt x="211" y="327" on="1"/>
        <pt x="211" y="105" on="0"/>
        <pt x="382" y="105" on="1"/>
        <pt x="476" y="105" on="0"/>
        <pt x="540" y="215" on="1"/>
        <pt x="572" y="272" on="0"/>
      </contour>
    </TTGlyph>
    <TTGlyph name="aogonek" xMin="144" yMin="-421" xMax="811" yMax="1518">
      <component glyphName="ogonek" x="-1" y="10" flags="0x1004"/>
      <component glyphName="a" x="0" y="0" flags="0x1004"/>
    </TTGlyph>
    <TTGlyph name="approxequal" xMin="132" yMin="460" xMax="989" yMax="1162">
      <contour>
        <pt x="989" y="718" on="1"/>
        <pt x="927" y="473" on="0"/>
        <pt x="783" y="473" on="1"/>
        <pt x="783" y="468" on="0"/>
        <pt x="733" y="468" on="0"/>
        <pt x="407" y="553" on="0"/>
        <pt x="300" y="553" on="0"/>
        <pt x="260" y="460" on="1"/>
        <pt x="132" y="535" on="1"/>
        <pt x="211" y="721" on="0"/>
        <pt x="346" y="721" on="1"/>
        <pt x="403" y="721" on="0"/>
        <pt x="719" y="642" on="0"/>
        <pt x="746" y="642" on="1"/>
        <pt x="813" y="649" on="0"/>
        <pt x="846" y="760" on="1"/>
      </contour>
      <contour>
        <pt x="989" y="1120" on="1"/>
        <pt x="927" y="875" on="0"/>
        <pt x="783" y="875" on="1"/>
        <pt x="715" y="875" on="0"/>
        <pt x="407" y="955" on="0"/>
        <pt x="300" y="955" on="0"/>
        <pt x="260" y="862" on="1"/>
        <pt x="132" y="937" on="1"/>
        <pt x="210" y="1123" on="0"/>
        <pt x="346" y="1123" on="1"/>
        <pt x="403" y="1123" on="0"/>
        <pt x="719" y="1044" on="0"/>
        <pt x="746" y="1044" on="1"/>
        <pt x="813" y="1053" on="0"/>
        <pt x="846" y="1162" on="1"/>
      </contour>
    </TTGlyph>
    <TTGlyph name="aring" xMin="144" yMin="-11" xMax="729" yMax="1874">
      <component glyphName="ring" x="-7" y="1650" flags="0x1004"/>
      <component glyphName="a" x="0" y="0" flags="0x1004"/>
    </TTGlyph>
    <TTGlyph name="asciicircum" xMin="170" yMin="577" xMax="858" yMax="1500">
      <contour>
        <pt x="411" y="1500" on="1"/>
        <pt x="617" y="1500" on="1"/>
        <pt x="858" y="577" on="1"/>
        <pt x="709" y="577" on="1"/>
        <pt x="515" y="1388" on="1"/>
        <pt x="321" y="577" on="1"/>
        <pt x="170" y="577" on="1"/>
      </contour>
    </TTGlyph>
    <TTGlyph name="asciitilde" xMin="121" yMin="840" xMax="978" yMax="1140">
      <contour>
        <pt x="978" y="1098" on="1"/>
        <pt x="916" y="853" on="0"/>
        <pt x="772" y="853" on="1"/>
        <pt x="704" y="853" on="0"/>
        <pt x="396" y="933" on="0"/>
        <pt x="289" y="933" on="0"/>
        <pt x="249" y="840" on="1"/>
        <pt x="121" y="915" on="1"/>
        <pt x="199" y="1101" on="0"/>
        <pt x="335" y="1101" on="1"/>
        <pt x="392" y="1101" on="0"/>
        <pt x="708" y="1022" on="0"/>
        <pt x="735" y="1022" on="1"/>
        <pt x="802" y="1031" on="0"/>
        <pt x="835" y="1140" on="1"/>
      </contour>
    </TTGlyph>
    <TTGlyph name="asterisk" xMin="141" yMin="1081" xMax="819" yMax="1777">
      <contour>
        <pt x="414" y="1777" on="1"/>
        <pt x="547" y="1777" on="1"/>
        <pt x="527" y="1509" on="1"/>
        <pt x="751" y="1681" on="1"/>
        <pt x="819" y="1565" on="1"/>
        <pt x="569" y="1433" on="1"/>
        <pt x="819" y="1293" on="1"/>
        <pt x="751" y="1176" on="1"/>
        <pt x="527" y="1353" on="1"/>
        <pt x="547" y="1081" on="1"/>
        <pt x="414" y="1081" on="1"/>
        <pt x="438" y="1357" on="1"/>
        <pt x="216" y="1185" on="1"/>
        <pt x="149" y="1303" on="1"/>
        <pt x="391" y="1433" on="1"/>
        <pt x="141" y="1555" on="1"/>
        <pt x="209" y="1671" on="1"/>
        <pt x="438" y="1508" on="1"/>
      </contour>
    </TTGlyph>
    <TTGlyph name="at" xMin="91" yMin="-53" xMax="1241" yMax="1781">
      <contour>
        <pt x="847" y="1062" on="1"/>
        <pt x="753" y="1195" on="0"/>
        <pt x="653" y="1195" on="1"/>
        <pt x="577" y="1195" on="0"/>
        <pt x="482" y="1009" on="0"/>
        <pt x="482" y="628" on="0"/>
        <pt x="576" y="473" on="0"/>
        <pt x="744" y="473" on="0"/>
        <pt x="847" y="634" on="0"/>
        <pt x="847" y="759" on="1"/>
      </contour>
      <contour>
        <pt x="1029" y="494" on="1"/>
        <pt x="1122" y="494" on="0"/>
        <pt x="1122" y="866" on="1"/>
        <pt x="1122" y="1116" on="0"/>
        <pt x="1110" y="1214" on="1"/>
        <pt x="1053" y="1662" on="0"/>
        <pt x="726" y="1662" on="1"/>
        <pt x="487" y="1662" on="0"/>
        <pt x="369" y="1510" on="1"/>
        <pt x="217" y="1314" on="0"/>
        <pt x="217" y="844" on="1"/>
        <pt x="217" y="282" on="0"/>
        <pt x="409" y="132" on="1"/>
        <pt x="502" y="60" on="0"/>
        <pt x="754" y="60" on="0"/>
        <pt x="849" y="88" on="1"/>
        <pt x="866" y="-24" on="1"/>
        <pt x="726" y="-53" on="0"/>
        <pt x="648" y="-53" on="1"/>
        <pt x="91" y="-53" on="0"/>
        <pt x="91" y="836" on="1"/>
        <pt x="91" y="839" on="0"/>
        <pt x="91" y="841" on="1"/>
        <pt x="91" y="1379" on="0"/>
        <pt x="290" y="1608" on="1"/>
        <pt x="439" y="1781" on="0"/>
        <pt x="715" y="1781" on="1"/>
        <pt x="717" y="1781" on="0"/>
        <pt x="718" y="1781" on="1"/>
        <pt x="1241" y="1781" on="0"/>
        <pt x="1241" y="910" on="1"/>
        <pt x="1241" y="531" on="0"/>
        <pt x="1126" y="419" on="1"/>
        <pt x="1084" y="378" on="0"/>
        <pt x="973" y="378" on="0"/>
        <pt x="887" y="510" on="0"/>
        <pt x="874" y="585" on="1"/>
        <pt x="857" y="488" on="0"/>
        <pt x="740" y="361" on="0"/>
        <pt x="675" y="361" on="1"/>
        <pt x="551" y="361" on="0"/>
        <pt x="375" y="564" on="0"/>
        <pt x="375" y="1026" on="0"/>
        <pt x="503" y="1283" on="0"/>
        <pt x="624" y="1283" on="1"/>
        <pt x="708" y="1283" on="0"/>
        <pt x="830" y="1194" on="0"/>
        <pt x="855" y="1136" on="1"/>
        <pt x="885" y="1258" on="1"/>
        <pt x="957" y="1258" on="1"/>
        <pt x="957" y="689" on="1"/>
        <pt x="957" y="590" on="0"/>
        <pt x="989" y="494" on="0"/>
      </contour>
    </TTGlyph>
    <TTGlyph name="atilde" xMin="144" yMin="-11" xMax="746" yMax="1820">
      <component glyphName="tilde" x="-103" y="1650" flags="0x1004"/>
      <component glyphName="a" x="0" y="0" flags="0x1004"/>
    </TTGlyph>
    <TTGlyph name="b" xMin="160" yMin="-11" xMax="746" yMax="1783">
      <contour>
        <pt x="597" y="1061" on="1"/>
        <pt x="597" y="1237" on="0"/>
        <pt x="567" y="1324" on="0"/>
        <pt x="553" y="1345" on="1"/>
        <pt x="526" y="1386" on="0"/>
        <pt x="436" y="1386" on="0"/>
        <pt x="414" y="1380" on="1"/>
        <pt x="360" y="1365" on="0"/>
        <pt x="309" y="1224" on="0"/>
        <pt x="309" y="1059" on="1"/>
        <pt x="309" y="460" on="1"/>
        <pt x="309" y="271" on="0"/>
        <pt x="370" y="115" on="0"/>
        <pt x="540" y="115" on="0"/>
        <pt x="597" y="272" on="0"/>
        <pt x="597" y="466" on="1"/>
      </contour>
      <contour>
        <pt x="160" y="1783" on="1"/>
        <pt x="309" y="1783" on="1"/>
        <pt x="309" y="1372" on="1"/>
        <pt x="320" y="1432" on="0"/>
        <pt x="426" y="1519" on="0"/>
        <pt x="488" y="1519" on="1"/>
        <pt x="667" y="1519" on="0"/>
        <pt x="716" y="1325" on="1"/>
        <pt x="746" y="1201" on="0"/>
        <pt x="746" y="1012" on="1"/>
        <pt x="746" y="490" on="1"/>
        <pt x="746" y="233" on="0"/>
        <pt x="668" y="34" on="0"/>
        <pt x="600" y="6" on="1"/>
        <pt x="562" y="-10" on="0"/>
        <pt x="510" y="-11" on="1"/>
        <pt x="363" y="-11" on="0"/>
        <pt x="309" y="114" on="1"/>
        <pt x="309" y="0" on="1"/>
        <pt x="160" y="0" on="1"/>
      </contour>
    </TTGlyph>
    <TTGlyph name="backslash" xMin="133" yMin="0" xMax="671" yMax="1761">
      <contour>
        <pt x="133" y="1761" on="1"/>
        <pt x="261" y="1761" on="1"/>
        <pt x="671" y="0" on="1"/>
        <pt x="544" y="0" on="1"/>
      </contour>
    </TTGlyph>
    <TTGlyph name="bar" xMin="199" yMin="-84" xMax="352" yMax="1683">
      <contour>
        <pt x="199" y="1683" on="1"/>
        <pt x="352" y="1683" on="1"/>
        <pt x="352" y="-84" on="1"/>
        <pt x="199" y="-84" on="1"/>
      </contour>
    </TTGlyph>
    <TTGlyph name="braceleft" xMin="195" yMin="-121" xMax="622" yMax="1781">
      <contour>
        <pt x="562" y="1781" on="1"/>
        <pt x="622" y="1781" on="1"/>
        <pt x="622" y="1644" on="1"/>
        <pt x="552" y="1644" on="0"/>
        <pt x="503" y="1614" on="0"/>
        <pt x="483" y="1538" on="0"/>
        <pt x="483" y="1430" on="1"/>
        <pt x="483" y="1184" on="1"/>
        <pt x="483" y="979" on="0"/>
        <pt x="434" y="876" on="0"/>
        <pt x="378" y="852" on="1"/>
        <pt x="354" y="842" on="0"/>
        <pt x="311" y="830" on="1"/>
        <pt x="390" y="807" on="0"/>
        <pt x="418" y="783" on="1"/>
        <pt x="445" y="758" on="0"/>
        <pt x="455" y="738" on="1"/>
        <pt x="483" y="681" on="0"/>
        <pt x="483" y="476" on="1"/>
        <pt x="483" y="230" on="1"/>
        <pt x="483" y="58" on="0"/>
        <pt x="552" y="16" on="0"/>
        <pt x="622" y="16" on="1"/>
        <pt x="622" y="-121" on="1"/>
        <pt x="562" y="-121" on="1"/>
        <pt x="428" y="-121" on="0"/>
        <pt x="334" y="20" on="0"/>
        <pt x="334" y="217" on="1"/>
        <pt x="334" y="492" on="1"/>
        <pt x="334" y="652" on="0"/>
        <pt x="292" y="721" on="0"/>
        <pt x="228" y="729" on="0"/>
        <pt x="195" y="729" on="1"/>
        <pt x="195" y="931" on="1"/>
        <pt x="287" y="931" on="0"/>
        <pt x="329" y="1000" on="0"/>
        <pt x="334" y="1111" on="0"/>
        <pt x="334" y="1168" on="1"/>
        <pt x="334" y="1443" on="1"/>
        <pt x="334" y="1640" on="0"/>
        <pt x="428" y="1781" on="0"/>
      </contour>
    </TTGlyph>
    <TTGlyph name="braceright" xMin="195" yMin="-121" xMax="622" yMax="1781">
      <contour>
        <pt x="195" y="1781" on="1"/>
        <pt x="255" y="1781" on="1"/>
        <pt x="389" y="1781" on="0"/>
        <pt x="483" y="1640" on="0"/>
        <pt x="483" y="1443" on="1"/>
        <pt x="483" y="1168" on="1"/>
        <pt x="483" y="1008" on="0"/>
        <pt x="525" y="939" on="0"/>
        <pt x="589" y="931" on="0"/>
        <pt x="622" y="931" on="1"/>
        <pt x="622" y="729" on="1"/>
        <pt x="530" y="729" on="0"/>
        <pt x="488" y="660" on="0"/>
        <pt x="483" y="549" on="0"/>
        <pt x="483" y="492" on="1"/>
        <pt x="483" y="217" on="1"/>
        <pt x="483" y="20" on="0"/>
        <pt x="389" y="-121" on="0"/>
        <pt x="255" y="-121" on="1"/>
        <pt x="195" y="-121" on="1"/>
        <pt x="195" y="16" on="1"/>
        <pt x="245" y="16" on="0"/>
        <pt x="294" y="27" on="0"/>
        <pt x="326" y="76" on="0"/>
        <pt x="334" y="153" on="0"/>
        <pt x="334" y="230" on="1"/>
        <pt x="334" y="476" on="1"/>
        <pt x="334" y="681" on="0"/>
        <pt x="384" y="784" on="0"/>
        <pt x="440" y="808" on="1"/>
        <pt x="464" y="818" on="0"/>
        <pt x="506" y="830" on="1"/>
        <pt x="391" y="863" on="0"/>
        <pt x="334" y="979" on="0"/>
        <pt x="334" y="1184" on="1"/>
        <pt x="334" y="1430" on="1"/>
        <pt x="334" y="1507" on="0"/>
        <pt x="326" y="1584" on="0"/>
        <pt x="294" y="1633" on="0"/>
        <pt x="245" y="1644" on="0"/>
        <pt x="195" y="1644" on="1"/>
      </contour>
    </TTGlyph>
    <TTGlyph name="bracketleft" xMin="253" yMin="0" xMax="616" yMax="1761">
      <contour>
        <pt x="253" y="1761" on="1"/>
        <pt x="616" y="1761" on="1"/>
        <pt x="616" y="1646" on="1"/>
        <pt x="402" y="1646" on="1"/>
        <pt x="402" y="115" on="1"/>
        <pt x="616" y="115" on="1"/>
        <pt x="616" y="0" on="1"/>
        <pt x="253" y="0" on="1"/>
      </contour>
    </TTGlyph>
    <TTGlyph name="bracketright" xMin="196" yMin="0" xMax="558" yMax="1761">
      <contour>
        <pt x="196" y="1761" on="1"/>
        <pt x="558" y="1761" on="1"/>
        <pt x="558" y="0" on="1"/>
        <pt x="196" y="0" on="1"/>
        <pt x="196" y="115" on="1"/>
        <pt x="409" y="115" on="1"/>
        <pt x="409" y="1646" on="1"/>
        <pt x="196" y="1646" on="1"/>
      </contour>
    </TTGlyph>
    <TTGlyph name="breve" xMin="315" yMin="1619" xMax="696" yMax="1823">
      <contour>
        <pt x="632" y="1823" on="1"/>
        <pt x="696" y="1823" on="1"/>
        <pt x="696" y="1810" on="1"/>
        <pt x="696" y="1722" on="0"/>
        <pt x="599" y="1619" on="0"/>
        <pt x="413" y="1619" on="0"/>
        <pt x="315" y="1720" on="0"/>
        <pt x="315" y="1808" on="1"/>
        <pt x="315" y="1823" on="1"/>
        <pt x="379" y="1823" on="1"/>
        <pt x="380" y="1710" on="0"/>
        <pt x="632" y="1710" on="0"/>
      </contour>
    </TTGlyph>
    <TTGlyph name="brokenbar" xMin="122" yMin="-84" xMax="275" yMax="1761">
      <contour>
        <pt x="122" y="724" on="1"/>
        <pt x="275" y="724" on="1"/>
        <pt x="275" y="-84" on="1"/>
        <pt x="122" y="-84" on="1"/>
      </contour>
      <contour>
        <pt x="122" y="1761" on="1"/>
        <pt x="275" y="1761" on="1"/>
        <pt x="275" y="931" on="1"/>
        <pt x="122" y="931" on="1"/>
      </contour>
    </TTGlyph>
    <TTGlyph name="bullet" xMin="226" yMin="513" xMax="634" yMax="969">
      <contour>
        <pt x="227" y="740" on="0"/>
        <pt x="227" y="742" on="0"/>
        <pt x="227" y="743" on="1"/>
        <pt x="227" y="969" on="0"/>
        <pt x="430" y="969" on="1"/>
        <pt x="634" y="969" on="0"/>
        <pt x="634" y="513" on="0"/>
        <pt x="430" y="513" on="1"/>
        <pt x="227" y="513" on="0"/>
        <pt x="227" y="739" on="1"/>
      </contour>
    </TTGlyph>
    <TTGlyph name="c" xMin="128" yMin="-18" xMax="700" yMax="1518">
      <contour>
        <pt x="128" y="1028" on="1"/>
        <pt x="128" y="1278" on="0"/>
        <pt x="228" y="1474" on="0"/>
        <pt x="312" y="1502" on="1"/>
        <pt x="361" y="1518" on="0"/>
        <pt x="529" y="1518" on="0"/>
        <pt x="599" y="1472" on="1"/>
        <pt x="644" y="1442" on="0"/>
        <pt x="700" y="1272" on="0"/>
        <pt x="700" y="1020" on="1"/>
        <pt x="700" y="973" on="1"/>
        <pt x="549" y="973" on="1"/>
        <pt x="549" y="1065" on="1"/>
        <pt x="549" y="1239" on="0"/>
        <pt x="537" y="1291" on="1"/>
        <pt x="515" y="1381" on="0"/>
        <pt x="426" y="1381" on="1"/>
        <pt x="317" y="1381" on="0"/>
        <pt x="291" y="1255" on="1"/>
        <pt x="277" y="1187" on="0"/>
        <pt x="277" y="1057" on="1"/>
        <pt x="277" y="455" on="1"/>
        <pt x="277" y="252" on="0"/>
        <pt x="308" y="175" on="0"/>
        <pt x="324" y="155" on="1"/>
        <pt x="352" y="119" on="0"/>
        <pt x="497" y="119" on="0"/>
        <pt x="547" y="246" on="0"/>
        <pt x="549" y="396" on="0"/>
        <pt x="549" y="449" on="1"/>
        <pt x="549" y="562" on="1"/>
        <pt x="700" y="562" on="1"/>
        <pt x="700" y="517" on="1"/>
        <pt x="700" y="292" on="0"/>
        <pt x="685" y="209" on="1"/>
        <pt x="646" y="-18" on="0"/>
        <pt x="432" y="-18" on="1"/>
        <pt x="250" y="-18" on="0"/>
        <pt x="190" y="94" on="1"/>
        <pt x="149" y="169" on="0"/>
        <pt x="128" y="361" on="0"/>
        <pt x="128" y="511" on="1"/>
      </contour>
    </TTGlyph>
    <TTGlyph name="cacute" xMin="128" yMin="-18" xMax="700" yMax="1861">
      <component glyphName="c" x="0" y="0" flags="0x1004"/>
      <component glyphName="acute" x="159" y="-286" flags="0x1004"/>
    </TTGlyph>
    <TTGlyph name="caron" xMin="281" yMin="1577" xMax="688" yMax="1830">
      <contour>
        <pt x="571" y="1830" on="1"/>
        <pt x="688" y="1830" on="1"/>
        <pt x="568" y="1577" on="1"/>
        <pt x="402" y="1577" on="1"/>
        <pt x="281" y="1830" on="1"/>
        <pt x="399" y="1830" on="1"/>
        <pt x="485" y="1655" on="1"/>
      </contour>
    </TTGlyph>
    <TTGlyph name="ccaron" xMin="128" yMin="-18" xMax="700" yMax="1830">
      <component glyphName="c" x="0" y="0" flags="0x1004"/>
      <component glyphName="caron" x="-52" y="0" flags="0x1004"/>
    </TTGlyph>
    <TTGlyph name="ccedilla" xMin="128" yMin="-596" xMax="700" yMax="1518">
      <component glyphName="cedilla" x="-112" y="0" flags="0x1004"/>
      <component glyphName="c" x="0" y="0" flags="0x1004"/>
    </TTGlyph>
    <TTGlyph name="ccircumflex" xMin="128" yMin="-18" xMax="700" yMax="1831">
      <component glyphName="c" x="0" y="0" flags="0x1004"/>
      <component glyphName="circumflex" x="-52" y="0" flags="0x1004"/>
    </TTGlyph>
    <TTGlyph name="cdotaccent" xMin="128" yMin="-18" xMax="700" yMax="1728">
      <component glyphName="dotaccent" x="139" y="1650" flags="0x1004"/>
      <component glyphName="c" x="0" y="0" flags="0x1004"/>
    </TTGlyph>
    <TTGlyph name="cedilla" xMin="383" yMin="-596" xMax="739" yMax="0">
      <contour>
        <pt x="383" y="-501" on="1"/>
        <pt x="614" y="-501" on="0"/>
        <pt x="614" y="-360" on="1"/>
        <pt x="614" y="-296" on="0"/>
        <pt x="521" y="-211" on="0"/>
        <pt x="454" y="-196" on="1"/>
        <pt x="494" y="0" on="1"/>
        <pt x="551" y="0" on="1"/>
        <pt x="560" y="-147" on="1"/>
        <pt x="739" y="-237" on="0"/>
        <pt x="739" y="-389" on="1"/>
        <pt x="739" y="-465" on="0"/>
        <pt x="585" y="-596" on="0"/>
        <pt x="470" y="-596" on="1"/>
        <pt x="430" y="-596" on="0"/>
        <pt x="383" y="-587" on="1"/>
      </contour>
    </TTGlyph>
    <TTGlyph name="cent" xMin="128" yMin="-249" xMax="700" yMax="1768">
      <contour>
        <pt x="128" y="1028" on="1"/>
        <pt x="128" y="1171" on="0"/>
        <pt x="146" y="1276" on="1"/>
        <pt x="182" y="1483" on="0"/>
        <pt x="363" y="1512" on="1"/>
        <pt x="363" y="1768" on="1"/>
        <pt x="476" y="1768" on="1"/>
        <pt x="476" y="1516" on="1"/>
        <pt x="542" y="1509" on="0"/>
        <pt x="645" y="1443" on="0"/>
        <pt x="684" y="1323" on="1"/>
        <pt x="700" y="1272" on="0"/>
        <pt x="700" y="1020" on="1"/>
        <pt x="700" y="973" on="1"/>
        <pt x="549" y="973" on="1"/>
        <pt x="549" y="1065" on="1"/>
        <pt x="549" y="1239" on="0"/>
        <pt x="537" y="1291" on="1"/>
        <pt x="515" y="1381" on="0"/>
        <pt x="351" y="1381" on="0"/>
        <pt x="277" y="1262" on="0"/>
        <pt x="277" y="1057" on="1"/>
        <pt x="277" y="455" on="1"/>
        <pt x="277" y="337" on="0"/>
        <pt x="292" y="196" on="0"/>
        <pt x="351" y="119" on="0"/>
        <pt x="427" y="119" on="1"/>
        <pt x="512" y="119" on="0"/>
        <pt x="536" y="226" on="1"/>
        <pt x="549" y="285" on="0"/>
        <pt x="549" y="449" on="1"/>
        <pt x="549" y="562" on="1"/>
        <pt x="700" y="562" on="1"/>
        <pt x="700" y="517" on="1"/>
        <pt x="700" y="292" on="0"/>
        <pt x="685" y="209" on="1"/>
        <pt x="659" y="58" on="0"/>
        <pt x="560" y="10" on="1"/>
        <pt x="526" y="-7" on="0"/>
        <pt x="476" y="-14" on="1"/>
        <pt x="476" y="-249" on="1"/>
        <pt x="363" y="-249" on="1"/>
        <pt x="363" y="-15" on="1"/>
        <pt x="296" y="-7" on="0"/>
        <pt x="187" y="71" on="0"/>
        <pt x="128" y="263" on="0"/>
        <pt x="128" y="511" on="1"/>
      </contour>
    </TTGlyph>
    <TTGlyph name="circumflex" xMin="281" yMin="1577" xMax="688" yMax="1831">
      <contour>
        <pt x="402" y="1831" on="1"/>
        <pt x="568" y="1831" on="1"/>
        <pt x="688" y="1577" on="1"/>
        <pt x="571" y="1577" on="1"/>
        <pt x="485" y="1752" on="1"/>
        <pt x="399" y="1577" on="1"/>
        <pt x="281" y="1577" on="1"/>
      </contour>
    </TTGlyph>
    <TTGlyph name="colon" xMin="179" yMin="312" xMax="362" yMax="1279">
      <contour>
        <pt x="179" y="1279" on="1"/>
        <pt x="362" y="1279" on="1"/>
        <pt x="362" y="1048" on="1"/>
        <pt x="179" y="1048" on="1"/>
      </contour>
      <contour>
        <pt x="179" y="543" on="1"/>
        <pt x="362" y="543" on="1"/>
        <pt x="362" y="312" on="1"/>
        <pt x="179" y="312" on="1"/>
      </contour>
    </TTGlyph>
    <TTGlyph name="comma" xMin="151" yMin="-350" xMax="351" yMax="173">
      <contour>
        <pt x="151" y="173" on="1"/>
        <pt x="351" y="173" on="1"/>
        <pt x="351" y="9" on="1"/>
        <pt x="247" y="-350" on="1"/>
        <pt x="170" y="-350" on="1"/>
        <pt x="266" y="0" on="1"/>
        <pt x="151" y="0" on="1"/>
      </contour>
    </TTGlyph>
    <TTGlyph name="copyright" xMin="76" yMin="205" xMax="1390" yMax="1519">
      <contour>
        <pt x="1309" y="700" on="0"/>
        <pt x="1309" y="1024" on="0"/>
        <pt x="1158" y="1296" on="0"/>
        <pt x="893" y="1453" on="0"/>
        <pt x="573" y="1453" on="0"/>
        <pt x="308" y="1296" on="0"/>
        <pt x="157" y="1024" on="0"/>
        <pt x="157" y="700" on="0"/>
        <pt x="308" y="428" on="0"/>
        <pt x="573" y="271" on="0"/>
        <pt x="893" y="271" on="0"/>
        <pt x="1158" y="428" on="0"/>
      </contour>
      <contour>
        <pt x="509" y="1049" on="1"/>
        <pt x="509" y="1305" on="0"/>
        <pt x="947" y="1305" on="0"/>
        <pt x="947" y="1109" on="1"/>
        <pt x="947" y="976" on="1"/>
        <pt x="850" y="976" on="1"/>
        <pt x="850" y="1057" on="1"/>
        <pt x="850" y="1143" on="0"/>
        <pt x="801" y="1214" on="0"/>
        <pt x="666" y="1214" on="0"/>
        <pt x="616" y="1142" on="0"/>
        <pt x="616" y="1070" on="1"/>
        <pt x="616" y="653" on="1"/>
        <pt x="616" y="582" on="0"/>
        <pt x="671" y="508" on="0"/>
        <pt x="801" y="508" on="0"/>
        <pt x="850" y="574" on="0"/>
        <pt x="850" y="653" on="1"/>
        <pt x="850" y="762" on="1"/>
        <pt x="951" y="762" on="1"/>
        <pt x="951" y="639" on="1"/>
        <pt x="951" y="526" on="0"/>
        <pt x="854" y="424" on="0"/>
        <pt x="736" y="424" on="1"/>
        <pt x="509" y="424" on="0"/>
        <pt x="509" y="648" on="1"/>
      </contour>
      <contour>
        <pt x="76" y="678" on="0"/>
        <pt x="76" y="1046" on="0"/>
        <pt x="248" y="1347" on="0"/>
        <pt x="549" y="1519" on="0"/>
        <pt x="917" y="1519" on="0"/>
        <pt x="1218" y="1347" on="0"/>
        <pt x="1390" y="1046" on="0"/>
        <pt x="1390" y="678" on="0"/>
        <pt x="1218" y="377" on="0"/>
        <pt x="917" y="205" on="0"/>
        <pt x="549" y="205" on="0"/>
        <pt x="248" y="377" on="0"/>
      </contour>
    </TTGlyph>
    <TTGlyph name="currency" xMin="125" yMin="812" xMax="1034" yMax="1721">
      <contour>
        <pt x="712" y="951" on="0"/>
        <pt x="876" y="1134" on="0"/>
        <pt x="876" y="1406" on="0"/>
        <pt x="714" y="1582" on="0"/>
        <pt x="447" y="1582" on="0"/>
        <pt x="283" y="1401" on="0"/>
        <pt x="283" y="1132" on="0"/>
        <pt x="446" y="951" on="0"/>
      </contour>
      <contour>
        <pt x="797" y="1634" on="1"/>
        <pt x="884" y="1721" on="1"/>
        <pt x="1034" y="1572" on="1"/>
        <pt x="944" y="1482" on="1"/>
        <pt x="998" y="1385" on="0"/>
        <pt x="998" y="1148" on="0"/>
        <pt x="944" y="1051" on="1"/>
        <pt x="1034" y="961" on="1"/>
        <pt x="884" y="812" on="1"/>
        <pt x="795" y="900" on="1"/>
        <pt x="703" y="848" on="0"/>
        <pt x="455" y="848" on="0"/>
        <pt x="363" y="901" on="1"/>
        <pt x="274" y="812" on="1"/>
        <pt x="125" y="962" on="1"/>
        <pt x="216" y="1053" on="1"/>
        <pt x="163" y="1151" on="0"/>
        <pt x="163" y="1384" on="0"/>
        <pt x="215" y="1481" on="1"/>
        <pt x="125" y="1571" on="1"/>
        <pt x="274" y="1721" on="1"/>
        <pt x="361" y="1633" on="1"/>
        <pt x="458" y="1688" on="0"/>
        <pt x="700" y="1688" on="0"/>
      </contour>
    </TTGlyph>
    <TTGlyph name="d" xMin="130" yMin="-11" xMax="716" yMax="1783">
      <contour>
        <pt x="567" y="1037" on="1"/>
        <pt x="567" y="1230" on="0"/>
        <pt x="508" y="1385" on="0"/>
        <pt x="338" y="1385" on="0"/>
        <pt x="280" y="1226" on="0"/>
        <pt x="280" y="1030" on="1"/>
        <pt x="280" y="436" on="1"/>
        <pt x="280" y="230" on="0"/>
        <pt x="345" y="114" on="0"/>
        <pt x="473" y="114" on="0"/>
        <pt x="528" y="161" on="0"/>
        <pt x="567" y="272" on="0"/>
        <pt x="567" y="434" on="1"/>
      </contour>
      <contour>
        <pt x="566" y="1783" on="1"/>
        <pt x="716" y="1783" on="1"/>
        <pt x="716" y="0" on="1"/>
        <pt x="566" y="0" on="1"/>
        <pt x="566" y="114" on="1"/>
        <pt x="514" y="-11" on="0"/>
        <pt x="367" y="-11" on="1"/>
        <pt x="200" y="-10" on="0"/>
        <pt x="155" y="188" on="1"/>
        <pt x="130" y="297" on="0"/>
        <pt x="130" y="481" on="1"/>
        <pt x="130" y="1008" on="1"/>
        <pt x="130" y="1310" on="0"/>
        <pt x="275" y="1518" on="0"/>
        <pt x="407" y="1518" on="1"/>
        <pt x="458" y="1518" on="0"/>
        <pt x="545" y="1445" on="0"/>
        <pt x="566" y="1393" on="1"/>
      </contour>
    </TTGlyph>
    <TTGlyph name="dagger" xMin="91" yMin="0" xMax="818" yMax="1592">
      <contour>
        <pt x="382" y="1592" on="1"/>
        <pt x="530" y="1592" on="1"/>
        <pt x="530" y="1182" on="1"/>
        <pt x="818" y="1182" on="1"/>
        <pt x="818" y="1066" on="1"/>
        <pt x="530" y="1066" on="1"/>
        <pt x="530" y="0" on="1"/>
        <pt x="382" y="0" on="1"/>
        <pt x="382" y="1066" on="1"/>
        <pt x="91" y="1066" on="1"/>
        <pt x="91" y="1182" on="1"/>
        <pt x="382" y="1182" on="1"/>
      </contour>
    </TTGlyph>
    <TTGlyph name="daggerdbl" xMin="91" yMin="0" xMax="818" yMax="1592">
      <contour>
        <pt x="818" y="1066" on="1"/>
        <pt x="530" y="1066" on="1"/>
        <pt x="530" y="612" on="1"/>
        <pt x="818" y="612" on="1"/>
        <pt x="818" y="496" on="1"/>
        <pt x="530" y="496" on="1"/>
        <pt x="530" y="0" on="1"/>
        <pt x="382" y="0" on="1"/>
        <pt x="382" y="496" on="1"/>
        <pt x="91" y="496" on="1"/>
        <pt x="91" y="612" on="1"/>
        <pt x="382" y="612" on="1"/>
        <pt x="382" y="1066" on="1"/>
        <pt x="91" y="1066" on="1"/>
        <pt x="91" y="1182" on="1"/>
        <pt x="382" y="1182" on="1"/>
        <pt x="382" y="1592" on="1"/>
        <pt x="530" y="1592" on="1"/>
        <pt x="530" y="1182" on="1"/>
        <pt x="818" y="1182" on="1"/>
      </contour>
    </TTGlyph>
    <TTGlyph name="dcaron" xMin="130" yMin="-11" xMax="1125" yMax="1783">
      <component glyphName="d" x="0" y="0" flags="0x1004"/>
      <component glyphName="quoteright" x="665" y="0" flags="0x1004"/>
    </TTGlyph>
    <TTGlyph name="dcroat" xMin="130" yMin="-11" xMax="867" yMax="1783">
      <component glyphName="d" x="0" y="0" flags="0x1004"/>
      <component glyphName="macron" x="282" y="1642" flags="0x1004"/>
    </TTGlyph>
    <TTGlyph name="degree" xMin="114" yMin="935" xMax="801" yMax="1603">
      <contour>
        <pt x="689" y="1209" on="0"/>
        <pt x="689" y="1329" on="0"/>
        <pt x="650" y="1426" on="0"/>
        <pt x="583" y="1485" on="0"/>
        <pt x="502" y="1516" on="0"/>
        <pt x="413" y="1516" on="0"/>
        <pt x="332" y="1485" on="0"/>
        <pt x="266" y="1426" on="0"/>
        <pt x="227" y="1329" on="0"/>
        <pt x="227" y="1209" on="0"/>
        <pt x="266" y="1112" on="0"/>
        <pt x="333" y="1053" on="0"/>
        <pt x="414" y="1022" on="0"/>
        <pt x="503" y="1022" on="0"/>
        <pt x="584" y="1053" on="0"/>
        <pt x="650" y="1112" on="0"/>
      </contour>
      <contour>
        <pt x="324" y="1603" on="0"/>
        <pt x="591" y="1603" on="0"/>
        <pt x="801" y="1432" on="0"/>
        <pt x="801" y="1113" on="0"/>
        <pt x="598" y="935" on="0"/>
        <pt x="323" y="935" on="0"/>
        <pt x="114" y="1105" on="0"/>
        <pt x="114" y="1432" on="0"/>
      </contour>
    </TTGlyph>
    <TTGlyph name="dieresis" xMin="155" yMin="-38" xMax="767" yMax="95">
      <contour>
        <pt x="155" y="95" on="1"/>
        <pt x="337" y="95" on="1"/>
        <pt x="337" y="-38" on="1"/>
        <pt x="155" y="-38" on="1"/>
      </contour>
      <contour>
        <pt x="585" y="95" on="1"/>
        <pt x="767" y="95" on="1"/>
        <pt x="767" y="-38" on="1"/>
        <pt x="585" y="-38" on="1"/>
      </contour>
    </TTGlyph>
    <TTGlyph name="divide" xMin="94" yMin="327" xMax="710" yMax="1174">
      <contour>
        <pt x="303" y="1174" on="1"/>
        <pt x="501" y="1174" on="1"/>
        <pt x="501" y="976" on="1"/>
        <pt x="303" y="976" on="1"/>
      </contour>
      <contour>
        <pt x="303" y="535" on="1"/>
        <pt x="501" y="535" on="1"/>
        <pt x="501" y="327" on="1"/>
        <pt x="303" y="327" on="1"/>
      </contour>
      <contour>
        <pt x="94" y="823" on="1"/>
        <pt x="710" y="823" on="1"/>
        <pt x="710" y="708" on="1"/>
        <pt x="94" y="708" on="1"/>
      </contour>
    </TTGlyph>
    <TTGlyph name="dollar" xMin="120" yMin="-271" xMax="710" yMax="1760">
      <contour>
        <pt x="120" y="1178" on="1"/>
        <pt x="120" y="1344" on="0"/>
        <pt x="200" y="1430" on="1"/>
        <pt x="251" y="1485" on="0"/>
        <pt x="327" y="1505" on="1"/>
        <pt x="327" y="1760" on="1"/>
        <pt x="434" y="1760" on="1"/>
        <pt x="434" y="1516" on="1"/>
        <pt x="563" y="1510" on="0"/>
        <pt x="689" y="1294" on="0"/>
        <pt x="689" y="1035" on="1"/>
        <pt x="689" y="955" on="1"/>
        <pt x="534" y="955" on="1"/>
        <pt x="534" y="1062" on="1"/>
        <pt x="534" y="1221" on="0"/>
        <pt x="479" y="1379" on="0"/>
        <pt x="342" y="1379" on="0"/>
        <pt x="271" y="1288" on="0"/>
        <pt x="271" y="1170" on="1"/>
        <pt x="271" y="995" on="0"/>
        <pt x="434" y="837" on="1"/>
        <pt x="511" y="762" on="1"/>
        <pt x="710" y="563" on="0"/>
        <pt x="710" y="323" on="1"/>
        <pt x="710" y="163" on="0"/>
        <pt x="579" y="-12" on="0"/>
        <pt x="455" y="-21" on="1"/>
        <pt x="455" y="-271" on="1"/>
        <pt x="348" y="-271" on="1"/>
        <pt x="348" y="-14" on="1"/>
        <pt x="256" y="6" on="0"/>
        <pt x="202" y="80" on="1"/>
        <pt x="129" y="181" on="0"/>
        <pt x="129" y="399" on="1"/>
        <pt x="129" y="402" on="0"/>
        <pt x="129" y="405" on="1"/>
        <pt x="129" y="534" on="1"/>
        <pt x="282" y="534" on="1"/>
        <pt x="282" y="431" on="1"/>
        <pt x="282" y="114" on="0"/>
        <pt x="420" y="114" on="1"/>
        <pt x="494" y="114" on="0"/>
        <pt x="556" y="210" on="0"/>
        <pt x="556" y="332" on="1"/>
        <pt x="556" y="513" on="0"/>
        <pt x="400" y="672" on="1"/>
        <pt x="321" y="752" on="1"/>
        <pt x="120" y="956" on="0"/>
      </contour>
    </TTGlyph>
    <TTGlyph name="dotaccent" xMin="213" yMin="-55" xMax="372" yMax="78">
      <contour>
        <pt x="213" y="78" on="1"/>
        <pt x="372" y="78" on="1"/>
        <pt x="372" y="-55" on="1"/>
        <pt x="213" y="-55" on="1"/>
      </contour>
    </TTGlyph>
    <TTGlyph name="dotlessi" xMin="162" yMin="0" xMax="312" yMax="1500">
      <contour>
        <pt x="162" y="1500" on="1"/>
        <pt x="312" y="1500" on="1"/>
        <pt x="312" y="0" on="1"/>
        <pt x="162" y="0" on="1"/>
      </contour>
    </TTGlyph>
    <TTGlyph name="e" xMin="128" yMin="-18" xMax="698" yMax="1518">
      <contour>
        <pt x="549" y="877" on="1"/>
        <pt x="549" y="1078" on="1"/>
        <pt x="549" y="1247" on="0"/>
        <pt x="536" y="1299" on="1"/>
        <pt x="514" y="1387" on="0"/>
        <pt x="426" y="1387" on="1"/>
        <pt x="308" y="1387" on="0"/>
        <pt x="286" y="1232" on="1"/>
        <pt x="277" y="1169" on="0"/>
        <pt x="277" y="1078" on="1"/>
        <pt x="277" y="1069" on="0"/>
        <pt x="277" y="1060" on="1"/>
        <pt x="277" y="877" on="1"/>
      </contour>
      <contour>
        <pt x="128" y="1014" on="1"/>
        <pt x="128" y="1276" on="0"/>
        <pt x="176" y="1374" on="1"/>
        <pt x="226" y="1472" on="0"/>
        <pt x="310" y="1501" on="1"/>
        <pt x="360" y="1518" on="0"/>
        <pt x="491" y="1518" on="0"/>
        <pt x="539" y="1502" on="1"/>
        <pt x="612" y="1478" on="0"/>
        <pt x="662" y="1371" on="1"/>
        <pt x="698" y="1296" on="0"/>
        <pt x="698" y="1002" on="1"/>
        <pt x="698" y="752" on="1"/>
        <pt x="277" y="752" on="1"/>
        <pt x="277" y="450" on="1"/>
        <pt x="277" y="218" on="0"/>
        <pt x="346" y="113" on="0"/>
        <pt x="481" y="113" on="0"/>
        <pt x="536" y="197" on="0"/>
        <pt x="549" y="330" on="0"/>
        <pt x="549" y="444" on="1"/>
        <pt x="549" y="556" on="1"/>
        <pt x="694" y="556" on="1"/>
        <pt x="694" y="507" on="1"/>
        <pt x="694" y="285" on="0"/>
        <pt x="679" y="203" on="1"/>
        <pt x="641" y="-18" on="0"/>
        <pt x="432" y="-18" on="1"/>
        <pt x="250" y="-18" on="0"/>
        <pt x="190" y="94" on="1"/>
        <pt x="149" y="168" on="0"/>
        <pt x="128" y="358" on="0"/>
        <pt x="128" y="511" on="1"/>
      </contour>
    </TTGlyph>
    <TTGlyph name="eacute" xMin="128" yMin="-18" xMax="698" yMax="1861">
      <component glyphName="e" x="0" y="0" flags="0x1004"/>
      <component glyphName="acute" x="156" y="-286" flags="0x1004"/>
    </TTGlyph>
    <TTGlyph name="ebreve" xMin="128" yMin="-18" xMax="698" yMax="1823">
      <component glyphName="breve" x="-86" y="0" flags="0x1004"/>
      <component glyphName="e" x="0" y="0" flags="0x1004"/>
    </TTGlyph>
    <TTGlyph name="ecaron" xMin="128" yMin="-18" xMax="698" yMax="1830">
      <component glyphName="e" x="0" y="0" flags="0x1004"/>
      <component glyphName="caron" x="-55" y="0" flags="0x1004"/>
    </TTGlyph>
    <TTGlyph name="ecircumflex" xMin="128" yMin="-18" xMax="698" yMax="1831">
      <component glyphName="e" x="0" y="0" flags="0x1004"/>
      <component glyphName="circumflex" x="-55" y="0" flags="0x1004"/>
    </TTGlyph>
    <TTGlyph name="edieresis" xMin="97" yMin="-18" xMax="709" yMax="1745">
      <component glyphName="e" x="0" y="0" flags="0x1004"/>
      <component glyphName="dieresis" x="-58" y="1650" flags="0x1004"/>
    </TTGlyph>
    <TTGlyph name="edotaccent" xMin="128" yMin="-18" xMax="698" yMax="1728">
      <component glyphName="dotaccent" x="136" y="1650" flags="0x1004"/>
      <component glyphName="e" x="0" y="0" flags="0x1004"/>
    </TTGlyph>
    <TTGlyph name="egrave" xMin="128" yMin="-18" xMax="698" yMax="1824">
      <component glyphName="grave" x="124" y="1650" flags="0x1004"/>
      <component glyphName="e" x="0" y="0" flags="0x1004"/>
    </TTGlyph>
    <TTGlyph name="eight" xMin="71" yMin="-20" xMax="682" yMax="1780">
      <contour>
        <pt x="459" y="982" on="0"/>
        <pt x="529" y="1158" on="0"/>
        <pt x="529" y="1511" on="0"/>
        <pt x="459" y="1653" on="0"/>
        <pt x="306" y="1653" on="0"/>
        <pt x="238" y="1508" on="0"/>
        <pt x="238" y="1156" on="0"/>
        <pt x="306" y="982" on="0"/>
      </contour>
      <contour>
        <pt x="380" y="869" on="1"/>
        <pt x="220" y="869" on="0"/>
        <pt x="220" y="464" on="1"/>
        <pt x="220" y="258" on="0"/>
        <pt x="299" y="103" on="0"/>
        <pt x="462" y="103" on="0"/>
        <pt x="533" y="263" on="0"/>
        <pt x="533" y="665" on="0"/>
        <pt x="462" y="869" on="0"/>
      </contour>
      <contour>
        <pt x="72" y="403" on="1"/>
        <pt x="71" y="434" on="1"/>
        <pt x="71" y="638" on="0"/>
        <pt x="144" y="872" on="0"/>
        <pt x="226" y="927" on="1"/>
        <pt x="154" y="978" on="0"/>
        <pt x="89" y="1177" on="0"/>
        <pt x="89" y="1574" on="0"/>
        <pt x="230" y="1780" on="0"/>
        <pt x="539" y="1780" on="0"/>
        <pt x="678" y="1574" on="0"/>
        <pt x="678" y="1181" on="0"/>
        <pt x="609" y="984" on="0"/>
        <pt x="532" y="931" on="1"/>
        <pt x="611" y="874" on="0"/>
        <pt x="682" y="638" on="0"/>
        <pt x="682" y="434" on="1"/>
        <pt x="682" y="413" on="1"/>
        <pt x="677" y="186" on="0"/>
        <pt x="534" y="-20" on="0"/>
        <pt x="226" y="-20" on="0"/>
        <pt x="79" y="181" on="0"/>
      </contour>
    </TTGlyph>
    <TTGlyph name="emacron" xMin="128" yMin="-18" xMax="698" yMax="1693">
      <component glyphName="macron" x="74" y="1650" flags="0x1004"/>
      <component glyphName="e" x="0" y="0" flags="0x1004"/>
    </TTGlyph>
    <TTGlyph name="emdash" xMin="100" yMin="626" xMax="1052" yMax="741">
      <contour>
        <pt x="100" y="741" on="1"/>
        <pt x="1052" y="741" on="1"/>
        <pt x="1052" y="626" on="1"/>
        <pt x="100" y="626" on="1"/>
      </contour>
    </TTGlyph>
    <TTGlyph name="endash" xMin="120" yMin="626" xMax="636" yMax="741">
      <contour>
        <pt x="120" y="741" on="1"/>
        <pt x="636" y="741" on="1"/>
        <pt x="636" y="626" on="1"/>
        <pt x="120" y="626" on="1"/>
      </contour>
    </TTGlyph>
    <TTGlyph name="eogonek" xMin="128" yMin="-421" xMax="698" yMax="1518">
      <component glyphName="ogonek" x="-206" y="10" flags="0x1004"/>
      <component glyphName="e" x="0" y="0" flags="0x1004"/>
    </TTGlyph>
    <TTGlyph name="equal" xMin="104" yMin="601" xMax="618" yMax="1025">
      <contour>
        <pt x="104" y="733" on="1"/>
        <pt x="618" y="733" on="1"/>
        <pt x="618" y="601" on="1"/>
        <pt x="104" y="601" on="1"/>
      </contour>
      <contour>
        <pt x="104" y="1025" on="1"/>
        <pt x="618" y="1025" on="1"/>
        <pt x="618" y="892" on="1"/>
        <pt x="104" y="892" on="1"/>
      </contour>
    </TTGlyph>
    <TTGlyph name="eth" xMin="113" yMin="-20" xMax="933" yMax="1780">
      <contour>
        <pt x="616" y="926" on="1"/>
        <pt x="613" y="927" on="0"/>
        <pt x="498" y="978" on="0"/>
        <pt x="427" y="978" on="1"/>
        <pt x="328" y="978" on="0"/>
        <pt x="262" y="795" on="0"/>
        <pt x="262" y="545" on="1"/>
        <pt x="262" y="446" on="1"/>
        <pt x="262" y="305" on="0"/>
        <pt x="293" y="163" on="0"/>
        <pt x="364" y="107" on="0"/>
        <pt x="433" y="107" on="1"/>
        <pt x="541" y="107" on="0"/>
        <pt x="616" y="286" on="0"/>
        <pt x="616" y="505" on="1"/>
      </contour>
      <contour>
        <pt x="545" y="1534" on="1"/>
        <pt x="455" y="1640" on="0"/>
        <pt x="309" y="1640" on="1"/>
        <pt x="302" y="1640" on="0"/>
        <pt x="295" y="1640" on="1"/>
        <pt x="295" y="1780" on="1"/>
        <pt x="310" y="1780" on="1"/>
        <pt x="554" y="1780" on="0"/>
        <pt x="680" y="1616" on="1"/>
        <pt x="880" y="1735" on="1"/>
        <pt x="933" y="1635" on="1"/>
        <pt x="734" y="1516" on="1"/>
        <pt x="750" y="1468" on="0"/>
        <pt x="765" y="958" on="1"/>
        <pt x="765" y="506" on="1"/>
        <pt x="765" y="202" on="0"/>
        <pt x="668" y="80" on="1"/>
        <pt x="589" y="-20" on="0"/>
        <pt x="247" y="-20" on="0"/>
        <pt x="113" y="212" on="0"/>
        <pt x="113" y="442" on="1"/>
        <pt x="113" y="557" on="1"/>
        <pt x="113" y="866" on="0"/>
        <pt x="246" y="1103" on="0"/>
        <pt x="413" y="1103" on="1"/>
        <pt x="424" y="1103" on="0"/>
        <pt x="483" y="1101" on="0"/>
        <pt x="588" y="1052" on="0"/>
        <pt x="618" y="1009" on="1"/>
        <pt x="610" y="1392" on="0"/>
        <pt x="598" y="1434" on="1"/>
        <pt x="373" y="1299" on="1"/>
        <pt x="320" y="1399" on="1"/>
      </contour>
    </TTGlyph>
    <TTGlyph name="exclam" xMin="175" yMin="0" xMax="364" yMax="1760">
      <contour>
        <pt x="175" y="202" on="1"/>
        <pt x="361" y="202" on="1"/>
        <pt x="361" y="0" on="1"/>
        <pt x="175" y="0" on="1"/>
      </contour>
      <contour>
        <pt x="176" y="1760" on="1"/>
        <pt x="364" y="1760" on="1"/>
        <pt x="299" y="368" on="1"/>
        <pt x="239" y="368" on="1"/>
      </contour>
    </TTGlyph>
    <TTGlyph name="exclamdown" xMin="216" yMin="-207" xMax="405" yMax="1553">
      <component glyphName="exclam" x="580" y="1553" scale="-1.0" flags="0x1004"/>
    </TTGlyph>
    <TTGlyph name="f" xMin="84" yMin="0" xMax="573" yMax="1789">
      <contour>
        <pt x="224" y="1512" on="1"/>
        <pt x="224" y="1650" on="0"/>
        <pt x="322" y="1789" on="0"/>
        <pt x="438" y="1789" on="1"/>
        <pt x="519" y="1789" on="0"/>
        <pt x="573" y="1771" on="1"/>
        <pt x="573" y="1650" on="1"/>
        <pt x="528" y="1657" on="0"/>
        <pt x="416" y="1657" on="0"/>
        <pt x="374" y="1598" on="0"/>
        <pt x="374" y="1534" on="1"/>
        <pt x="374" y="1442" on="1"/>
        <pt x="573" y="1442" on="1"/>
        <pt x="573" y="1329" on="1"/>
        <pt x="374" y="1329" on="1"/>
        <pt x="374" y="0" on="1"/>
        <pt x="224" y="0" on="1"/>
        <pt x="224" y="1329" on="1"/>
        <pt x="84" y="1329" on="1"/>
        <pt x="84" y="1442" on="1"/>
        <pt x="224" y="1442" on="1"/>
      </contour>
    </TTGlyph>
    <TTGlyph name="ff" xMin="84" yMin="0" xMax="1183" yMax="1789">
      <contour>
        <pt x="834" y="1442" on="1"/>
        <pt x="834" y="1512" on="1"/>
        <pt x="834" y="1650" on="0"/>
        <pt x="932" y="1789" on="0"/>
        <pt x="1048" y="1789" on="1"/>
        <pt x="1129" y="1789" on="0"/>
        <pt x="1183" y="1771" on="1"/>
        <pt x="1183" y="1650" on="1"/>
        <pt x="1138" y="1657" on="0"/>
        <pt x="1026" y="1657" on="0"/>
        <pt x="984" y="1598" on="0"/>
        <pt x="984" y="1534" on="1"/>
        <pt x="984" y="1442" on="1"/>
        <pt x="1183" y="1442" on="1"/>
        <pt x="1183" y="1329" on="1"/>
        <pt x="984" y="1329" on="1"/>
        <pt x="984" y="0" on="1"/>
        <pt x="834" y="0" on="1"/>
        <pt x="834" y="1329" on="1"/>
        <pt x="374" y="1329" on="1"/>
        <pt x="374" y="0" on="1"/>
        <pt x="224" y="0" on="1"/>
        <pt x="224" y="1329" on="1"/>
        <pt x="84" y="1329" on="1"/>
        <pt x="84" y="1442" on="1"/>
        <pt x="224" y="1442" on="1"/>
        <pt x="224" y="1512" on="1"/>
        <pt x="224" y="1650" on="0"/>
        <pt x="322" y="1789" on="0"/>
        <pt x="438" y="1789" on="1"/>
        <pt x="519" y="1789" on="0"/>
        <pt x="573" y="1771" on="1"/>
        <pt x="573" y="1650" on="1"/>
        <pt x="528" y="1657" on="0"/>
        <pt x="416" y="1657" on="0"/>
        <pt x="374" y="1598" on="0"/>
        <pt x="374" y="1534" on="1"/>
        <pt x="374" y="1442" on="1"/>
      </contour>
    </TTGlyph>
    <TTGlyph name="ffi" xMin="84" yMin="0" xMax="1532" yMax="1800">
      <contour>
        <pt x="984" y="1500" on="1"/>
        <pt x="1532" y="1500" on="1"/>
        <pt x="1532" y="0" on="1"/>
        <pt x="1382" y="0" on="1"/>
        <pt x="1382" y="1387" on="1"/>
        <pt x="984" y="1387" on="1"/>
        <pt x="984" y="0" on="1"/>
        <pt x="834" y="0" on="1"/>
        <pt x="834" y="1387" on="1"/>
        <pt x="374" y="1387" on="1"/>
        <pt x="374" y="0" on="1"/>
        <pt x="224" y="0" on="1"/>
        <pt x="224" y="1387" on="1"/>
        <pt x="84" y="1387" on="1"/>
        <pt x="84" y="1500" on="1"/>
        <pt x="224" y="1500" on="1"/>
        <pt x="224" y="1519" on="1"/>
        <pt x="224" y="1657" on="0"/>
        <pt x="322" y="1796" on="0"/>
        <pt x="438" y="1796" on="1"/>
        <pt x="519" y="1796" on="0"/>
        <pt x="573" y="1778" on="1"/>
        <pt x="573" y="1657" on="1"/>
        <pt x="528" y="1664" on="0"/>
        <pt x="416" y="1664" on="0"/>
        <pt x="374" y="1605" on="0"/>
        <pt x="374" y="1541" on="1"/>
        <pt x="374" y="1500" on="1"/>
        <pt x="834" y="1500" on="1"/>
        <pt x="834" y="1519" on="1"/>
        <pt x="834" y="1657" on="0"/>
        <pt x="932" y="1796" on="0"/>
        <pt x="1048" y="1796" on="1"/>
        <pt x="1129" y="1796" on="0"/>
        <pt x="1183" y="1778" on="1"/>
        <pt x="1183" y="1657" on="1"/>
        <pt x="1138" y="1664" on="0"/>
        <pt x="1026" y="1664" on="0"/>
        <pt x="984" y="1605" on="0"/>
        <pt x="984" y="1541" on="1"/>
      </contour>
      <contour>
        <pt x="1382" y="1800" on="1"/>
        <pt x="1532" y="1800" on="1"/>
        <pt x="1532" y="1615" on="1"/>
        <pt x="1382" y="1615" on="1"/>
      </contour>
    </TTGlyph>
    <TTGlyph name="ffl" xMin="84" yMin="0" xMax="1475" yMax="1811">
      <contour>
        <pt x="779" y="1442" on="1"/>
        <pt x="779" y="1512" on="1"/>
        <pt x="779" y="1696" on="0"/>
        <pt x="922" y="1811" on="0"/>
        <pt x="1211" y="1811" on="0"/>
        <pt x="1475" y="1744" on="1"/>
        <pt x="1475" y="0" on="1"/>
        <pt x="1325" y="0" on="1"/>
        <pt x="1325" y="1660" on="1"/>
        <pt x="1193" y="1691" on="0"/>
        <pt x="1053" y="1691" on="0"/>
        <pt x="957" y="1661" on="0"/>
        <pt x="929" y="1587" on="0"/>
        <pt x="929" y="1541" on="1"/>
        <pt x="929" y="1442" on="1"/>
        <pt x="1128" y="1442" on="1"/>
        <pt x="1128" y="1329" on="1"/>
        <pt x="929" y="1329" on="1"/>
        <pt x="929" y="0" on="1"/>
        <pt x="779" y="0" on="1"/>
        <pt x="779" y="1329" on="1"/>
        <pt x="374" y="1329" on="1"/>
        <pt x="374" y="0" on="1"/>
        <pt x="224" y="0" on="1"/>
        <pt x="224" y="1329" on="1"/>
        <pt x="84" y="1329" on="1"/>
        <pt x="84" y="1442" on="1"/>
        <pt x="224" y="1442" on="1"/>
        <pt x="224" y="1512" on="1"/>
        <pt x="224" y="1650" on="0"/>
        <pt x="322" y="1789" on="0"/>
        <pt x="438" y="1789" on="1"/>
        <pt x="519" y="1789" on="0"/>
        <pt x="573" y="1771" on="1"/>
        <pt x="573" y="1650" on="1"/>
        <pt x="528" y="1657" on="0"/>
        <pt x="416" y="1657" on="0"/>
        <pt x="374" y="1598" on="0"/>
        <pt x="374" y="1534" on="1"/>
        <pt x="374" y="1442" on="1"/>
      </contour>
    </TTGlyph>
    <TTGlyph name="five" xMin="111" yMin="-20" xMax="633" yMax="1760">
      <contour>
        <pt x="135" y="1760" on="1"/>
        <pt x="595" y="1760" on="1"/>
        <pt x="595" y="1624" on="1"/>
        <pt x="270" y="1624" on="1"/>
        <pt x="270" y="1146" on="1"/>
        <pt x="285" y="1175" on="0"/>
        <pt x="362" y="1221" on="0"/>
        <pt x="443" y="1221" on="0"/>
        <pt x="480" y="1210" on="1"/>
        <pt x="558" y="1185" on="0"/>
        <pt x="633" y="983" on="0"/>
        <pt x="633" y="768" on="1"/>
        <pt x="633" y="477" on="1"/>
        <pt x="633" y="246" on="0"/>
        <pt x="583" y="72" on="0"/>
        <pt x="552" y="40" on="1"/>
        <pt x="494" y="-20" on="0"/>
        <pt x="377" y="-20" on="1"/>
        <pt x="111" y="-20" on="0"/>
        <pt x="111" y="291" on="1"/>
        <pt x="111" y="459" on="1"/>
        <pt x="263" y="459" on="1"/>
        <pt x="263" y="263" on="1"/>
        <pt x="263" y="102" on="0"/>
        <pt x="492" y="102" on="0"/>
        <pt x="492" y="274" on="1"/>
        <pt x="492" y="869" on="1"/>
        <pt x="492" y="985" on="0"/>
        <pt x="441" y="1091" on="0"/>
        <pt x="327" y="1091" on="0"/>
        <pt x="259" y="988" on="0"/>
        <pt x="259" y="888" on="1"/>
        <pt x="135" y="910" on="1"/>
      </contour>
    </TTGlyph>
    <TTGlyph name="florin" xMin="107" yMin="-12" xMax="667" yMax="1787">
      <contour>
        <pt x="316" y="1539" on="1"/>
        <pt x="316" y="1787" on="0"/>
        <pt x="496" y="1787" on="1"/>
        <pt x="558" y="1787" on="0"/>
        <pt x="652" y="1752" on="1"/>
        <pt x="652" y="1630" on="1"/>
        <pt x="575" y="1654" on="0"/>
        <pt x="491" y="1654" on="0"/>
        <pt x="453" y="1592" on="0"/>
        <pt x="453" y="1521" on="1"/>
        <pt x="453" y="1252" on="1"/>
        <pt x="667" y="1252" on="1"/>
        <pt x="667" y="1146" on="1"/>
        <pt x="453" y="1146" on="1"/>
        <pt x="453" y="221" on="1"/>
        <pt x="453" y="-12" on="0"/>
        <pt x="252" y="-12" on="1"/>
        <pt x="194" y="-12" on="0"/>
        <pt x="115" y="8" on="1"/>
        <pt x="115" y="130" on="1"/>
        <pt x="155" y="128" on="0"/>
        <pt x="170" y="128" on="1"/>
        <pt x="264" y="128" on="0"/>
        <pt x="316" y="194" on="0"/>
        <pt x="316" y="305" on="1"/>
        <pt x="316" y="1146" on="1"/>
        <pt x="107" y="1146" on="1"/>
        <pt x="107" y="1252" on="1"/>
        <pt x="316" y="1252" on="1"/>
      </contour>
    </TTGlyph>
    <TTGlyph name="four" xMin="51" yMin="-1" xMax="743" yMax="1761">
      <contour>
        <pt x="449" y="468" on="1"/>
        <pt x="449" y="1428" on="1"/>
        <pt x="186" y="468" on="1"/>
      </contour>
      <contour>
        <pt x="445" y="1761" on="1"/>
        <pt x="589" y="1761" on="1"/>
        <pt x="589" y="468" on="1"/>
        <pt x="743" y="468" on="1"/>
        <pt x="743" y="352" on="1"/>
        <pt x="589" y="352" on="1"/>
        <pt x="589" y="-1" on="1"/>
        <pt x="449" y="-1" on="1"/>
        <pt x="449" y="352" on="1"/>
        <pt x="51" y="352" on="1"/>
        <pt x="51" y="449" on="1"/>
      </contour>
    </TTGlyph>
    <TTGlyph name="fraction" xMin="94" yMin="0" xMax="673" yMax="1768">
      <contour>
        <pt x="536" y="1768" on="1"/>
        <pt x="673" y="1768" on="1"/>
        <pt x="231" y="0" on="1"/>
        <pt x="94" y="0" on="1"/>
      </contour>
    </TTGlyph>
    <TTGlyph name="g" xMin="126" yMin="-235" xMax="712" yMax="1518">
      <contour>
        <pt x="563" y="1050" on="1"/>
        <pt x="563" y="1275" on="0"/>
        <pt x="492" y="1387" on="0"/>
        <pt x="347" y="1387" on="0"/>
        <pt x="284" y="1279" on="0"/>
        <pt x="275" y="1119" on="0"/>
        <pt x="275" y="1052" on="1"/>
        <pt x="275" y="611" on="1"/>
        <pt x="275" y="418" on="0"/>
        <pt x="342" y="255" on="0"/>
        <pt x="434" y="255" on="1"/>
        <pt x="482" y="256" on="0"/>
        <pt x="508" y="282" on="1"/>
        <pt x="563" y="338" on="0"/>
        <pt x="563" y="614" on="1"/>
      </contour>
      <contour>
        <pt x="126" y="1235" on="0"/>
        <pt x="255" y="1518" on="0"/>
        <pt x="523" y="1518" on="0"/>
        <pt x="563" y="1412" on="1"/>
        <pt x="563" y="1500" on="1"/>
        <pt x="712" y="1500" on="1"/>
        <pt x="712" y="97" on="1"/>
        <pt x="712" y="-126" on="0"/>
        <pt x="546" y="-204" on="1"/>
        <pt x="481" y="-235" on="0"/>
        <pt x="339" y="-235" on="0"/>
        <pt x="184" y="-187" on="0"/>
        <pt x="132" y="-147" on="1"/>
        <pt x="189" y="-32" on="1"/>
        <pt x="287" y="-105" on="0"/>
        <pt x="409" y="-105" on="1"/>
        <pt x="486" y="-105" on="0"/>
        <pt x="563" y="-4" on="0"/>
        <pt x="563" y="80" on="1"/>
        <pt x="563" y="245" on="1"/>
        <pt x="533" y="178" on="0"/>
        <pt x="442" y="127" on="0"/>
        <pt x="380" y="127" on="1"/>
        <pt x="208" y="127" on="0"/>
        <pt x="157" y="321" on="1"/>
        <pt x="126" y="443" on="0"/>
        <pt x="126" y="632" on="1"/>
        <pt x="126" y="1013" on="1"/>
      </contour>
    </TTGlyph>
    <TTGlyph name="gbreve" xMin="126" yMin="-235" xMax="712" yMax="1823">
      <component glyphName="breve" x="-58" y="0" flags="0x1004"/>
      <component glyphName="g" x="0" y="0" flags="0x1004"/>
    </TTGlyph>
    <TTGlyph name="gcircumflex" xMin="126" yMin="-235" xMax="712" yMax="1831">
      <component glyphName="circumflex" x="-35" y="0" flags="0x1004"/>
      <component glyphName="g" x="0" y="0" flags="0x1004"/>
    </TTGlyph>
    <TTGlyph name="gcommaaccent" xMin="126" yMin="-235" xMax="712" yMax="2063">
      <component glyphName="uni0326" x="142" y="1821" flags="0x1004"/>
      <component glyphName="g" x="0" y="0" flags="0x1004"/>
    </TTGlyph>
    <TTGlyph name="gdotaccent" xMin="126" yMin="-235" xMax="712" yMax="1728">
      <component glyphName="dotaccent" x="164" y="1650" flags="0x1004"/>
      <component glyphName="g" x="0" y="0" flags="0x1004"/>
    </TTGlyph>
    <TTGlyph name="germandbls" xMin="153" yMin="0" xMax="831" yMax="1781">
      <contour>
        <pt x="153" y="1417" on="1"/>
        <pt x="153" y="1556" on="0"/>
        <pt x="164" y="1623" on="0"/>
        <pt x="172" y="1650" on="1"/>
        <pt x="208" y="1781" on="0"/>
        <pt x="445" y="1781" on="1"/>
        <pt x="543" y="1781" on="0"/>
        <pt x="668" y="1748" on="0"/>
        <pt x="744" y="1661" on="0"/>
        <pt x="771" y="1527" on="0"/>
        <pt x="771" y="1417" on="1"/>
        <pt x="771" y="1220" on="1"/>
        <pt x="771" y="1091" on="0"/>
        <pt x="701" y="977" on="0"/>
        <pt x="602" y="945" on="1"/>
        <pt x="692" y="923" on="0"/>
        <pt x="789" y="842" on="0"/>
        <pt x="831" y="688" on="0"/>
        <pt x="831" y="553" on="1"/>
        <pt x="831" y="476" on="1"/>
        <pt x="831" y="285" on="0"/>
        <pt x="797" y="132" on="0"/>
        <pt x="762" y="87" on="1"/>
        <pt x="694" y="0" on="0"/>
        <pt x="518" y="0" on="1"/>
        <pt x="414" y="0" on="1"/>
        <pt x="414" y="127" on="1"/>
        <pt x="544" y="127" on="0"/>
        <pt x="624" y="155" on="0"/>
        <pt x="655" y="186" on="0"/>
        <pt x="683" y="268" on="0"/>
        <pt x="683" y="395" on="1"/>
        <pt x="683" y="656" on="1"/>
        <pt x="683" y="780" on="0"/>
        <pt x="574" y="869" on="0"/>
        <pt x="423" y="869" on="1"/>
        <pt x="423" y="1007" on="1"/>
        <pt x="538" y="1007" on="0"/>
        <pt x="628" y="1076" on="0"/>
        <pt x="628" y="1170" on="1"/>
        <pt x="628" y="1500" on="1"/>
        <pt x="628" y="1609" on="0"/>
        <pt x="555" y="1687" on="0"/>
        <pt x="366" y="1687" on="0"/>
        <pt x="300" y="1608" on="0"/>
        <pt x="300" y="1500" on="1"/>
        <pt x="300" y="0" on="1"/>
        <pt x="153" y="0" on="1"/>
      </contour>
    </TTGlyph>
    <TTGlyph name="grave" xMin="136" yMin="-80" xMax="468" yMax="174">
      <contour>
        <pt x="136" y="14" on="1"/>
        <pt x="136" y="174" on="1"/>
        <pt x="468" y="-11" on="1"/>
        <pt x="468" y="-80" on="1"/>
      </contour>
    </TTGlyph>
    <TTGlyph name="greater" xMin="84" yMin="288" xMax="663" yMax="1219">
      <contour>
        <pt x="84" y="1059" on="1"/>
        <pt x="84" y="1219" on="1"/>
        <pt x="663" y="818" on="1"/>
        <pt x="663" y="684" on="1"/>
        <pt x="84" y="288" on="1"/>
        <pt x="84" y="456" on="1"/>
        <pt x="552" y="749" on="1"/>
      </contour>
    </TTGlyph>
    <TTGlyph name="greaterequal" xMin="92" yMin="0" xMax="679" yMax="1209">
      <contour>
        <pt x="92" y="111" on="1"/>
        <pt x="641" y="111" on="1"/>
        <pt x="641" y="0" on="1"/>
        <pt x="92" y="0" on="1"/>
      </contour>
      <contour>
        <pt x="100" y="1042" on="1"/>
        <pt x="100" y="1209" on="1"/>
        <pt x="679" y="813" on="1"/>
        <pt x="679" y="679" on="1"/>
        <pt x="100" y="279" on="1"/>
        <pt x="100" y="439" on="1"/>
        <pt x="567" y="749" on="1"/>
      </contour>
    </TTGlyph>
    <TTGlyph name="guillemotleft" xMin="76" yMin="414" xMax="1065" yMax="1065">
      <contour>
        <pt x="76" y="794" on="1"/>
        <pt x="542" y="1065" on="1"/>
        <pt x="542" y="915" on="1"/>
        <pt x="230" y="749" on="1"/>
        <pt x="542" y="574" on="1"/>
        <pt x="542" y="414" on="1"/>
        <pt x="76" y="699" on="1"/>
      </contour>
      <contour>
        <pt x="599" y="794" on="1"/>
        <pt x="1065" y="1065" on="1"/>
        <pt x="1065" y="915" on="1"/>
        <pt x="753" y="749" on="1"/>
        <pt x="1065" y="574" on="1"/>
        <pt x="1065" y="414" on="1"/>
        <pt x="599" y="699" on="1"/>
      </contour>
    </TTGlyph>
    <TTGlyph name="guillemotright" xMin="193" yMin="414" xMax="1182" yMax="1065">
      <contour>
        <pt x="193" y="915" on="1"/>
        <pt x="193" y="1065" on="1"/>
        <pt x="659" y="794" on="1"/>
        <pt x="659" y="699" on="1"/>
        <pt x="193" y="414" on="1"/>
        <pt x="193" y="574" on="1"/>
        <pt x="505" y="749" on="1"/>
      </contour>
      <contour>
        <pt x="716" y="915" on="1"/>
        <pt x="716" y="1065" on="1"/>
        <pt x="1182" y="794" on="1"/>
        <pt x="1182" y="699" on="1"/>
        <pt x="716" y="414" on="1"/>
        <pt x="716" y="574" on="1"/>
        <pt x="1028" y="749" on="1"/>
      </contour>
    </TTGlyph>
    <TTGlyph name="guilsinglleft" xMin="82" yMin="414" xMax="548" yMax="1065">
      <contour>
        <pt x="82" y="794" on="1"/>
        <pt x="548" y="1065" on="1"/>
        <pt x="548" y="915" on="1"/>
        <pt x="236" y="749" on="1"/>
        <pt x="548" y="574" on="1"/>
        <pt x="548" y="414" on="1"/>
        <pt x="82" y="699" on="1"/>
      </contour>
    </TTGlyph>
    <TTGlyph name="guilsinglright" xMin="166" yMin="414" xMax="632" yMax="1065">
      <contour>
        <pt x="166" y="915" on="1"/>
        <pt x="166" y="1065" on="1"/>
        <pt x="632" y="794" on="1"/>
        <pt x="632" y="699" on="1"/>
        <pt x="166" y="414" on="1"/>
        <pt x="166" y="574" on="1"/>
        <pt x="478" y="749" on="1"/>
      </contour>
    </TTGlyph>
    <TTGlyph name="h" xMin="160" yMin="0" xMax="773" yMax="1783">
      <contour>
        <pt x="502" y="1381" on="1"/>
        <pt x="310" y="1381" on="0"/>
        <pt x="309" y="1191" on="1"/>
        <pt x="309" y="0" on="1"/>
        <pt x="160" y="0" on="1"/>
        <pt x="160" y="1783" on="1"/>
        <pt x="309" y="1783" on="1"/>
        <pt x="309" y="1353" on="1"/>
        <pt x="329" y="1420" on="0"/>
        <pt x="468" y="1519" on="0"/>
        <pt x="654" y="1519" on="0"/>
        <pt x="773" y="1365" on="0"/>
        <pt x="773" y="1211" on="1"/>
        <pt x="773" y="0" on="1"/>
        <pt x="623" y="0" on="1"/>
        <pt x="623" y="1201" on="1"/>
        <pt x="623" y="1303" on="0"/>
        <pt x="552" y="1381" on="0"/>
      </contour>
    </TTGlyph>
    <TTGlyph name="hbar" xMin="0" yMin="0" xMax="773" yMax="1783">
      <contour>
        <pt x="502" y="1381" on="1"/>
        <pt x="310" y="1381" on="0"/>
        <pt x="309" y="1191" on="1"/>
        <pt x="309" y="0" on="1"/>
        <pt x="160" y="0" on="1"/>
        <pt x="160" y="1561" on="1"/>
        <pt x="0" y="1561" on="1"/>
        <pt x="0" y="1682" on="1"/>
        <pt x="160" y="1682" on="1"/>
        <pt x="160" y="1783" on="1"/>
        <pt x="309" y="1783" on="1"/>
        <pt x="309" y="1682" on="1"/>
        <pt x="465" y="1682" on="1"/>
        <pt x="465" y="1561" on="1"/>
        <pt x="309" y="1561" on="1"/>
        <pt x="309" y="1353" on="1"/>
        <pt x="329" y="1420" on="0"/>
        <pt x="468" y="1519" on="0"/>
        <pt x="654" y="1519" on="0"/>
        <pt x="773" y="1365" on="0"/>
        <pt x="773" y="1211" on="1"/>
        <pt x="773" y="0" on="1"/>
        <pt x="623" y="0" on="1"/>
        <pt x="623" y="1201" on="1"/>
        <pt x="623" y="1303" on="0"/>
        <pt x="552" y="1381" on="0"/>
      </contour>
    </TTGlyph>
    <TTGlyph name="hcircumflex" xMin="160" yMin="0" xMax="773" yMax="2094">
      <component glyphName="h" x="0" y="0" flags="0x1004"/>
      <component glyphName="circumflex" x="-22" y="263" flags="0x1004"/>
    </TTGlyph>
    <TTGlyph name="hungarumlaut" xMin="452" yMin="0" xMax="1034" yMax="431">
      <contour>
        <pt x="452" y="40" on="1"/>
        <pt x="559" y="431" on="1"/>
        <pt x="723" y="353" on="1"/>
        <pt x="521" y="11" on="1"/>
      </contour>
      <contour>
        <pt x="703" y="40" on="1"/>
        <pt x="867" y="431" on="1"/>
        <pt x="1034" y="342" on="1"/>
        <pt x="771" y="0" on="1"/>
      </contour>
    </TTGlyph>
    <TTGlyph name="hyphen" xMin="88" yMin="858" xMax="516" yMax="958">
      <contour>
        <pt x="88" y="958" on="1"/>
        <pt x="516" y="958" on="1"/>
        <pt x="516" y="858" on="1"/>
        <pt x="88" y="858" on="1"/>
      </contour>
    </TTGlyph>
    <TTGlyph name="i" xMin="162" yMin="0" xMax="312" yMax="1782">
      <contour>
        <pt x="162" y="1500" on="1"/>
        <pt x="312" y="1500" on="1"/>
        <pt x="312" y="0" on="1"/>
        <pt x="162" y="0" on="1"/>
      </contour>
      <contour>
        <pt x="162" y="1782" on="1"/>
        <pt x="311" y="1782" on="1"/>
        <pt x="311" y="1638" on="1"/>
        <pt x="162" y="1638" on="1"/>
      </contour>
    </TTGlyph>
    <TTGlyph name="iacute" xMin="53" yMin="0" xMax="451" yMax="1861">
      <component glyphName="dotlessi" x="0" y="0" flags="0x1004"/>
      <component glyphName="acute" x="-47" y="-286" flags="0x1004"/>
    </TTGlyph>
    <TTGlyph name="ibreve" xMin="34" yMin="0" xMax="415" yMax="1823">
      <component glyphName="breve" x="-281" y="0" flags="0x1004"/>
      <component glyphName="dotlessi" x="0" y="0" flags="0x1004"/>
    </TTGlyph>
    <TTGlyph name="icircumflex" xMin="23" yMin="0" xMax="430" yMax="1831">
      <component glyphName="dotlessi" x="0" y="0" flags="0x1004"/>
      <component glyphName="circumflex" x="-258" y="0" flags="0x1004"/>
    </TTGlyph>
    <TTGlyph name="idieresis" xMin="-106" yMin="0" xMax="506" yMax="1745">
      <component glyphName="dotlessi" x="0" y="0" flags="0x1004"/>
      <component glyphName="dieresis" x="-261" y="1650" flags="0x1004"/>
    </TTGlyph>
    <TTGlyph name="igrave" xMin="65" yMin="0" xMax="397" yMax="1824">
      <component glyphName="grave" x="-71" y="1650" flags="0x1004"/>
      <component glyphName="dotlessi" x="0" y="0" flags="0x1004"/>
    </TTGlyph>
    <TTGlyph name="ij" xMin="162" yMin="-224" xMax="818" yMax="1782">
      <component glyphName="j" x="474" y="0" flags="0x1004"/>
      <component glyphName="i" x="0" y="0" flags="0x1004"/>
    </TTGlyph>
    <TTGlyph name="imacron" xMin="-31" yMin="0" xMax="464" yMax="1693">
      <component glyphName="macron" x="-121" y="1650" flags="0x1004"/>
      <component glyphName="dotlessi" x="0" y="0" flags="0x1004"/>
    </TTGlyph>
    <TTGlyph name="infinity" xMin="88" yMin="439" xMax="1202" yMax="1041">
      <contour>
        <pt x="1074" y="667" on="0"/>
        <pt x="1074" y="813" on="0"/>
        <pt x="984" y="902" on="0"/>
        <pt x="858" y="902" on="0"/>
        <pt x="733" y="813" on="0"/>
        <pt x="683" y="740" on="1"/>
        <pt x="729" y="667" on="0"/>
        <pt x="854" y="578" on="0"/>
        <pt x="984" y="578" on="0"/>
      </contour>
      <contour>
        <pt x="588" y="740" on="1"/>
        <pt x="454" y="880" on="0"/>
        <pt x="364" y="901" on="1"/>
        <pt x="304" y="901" on="0"/>
        <pt x="218" y="813" on="0"/>
        <pt x="218" y="667" on="0"/>
        <pt x="304" y="578" on="0"/>
        <pt x="424" y="578" on="0"/>
        <pt x="542" y="667" on="0"/>
      </contour>
      <contour>
        <pt x="639" y="855" on="1"/>
        <pt x="706" y="939" on="0"/>
        <pt x="856" y="1041" on="0"/>
        <pt x="912" y="1041" on="1"/>
        <pt x="1042" y="1041" on="0"/>
        <pt x="1202" y="878" on="0"/>
        <pt x="1202" y="606" on="0"/>
        <pt x="1042" y="439" on="0"/>
        <pt x="912" y="439" on="1"/>
        <pt x="851" y="439" on="0"/>
        <pt x="701" y="536" on="0"/>
        <pt x="639" y="615" on="1"/>
        <pt x="574" y="541" on="0"/>
        <pt x="426" y="452" on="0"/>
        <pt x="370" y="452" on="1"/>
        <pt x="243" y="452" on="0"/>
        <pt x="88" y="612" on="0"/>
        <pt x="88" y="872" on="0"/>
        <pt x="243" y="1028" on="0"/>
        <pt x="370" y="1028" on="1"/>
        <pt x="422" y="1028" on="0"/>
        <pt x="569" y="933" on="0"/>
      </contour>
    </TTGlyph>
    <TTGlyph name="integral" xMin="115" yMin="-12" xMax="652" yMax="1787">
      <contour>
        <pt x="316" y="1539" on="1"/>
        <pt x="316" y="1787" on="0"/>
        <pt x="496" y="1787" on="1"/>
        <pt x="558" y="1787" on="0"/>
        <pt x="652" y="1752" on="1"/>
        <pt x="652" y="1630" on="1"/>
        <pt x="575" y="1654" on="0"/>
        <pt x="491" y="1654" on="0"/>
        <pt x="453" y="1592" on="0"/>
        <pt x="453" y="1521" on="1"/>
        <pt x="453" y="221" on="1"/>
        <pt x="453" y="-12" on="0"/>
        <pt x="252" y="-12" on="1"/>
        <pt x="194" y="-12" on="0"/>
        <pt x="115" y="8" on="1"/>
        <pt x="115" y="130" on="1"/>
        <pt x="155" y="128" on="0"/>
        <pt x="170" y="128" on="1"/>
        <pt x="264" y="128" on="0"/>
        <pt x="316" y="194" on="0"/>
        <pt x="316" y="305" on="1"/>
      </contour>
    </TTGlyph>
    <TTGlyph name="iogonek" xMin="59" yMin="-421" xMax="380" yMax="1728">
      <component glyphName="dotaccent" x="-59" y="1650" flags="0x1004"/>
      <component glyphName="ogonek" x="-432" y="10" flags="0x1004"/>
      <component glyphName="dotlessi" x="0" y="0" flags="0x1004"/>
    </TTGlyph>
    <TTGlyph name="itilde" xMin="-65" yMin="0" xMax="518" yMax="1820">
      <component glyphName="tilde" x="-331" y="1650" flags="0x1004"/>
      <component glyphName="dotlessi" x="0" y="0" flags="0x1004"/>
    </TTGlyph>
    <TTGlyph name="j" xMin="86" yMin="-224" xMax="344" yMax="1782">
      <contour>
        <pt x="195" y="1782" on="1"/>
        <pt x="344" y="1782" on="1"/>
        <pt x="344" y="1638" on="1"/>
        <pt x="195" y="1638" on="1"/>
      </contour>
      <contour>
        <pt x="292" y="-185" on="1"/>
        <pt x="270" y="-203" on="0"/>
        <pt x="224" y="-224" on="0"/>
        <pt x="120" y="-224" on="0"/>
        <pt x="90" y="-218" on="1"/>
        <pt x="86" y="-218" on="1"/>
        <pt x="86" y="-110" on="1"/>
        <pt x="106" y="-114" on="0"/>
        <pt x="142" y="-114" on="0"/>
        <pt x="158" y="-111" on="1"/>
        <pt x="194" y="-105" on="0"/>
        <pt x="194" y="-44" on="1"/>
        <pt x="194" y="1500" on="1"/>
        <pt x="343" y="1500" on="1"/>
        <pt x="343" y="-34" on="1"/>
        <pt x="342" y="-145" on="0"/>
      </contour>
    </TTGlyph>
    <TTGlyph name="jcircumflex" xMin="86" yMin="-157" xMax="493" yMax="1831">
      <component glyphName="uni0237" x="0" y="0" flags="0x1004"/>
      <component glyphName="circumflex" x="-195" y="0" flags="0x1004"/>
    </TTGlyph>
    <TTGlyph name="k" xMin="161" yMin="0" xMax="808" yMax="1783">
      <contour>
        <pt x="161" y="1783" on="1"/>
        <pt x="310" y="1783" on="1"/>
        <pt x="310" y="760" on="1"/>
        <pt x="641" y="1500" on="1"/>
        <pt x="790" y="1500" on="1"/>
        <pt x="449" y="756" on="1"/>
        <pt x="808" y="0" on="1"/>
        <pt x="652" y="0" on="1"/>
        <pt x="310" y="742" on="1"/>
        <pt x="310" y="0" on="1"/>
        <pt x="161" y="0" on="1"/>
      </contour>
    </TTGlyph>
    <TTGlyph name="kcommaaccent" xMin="161" yMin="-612" xMax="808" yMax="1783">
      <component glyphName="uni0326" x="144" y="-389" flags="0x1004"/>
      <component glyphName="k" x="0" y="0" flags="0x1004"/>
    </TTGlyph>
    <TTGlyph name="kgreenlandic" xMin="161" yMin="0" xMax="808" yMax="1500">
      <contour>
        <pt x="161" y="1500" on="1"/>
        <pt x="310" y="1500" on="1"/>
        <pt x="310" y="760" on="1"/>
        <pt x="641" y="1500" on="1"/>
        <pt x="790" y="1500" on="1"/>
        <pt x="449" y="756" on="1"/>
        <pt x="808" y="0" on="1"/>
        <pt x="652" y="0" on="1"/>
        <pt x="310" y="742" on="1"/>
        <pt x="310" y="0" on="1"/>
        <pt x="161" y="0" on="1"/>
      </contour>
    </TTGlyph>
    <TTGlyph name="l" xMin="160" yMin="0" xMax="310" yMax="1783">
      <contour>
        <pt x="160" y="1783" on="1"/>
        <pt x="310" y="1783" on="1"/>
        <pt x="310" y="0" on="1"/>
        <pt x="160" y="0" on="1"/>
      </contour>
    </TTGlyph>
    <TTGlyph name="lacute" xMin="61" yMin="0" xMax="459" yMax="2121">
      <component glyphName="l" x="0" y="0" flags="0x1004"/>
      <component glyphName="acute" x="-39" y="-26" flags="0x1004"/>
    </TTGlyph>
    <TTGlyph name="lcaron" xMin="160" yMin="0" xMax="802" yMax="1807">
      <component glyphName="quoteright" x="342" y="24" flags="0x1004"/>
      <component glyphName="l" x="0" y="0" flags="0x1004"/>
    </TTGlyph>
    <TTGlyph name="lcommaaccent" xMin="147" yMin="-612" xMax="344" yMax="1783">
      <component glyphName="uni0326" x="-21" y="-389" flags="0x1004"/>
      <component glyphName="l" x="0" y="0" flags="0x1004"/>
    </TTGlyph>
    <TTGlyph name="ldot" xMin="160" yMin="0" xMax="675" yMax="1783">
      <component glyphName="periodcentered" x="342" y="33" flags="0x1004"/>
      <component glyphName="l" x="0" y="0" flags="0x1004"/>
    </TTGlyph>
    <TTGlyph name="less" xMin="63" yMin="288" xMax="642" yMax="1219">
      <contour>
        <pt x="63" y="823" on="1"/>
        <pt x="642" y="1219" on="1"/>
        <pt x="642" y="1051" on="1"/>
        <pt x="174" y="758" on="1"/>
        <pt x="642" y="448" on="1"/>
        <pt x="642" y="288" on="1"/>
        <pt x="63" y="688" on="1"/>
      </contour>
    </TTGlyph>
    <TTGlyph name="lessequal" xMin="59" yMin="0" xMax="642" yMax="1209">
      <contour>
        <pt x="93" y="111" on="1"/>
        <pt x="642" y="111" on="1"/>
        <pt x="642" y="0" on="1"/>
        <pt x="93" y="0" on="1"/>
      </contour>
      <contour>
        <pt x="59" y="813" on="1"/>
        <pt x="638" y="1209" on="1"/>
        <pt x="638" y="1042" on="1"/>
        <pt x="171" y="749" on="1"/>
        <pt x="638" y="439" on="1"/>
        <pt x="638" y="279" on="1"/>
        <pt x="59" y="679" on="1"/>
      </contour>
    </TTGlyph>
    <TTGlyph name="logicalnot" xMin="97" yMin="439" xMax="826" yMax="858">
      <contour>
        <pt x="97" y="858" on="1"/>
        <pt x="826" y="858" on="1"/>
        <pt x="826" y="439" on="1"/>
        <pt x="701" y="439" on="1"/>
        <pt x="701" y="743" on="1"/>
        <pt x="97" y="743" on="1"/>
      </contour>
    </TTGlyph>
    <TTGlyph name="lozenge" xMin="114" yMin="0" xMax="807" yMax="1762">
      <contour>
        <pt x="659" y="883" on="1"/>
        <pt x="465" y="1623" on="1"/>
        <pt x="453" y="1623" on="1"/>
        <pt x="259" y="883" on="1"/>
        <pt x="453" y="129" on="1"/>
        <pt x="465" y="129" on="1"/>
      </contour>
      <contour>
        <pt x="367" y="1762" on="1"/>
        <pt x="558" y="1762" on="1"/>
        <pt x="807" y="883" on="1"/>
        <pt x="558" y="0" on="1"/>
        <pt x="367" y="0" on="1"/>
        <pt x="114" y="883" on="1"/>
      </contour>
    </TTGlyph>
    <TTGlyph name="lslash" xMin="99" yMin="0" xMax="610" yMax="1783">
      <contour>
        <pt x="254" y="1783" on="1"/>
        <pt x="404" y="1783" on="1"/>
        <pt x="404" y="1059" on="1"/>
        <pt x="610" y="1153" on="1"/>
        <pt x="610" y="1010" on="1"/>
        <pt x="404" y="916" on="1"/>
        <pt x="404" y="0" on="1"/>
        <pt x="254" y="0" on="1"/>
        <pt x="254" y="848" on="1"/>
        <pt x="99" y="778" on="1"/>
        <pt x="99" y="921" on="1"/>
        <pt x="254" y="991" on="1"/>
      </contour>
    </TTGlyph>
    <TTGlyph name="m" xMin="160" yMin="0" xMax="1212" yMax="1519">
      <contour>
        <pt x="1062" y="1226" on="1"/>
        <pt x="1062" y="1381" on="0"/>
        <pt x="925" y="1381" on="1"/>
        <pt x="810" y="1381" on="0"/>
        <pt x="778" y="1314" on="1"/>
        <pt x="764" y="1284" on="0"/>
        <pt x="760" y="1239" on="1"/>
        <pt x="760" y="0" on="1"/>
        <pt x="611" y="0" on="1"/>
        <pt x="611" y="1226" on="1"/>
        <pt x="611" y="1312" on="0"/>
        <pt x="540" y="1381" on="0"/>
        <pt x="395" y="1381" on="0"/>
        <pt x="309" y="1294" on="0"/>
        <pt x="309" y="1209" on="1"/>
        <pt x="309" y="0" on="1"/>
        <pt x="160" y="0" on="1"/>
        <pt x="160" y="1500" on="1"/>
        <pt x="309" y="1500" on="1"/>
        <pt x="309" y="1351" on="1"/>
        <pt x="329" y="1419" on="0"/>
        <pt x="456" y="1519" on="0"/>
        <pt x="538" y="1519" on="1"/>
        <pt x="688" y="1519" on="0"/>
        <pt x="739" y="1367" on="1"/>
        <pt x="776" y="1435" on="0"/>
        <pt x="912" y="1519" on="0"/>
        <pt x="1092" y="1519" on="0"/>
        <pt x="1212" y="1369" on="0"/>
        <pt x="1212" y="1217" on="1"/>
        <pt x="1212" y="0" on="1"/>
        <pt x="1062" y="0" on="1"/>
      </contour>
    </TTGlyph>
    <TTGlyph name="macron" xMin="90" yMin="-70" xMax="585" yMax="43">
      <contour>
        <pt x="90" y="43" on="1"/>
        <pt x="585" y="43" on="1"/>
        <pt x="585" y="-70" on="1"/>
        <pt x="90" y="-70" on="1"/>
      </contour>
    </TTGlyph>
    <TTGlyph name="minus" xMin="20" yMin="626" xMax="616" yMax="741">
      <contour>
        <pt x="20" y="741" on="1"/>
        <pt x="616" y="741" on="1"/>
        <pt x="616" y="626" on="1"/>
        <pt x="20" y="626" on="1"/>
      </contour>
    </TTGlyph>
    <TTGlyph name="multiply" xMin="84" yMin="394" xMax="626" yMax="936">
      <contour>
        <pt x="542" y="936" on="1"/>
        <pt x="626" y="852" on="1"/>
        <pt x="438" y="665" on="1"/>
        <pt x="626" y="478" on="1"/>
        <pt x="542" y="394" on="1"/>
        <pt x="355" y="582" on="1"/>
        <pt x="168" y="394" on="1"/>
        <pt x="84" y="478" on="1"/>
        <pt x="272" y="665" on="1"/>
        <pt x="84" y="852" on="1"/>
        <pt x="168" y="936" on="1"/>
        <pt x="355" y="748" on="1"/>
      </contour>
    </TTGlyph>
    <TTGlyph name="n" xMin="160" yMin="0" xMax="772" yMax="1519">
      <contour>
        <pt x="309" y="1353" on="1"/>
        <pt x="329" y="1420" on="0"/>
        <pt x="466" y="1519" on="0"/>
        <pt x="652" y="1519" on="0"/>
        <pt x="772" y="1365" on="0"/>
        <pt x="772" y="1211" on="1"/>
        <pt x="772" y="0" on="1"/>
        <pt x="623" y="0" on="1"/>
        <pt x="623" y="1223" on="1"/>
        <pt x="623" y="1310" on="0"/>
        <pt x="544" y="1387" on="0"/>
        <pt x="478" y="1387" on="1"/>
        <pt x="309" y="1387" on="0"/>
        <pt x="309" y="1220" on="1"/>
        <pt x="309" y="0" on="1"/>
        <pt x="160" y="0" on="1"/>
        <pt x="160" y="1500" on="1"/>
        <pt x="309" y="1500" on="1"/>
      </contour>
    </TTGlyph>
    <TTGlyph name="nacute" xMin="160" yMin="0" xMax="772" yMax="1861">
      <component glyphName="acute" x="187" y="-286" flags="0x1004"/>
      <component glyphName="n" x="0" y="0" flags="0x1004"/>
    </TTGlyph>
    <TTGlyph name="ncaron" xMin="160" yMin="0" xMax="772" yMax="1830">
      <component glyphName="caron" x="-24" y="0" flags="0x1004"/>
      <component glyphName="n" x="0" y="0" flags="0x1004"/>
    </TTGlyph>
    <TTGlyph name="ncommaaccent" xMin="160" yMin="-612" xMax="772" yMax="1519">
      <component glyphName="uni0326" x="205" y="-389" flags="0x1004"/>
      <component glyphName="n" x="0" y="0" flags="0x1004"/>
    </TTGlyph>
    <TTGlyph name="nine" xMin="87" yMin="-20" xMax="672" yMax="1780">
      <contour>
        <pt x="522" y="1255" on="1"/>
        <pt x="522" y="1484" on="0"/>
        <pt x="477" y="1624" on="0"/>
        <pt x="436" y="1642" on="1"/>
        <pt x="412" y="1652" on="0"/>
        <pt x="380" y="1653" on="1"/>
        <pt x="312" y="1653" on="0"/>
        <pt x="252" y="1556" on="0"/>
        <pt x="237" y="1390" on="0"/>
        <pt x="237" y="1257" on="1"/>
        <pt x="237" y="1208" on="1"/>
        <pt x="237" y="942" on="0"/>
        <pt x="283" y="800" on="0"/>
        <pt x="328" y="784" on="1"/>
        <pt x="352" y="776" on="0"/>
        <pt x="462" y="776" on="0"/>
        <pt x="522" y="803" on="1"/>
      </contour>
      <contour>
        <pt x="87" y="1252" on="1"/>
        <pt x="87" y="1468" on="0"/>
        <pt x="116" y="1587" on="0"/>
        <pt x="152" y="1691" on="0"/>
        <pt x="274" y="1780" on="0"/>
        <pt x="513" y="1780" on="0"/>
        <pt x="653" y="1624" on="0"/>
        <pt x="666" y="1443" on="1"/>
        <pt x="672" y="1362" on="0"/>
        <pt x="672" y="1254" on="1"/>
        <pt x="672" y="542" on="1"/>
        <pt x="672" y="265" on="0"/>
        <pt x="613" y="65" on="0"/>
        <pt x="496" y="-20" on="0"/>
        <pt x="331" y="-20" on="0"/>
        <pt x="285" y="0" on="1"/>
        <pt x="194" y="39" on="0"/>
        <pt x="127" y="280" on="0"/>
        <pt x="127" y="508" on="1"/>
        <pt x="270" y="508" on="1"/>
        <pt x="270" y="483" on="1"/>
        <pt x="273" y="229" on="0"/>
        <pt x="314" y="119" on="0"/>
        <pt x="357" y="108" on="1"/>
        <pt x="377" y="103" on="0"/>
        <pt x="409" y="103" on="1"/>
        <pt x="480" y="103" on="0"/>
        <pt x="522" y="213" on="0"/>
        <pt x="522" y="371" on="1"/>
        <pt x="522" y="712" on="1"/>
        <pt x="471" y="662" on="0"/>
        <pt x="300" y="662" on="0"/>
        <pt x="249" y="686" on="1"/>
        <pt x="150" y="734" on="0"/>
        <pt x="87" y="996" on="0"/>
        <pt x="87" y="1226" on="1"/>
      </contour>
    </TTGlyph>
    <TTGlyph name="notequal" xMin="88" yMin="0" xMax="673" yMax="1768">
      <component glyphName="equal" x="20" y="0" flags="0x1004"/>
      <component glyphName="slash" x="0" y="0" flags="0x1004"/>
    </TTGlyph>
    <TTGlyph name="ntilde" xMin="160" yMin="0" xMax="772" yMax="1820">
      <component glyphName="tilde" x="-97" y="1650" flags="0x1004"/>
      <component glyphName="n" x="0" y="0" flags="0x1004"/>
    </TTGlyph>
    <TTGlyph name="numbersign" xMin="181" yMin="0" xMax="1079" yMax="1761">
      <contour>
        <pt x="713" y="765" on="1"/>
        <pt x="766" y="1035" on="1"/>
        <pt x="547" y="1035" on="1"/>
        <pt x="493" y="765" on="1"/>
      </contour>
      <contour>
        <pt x="909" y="1761" on="1"/>
        <pt x="1039" y="1761" on="1"/>
        <pt x="916" y="1138" on="1"/>
        <pt x="1079" y="1138" on="1"/>
        <pt x="1079" y="1041" on="1"/>
        <pt x="896" y="1041" on="1"/>
        <pt x="842" y="767" on="1"/>
        <pt x="1036" y="767" on="1"/>
        <pt x="1036" y="670" on="1"/>
        <pt x="823" y="670" on="1"/>
        <pt x="690" y="0" on="1"/>
        <pt x="561" y="0" on="1"/>
        <pt x="691" y="670" on="1"/>
        <pt x="475" y="670" on="1"/>
        <pt x="344" y="0" on="1"/>
        <pt x="215" y="0" on="1"/>
        <pt x="347" y="670" on="1"/>
        <pt x="181" y="670" on="1"/>
        <pt x="181" y="767" on="1"/>
        <pt x="367" y="767" on="1"/>
        <pt x="421" y="1041" on="1"/>
        <pt x="224" y="1041" on="1"/>
        <pt x="224" y="1138" on="1"/>
        <pt x="440" y="1138" on="1"/>
        <pt x="563" y="1761" on="1"/>
        <pt x="693" y="1761" on="1"/>
        <pt x="568" y="1138" on="1"/>
        <pt x="784" y="1138" on="1"/>
      </contour>
    </TTGlyph>
    <TTGlyph name="o" xMin="128" yMin="-18" xMax="717" yMax="1518">
      <contour>
        <pt x="568" y="1053" on="1"/>
        <pt x="568" y="1311" on="0"/>
        <pt x="500" y="1364" on="1"/>
        <pt x="470" y="1387" on="0"/>
        <pt x="428" y="1387" on="1"/>
        <pt x="314" y="1387" on="0"/>
        <pt x="292" y="1260" on="1"/>
        <pt x="277" y="1181" on="0"/>
        <pt x="277" y="1053" on="1"/>
        <pt x="277" y="463" on="1"/>
        <pt x="277" y="242" on="0"/>
        <pt x="352" y="113" on="0"/>
        <pt x="516" y="113" on="0"/>
        <pt x="568" y="296" on="0"/>
        <pt x="568" y="463" on="1"/>
      </contour>
      <contour>
        <pt x="128" y="1018" on="1"/>
        <pt x="128" y="1278" on="0"/>
        <pt x="226" y="1474" on="0"/>
        <pt x="310" y="1502" on="1"/>
        <pt x="360" y="1518" on="0"/>
        <pt x="422" y="1518" on="1"/>
        <pt x="675" y="1518" on="0"/>
        <pt x="706" y="1243" on="1"/>
        <pt x="717" y="1149" on="0"/>
        <pt x="717" y="1018" on="1"/>
        <pt x="717" y="515" on="1"/>
        <pt x="717" y="338" on="0"/>
        <pt x="702" y="234" on="0"/>
        <pt x="695" y="196" on="1"/>
        <pt x="655" y="-18" on="0"/>
        <pt x="417" y="-18" on="1"/>
        <pt x="320" y="-18" on="0"/>
        <pt x="262" y="22" on="1"/>
        <pt x="152" y="98" on="0"/>
        <pt x="135" y="301" on="1"/>
        <pt x="128" y="391" on="0"/>
        <pt x="128" y="515" on="1"/>
      </contour>
    </TTGlyph>
    <TTGlyph name="oacute" xMin="128" yMin="-18" xMax="717" yMax="1861">
      <component glyphName="o" x="0" y="0" flags="0x1004"/>
      <component glyphName="acute" x="158" y="-286" flags="0x1004"/>
    </TTGlyph>
    <TTGlyph name="obreve" xMin="128" yMin="-18" xMax="717" yMax="1823">
      <component glyphName="breve" x="-85" y="0" flags="0x1004"/>
      <component glyphName="o" x="0" y="0" flags="0x1004"/>
    </TTGlyph>
    <TTGlyph name="ocircumflex" xMin="128" yMin="-18" xMax="717" yMax="1831">
      <component glyphName="o" x="0" y="0" flags="0x1004"/>
      <component glyphName="circumflex" x="-54" y="0" flags="0x1004"/>
    </TTGlyph>
    <TTGlyph name="odieresis" xMin="98" yMin="-18" xMax="717" yMax="1745">
      <component glyphName="o" x="0" y="0" flags="0x1004"/>
      <component glyphName="dieresis" x="-57" y="1650" flags="0x1004"/>
    </TTGlyph>
    <TTGlyph name="oe" xMin="128" yMin="-18" xMax="1137" yMax="1518">
      <contour>
        <pt x="988" y="874" on="1"/>
        <pt x="988" y="1138" on="1"/>
        <pt x="988" y="1271" on="0"/>
        <pt x="968" y="1320" on="0"/>
        <pt x="954" y="1354" on="0"/>
        <pt x="907" y="1387" on="0"/>
        <pt x="867" y="1387" on="1"/>
        <pt x="758" y="1387" on="0"/>
        <pt x="733" y="1266" on="1"/>
        <pt x="717" y="1189" on="0"/>
        <pt x="717" y="1063" on="1"/>
        <pt x="717" y="874" on="1"/>
      </contour>
      <contour>
        <pt x="567" y="1053" on="1"/>
        <pt x="567" y="1258" on="0"/>
        <pt x="496" y="1388" on="0"/>
        <pt x="358" y="1388" on="0"/>
        <pt x="277" y="1274" on="0"/>
        <pt x="277" y="1053" on="1"/>
        <pt x="277" y="463" on="1"/>
        <pt x="277" y="243" on="0"/>
        <pt x="350" y="113" on="0"/>
        <pt x="425" y="113" on="1"/>
        <pt x="552" y="113" on="0"/>
        <pt x="564" y="345" on="1"/>
        <pt x="566" y="393" on="0"/>
        <pt x="567" y="463" on="1"/>
      </contour>
      <contour>
        <pt x="643" y="1396" on="1"/>
        <pt x="720" y="1518" on="0"/>
        <pt x="1000" y="1518" on="0"/>
        <pt x="1054" y="1447" on="1"/>
        <pt x="1084" y="1408" on="0"/>
        <pt x="1102" y="1370" on="1"/>
        <pt x="1137" y="1296" on="0"/>
        <pt x="1137" y="1018" on="1"/>
        <pt x="1137" y="1010" on="0"/>
        <pt x="1137" y="1002" on="1"/>
        <pt x="1137" y="754" on="1"/>
        <pt x="716" y="754" on="1"/>
        <pt x="716" y="450" on="1"/>
        <pt x="716" y="217" on="0"/>
        <pt x="786" y="113" on="0"/>
        <pt x="920" y="113" on="0"/>
        <pt x="975" y="197" on="0"/>
        <pt x="987" y="326" on="0"/>
        <pt x="987" y="439" on="1"/>
        <pt x="987" y="556" on="1"/>
        <pt x="1132" y="556" on="1"/>
        <pt x="1132" y="505" on="1"/>
        <pt x="1132" y="284" on="0"/>
        <pt x="1117" y="201" on="1"/>
        <pt x="1091" y="53" on="0"/>
        <pt x="992" y="7" on="1"/>
        <pt x="939" y="-18" on="0"/>
        <pt x="859" y="-18" on="1"/>
        <pt x="711" y="-18" on="0"/>
        <pt x="636" y="106" on="1"/>
        <pt x="562" y="-18" on="0"/>
        <pt x="425" y="-18" on="1"/>
        <pt x="255" y="-18" on="0"/>
        <pt x="192" y="94" on="1"/>
        <pt x="150" y="170" on="0"/>
        <pt x="128" y="372" on="0"/>
        <pt x="128" y="515" on="1"/>
        <pt x="128" y="1018" on="1"/>
        <pt x="128" y="1280" on="0"/>
        <pt x="226" y="1474" on="0"/>
        <pt x="310" y="1502" on="1"/>
        <pt x="360" y="1518" on="0"/>
        <pt x="425" y="1518" on="1"/>
        <pt x="571" y="1518" on="0"/>
      </contour>
    </TTGlyph>
    <TTGlyph name="ogonek" xMin="491" yMin="-431" xMax="812" yMax="0">
      <contour>
        <pt x="812" y="-411" on="1"/>
        <pt x="768" y="-431" on="0"/>
        <pt x="684" y="-431" on="1"/>
        <pt x="491" y="-431" on="0"/>
        <pt x="491" y="-286" on="1"/>
        <pt x="491" y="-216" on="0"/>
        <pt x="579" y="-66" on="0"/>
        <pt x="667" y="0" on="1"/>
        <pt x="731" y="0" on="1"/>
        <pt x="658" y="-62" on="0"/>
        <pt x="585" y="-197" on="0"/>
        <pt x="585" y="-252" on="1"/>
        <pt x="585" y="-339" on="0"/>
        <pt x="693" y="-339" on="1"/>
        <pt x="745" y="-339" on="0"/>
        <pt x="811" y="-319" on="0"/>
        <pt x="812" y="-318" on="1"/>
      </contour>
    </TTGlyph>
    <TTGlyph name="ograve" xMin="128" yMin="-18" xMax="717" yMax="1824">
      <component glyphName="grave" x="125" y="1650" flags="0x1004"/>
      <component glyphName="o" x="0" y="0" flags="0x1004"/>
    </TTGlyph>
    <TTGlyph name="ohungarumlaut" xMin="128" yMin="-18" xMax="804" yMax="2081">
      <component glyphName="o" x="0" y="0" flags="0x1004"/>
      <component glyphName="hungarumlaut" x="-230" y="1650" flags="0x1004"/>
    </TTGlyph>
    <TTGlyph name="omacron" xMin="128" yMin="-18" xMax="717" yMax="1755">
      <component glyphName="uni02C9" x="78" y="1014" flags="0x1004"/>
      <component glyphName="o" x="0" y="0" flags="0x1204"/>
    </TTGlyph>
    <TTGlyph name="one" xMin="36" yMin="0" xMax="403" yMax="1761">
      <contour>
        <pt x="314" y="1761" on="1"/>
        <pt x="403" y="1761" on="1"/>
        <pt x="403" y="0" on="1"/>
        <pt x="254" y="0" on="1"/>
        <pt x="254" y="1534" on="1"/>
        <pt x="220" y="1493" on="0"/>
        <pt x="96" y="1448" on="0"/>
        <pt x="36" y="1448" on="1"/>
        <pt x="36" y="1541" on="1"/>
        <pt x="121" y="1553" on="0"/>
        <pt x="274" y="1667" on="0"/>
      </contour>
    </TTGlyph>
    <TTGlyph name="onehalf" xMin="100" yMin="0" xMax="1543" yMax="1774">
      <contour>
        <pt x="1377" y="724" on="1"/>
        <pt x="1431" y="836" on="0"/>
        <pt x="1431" y="1030" on="1"/>
        <pt x="1431" y="1118" on="0"/>
        <pt x="1405" y="1239" on="0"/>
        <pt x="1369" y="1273" on="0"/>
        <pt x="1344" y="1273" on="1"/>
        <pt x="1299" y="1273" on="0"/>
        <pt x="1244" y="1171" on="0"/>
        <pt x="1244" y="1001" on="1"/>
        <pt x="1244" y="821" on="1"/>
        <pt x="1127" y="821" on="1"/>
        <pt x="1127" y="904" on="1"/>
        <pt x="1128" y="1198" on="0"/>
        <pt x="1170" y="1274" on="1"/>
        <pt x="1225" y="1372" on="0"/>
        <pt x="1440" y="1372" on="0"/>
        <pt x="1521" y="1252" on="0"/>
        <pt x="1543" y="1096" on="0"/>
        <pt x="1543" y="897" on="0"/>
        <pt x="1488" y="702" on="0"/>
        <pt x="1407" y="537" on="0"/>
        <pt x="1365" y="456" on="1"/>
        <pt x="1261" y="256" on="0"/>
        <pt x="1245" y="82" on="1"/>
        <pt x="1523" y="82" on="1"/>
        <pt x="1523" y="1" on="1"/>
        <pt x="1131" y="1" on="1"/>
        <pt x="1131" y="74" on="1"/>
        <pt x="1131" y="131" on="0"/>
        <pt x="1331" y="609" on="1"/>
        <pt x="1377" y="719" on="0"/>
        <pt x="1377" y="724" on="1"/>
        <pt x="1377" y="724" on="0"/>
      </contour>
      <contour>
        <pt x="312" y="1774" on="1"/>
        <pt x="383" y="1774" on="1"/>
        <pt x="383" y="416" on="1"/>
        <pt x="267" y="416" on="1"/>
        <pt x="267" y="1597" on="1"/>
        <pt x="242" y="1565" on="0"/>
        <pt x="146" y="1529" on="0"/>
        <pt x="100" y="1529" on="1"/>
        <pt x="100" y="1604" on="1"/>
        <pt x="165" y="1614" on="0"/>
        <pt x="279" y="1700" on="0"/>
      </contour>
      <contour>
        <pt x="948" y="1768" on="1"/>
        <pt x="1068" y="1768" on="1"/>
        <pt x="607" y="0" on="1"/>
        <pt x="489" y="0" on="1"/>
      </contour>
    </TTGlyph>
    <TTGlyph name="onequarter" xMin="100" yMin="0" xMax="1393" yMax="1774">
      <contour>
        <pt x="1192" y="1224" on="1"/>
        <pt x="1284" y="1224" on="1"/>
        <pt x="1284" y="326" on="1"/>
        <pt x="1393" y="326" on="1"/>
        <pt x="1393" y="244" on="1"/>
        <pt x="1284" y="244" on="1"/>
        <pt x="1284" y="0" on="1"/>
        <pt x="1188" y="0" on="1"/>
        <pt x="1188" y="244" on="1"/>
        <pt x="916" y="244" on="1"/>
        <pt x="916" y="314" on="1"/>
      </contour>
      <contour>
        <pt x="1188" y="326" on="1"/>
        <pt x="1188" y="989" on="1"/>
        <pt x="1007" y="326" on="1"/>
      </contour>
      <contour>
        <pt x="312" y="1774" on="1"/>
        <pt x="383" y="1774" on="1"/>
        <pt x="383" y="416" on="1"/>
        <pt x="267" y="416" on="1"/>
        <pt x="267" y="1597" on="1"/>
        <pt x="242" y="1565" on="0"/>
        <pt x="146" y="1529" on="0"/>
        <pt x="100" y="1529" on="1"/>
        <pt x="100" y="1604" on="1"/>
        <pt x="165" y="1614" on="0"/>
        <pt x="279" y="1700" on="0"/>
      </contour>
      <contour>
        <pt x="948" y="1768" on="1"/>
        <pt x="1068" y="1768" on="1"/>
        <pt x="607" y="0" on="1"/>
        <pt x="489" y="0" on="1"/>
      </contour>
    </TTGlyph>
    <TTGlyph name="ordfeminine" xMin="234" yMin="379" xMax="704" yMax="1608">
      <contour>
        <pt x="247" y="1200" on="1"/>
        <pt x="248" y="1233" on="1"/>
        <pt x="248" y="1398" on="0"/>
        <pt x="263" y="1444" on="1"/>
        <pt x="294" y="1539" on="0"/>
        <pt x="393" y="1608" on="0"/>
        <pt x="535" y="1608" on="0"/>
        <pt x="574" y="1598" on="1"/>
        <pt x="633" y="1582" on="0"/>
        <pt x="676" y="1500" on="1"/>
        <pt x="704" y="1447" on="0"/>
        <pt x="704" y="1254" on="1"/>
        <pt x="704" y="389" on="1"/>
        <pt x="584" y="389" on="1"/>
        <pt x="584" y="481" on="1"/>
        <pt x="572" y="446" on="0"/>
        <pt x="491" y="379" on="0"/>
        <pt x="425" y="379" on="1"/>
        <pt x="234" y="379" on="0"/>
        <pt x="234" y="692" on="1"/>
        <pt x="234" y="845" on="1"/>
        <pt x="234" y="936" on="0"/>
        <pt x="342" y="1047" on="0"/>
        <pt x="491" y="1117" on="0"/>
        <pt x="571" y="1151" on="0"/>
        <pt x="584" y="1157" on="1"/>
        <pt x="584" y="1249" on="1"/>
        <pt x="584" y="1410" on="0"/>
        <pt x="563" y="1463" on="0"/>
        <pt x="531" y="1503" on="0"/>
        <pt x="408" y="1503" on="0"/>
        <pt x="368" y="1389" on="0"/>
        <pt x="368" y="1230" on="1"/>
        <pt x="368" y="1200" on="1"/>
      </contour>
      <contour>
        <pt x="584" y="558" on="1"/>
        <pt x="584" y="1063" on="1"/>
        <pt x="423" y="991" on="0"/>
        <pt x="359" y="917" on="0"/>
        <pt x="352" y="840" on="0"/>
        <pt x="352" y="799" on="1"/>
        <pt x="352" y="702" on="1"/>
        <pt x="352" y="577" on="0"/>
        <pt x="391" y="479" on="0"/>
        <pt x="490" y="479" on="0"/>
        <pt x="567" y="530" on="0"/>
      </contour>
    </TTGlyph>
    <TTGlyph name="ordmasculine" xMin="239" yMin="374" xMax="710" yMax="1607">
      <contour>
        <pt x="590" y="1234" on="1"/>
        <pt x="590" y="1442" on="0"/>
        <pt x="536" y="1484" on="1"/>
        <pt x="512" y="1502" on="0"/>
        <pt x="479" y="1502" on="1"/>
        <pt x="389" y="1502" on="0"/>
        <pt x="370" y="1401" on="1"/>
        <pt x="358" y="1338" on="0"/>
        <pt x="358" y="1234" on="1"/>
        <pt x="358" y="760" on="1"/>
        <pt x="358" y="607" on="0"/>
        <pt x="385" y="533" on="0"/>
        <pt x="423" y="478" on="0"/>
        <pt x="514" y="478" on="0"/>
        <pt x="537" y="497" on="1"/>
        <pt x="590" y="541" on="0"/>
        <pt x="590" y="760" on="1"/>
      </contour>
      <contour>
        <pt x="239" y="1205" on="1"/>
        <pt x="239" y="1415" on="0"/>
        <pt x="316" y="1570" on="0"/>
        <pt x="384" y="1594" on="1"/>
        <pt x="421" y="1607" on="0"/>
        <pt x="478" y="1607" on="0"/>
        <pt x="482" y="1607" on="1"/>
        <pt x="596" y="1607" on="0"/>
        <pt x="710" y="1455" on="0"/>
        <pt x="710" y="1205" on="1"/>
        <pt x="710" y="801" on="1"/>
        <pt x="710" y="544" on="0"/>
        <pt x="666" y="471" on="1"/>
        <pt x="608" y="374" on="0"/>
        <pt x="391" y="374" on="0"/>
        <pt x="322" y="423" on="0"/>
        <pt x="286" y="463" on="0"/>
        <pt x="239" y="592" on="0"/>
        <pt x="239" y="801" on="1"/>
      </contour>
    </TTGlyph>
    <TTGlyph name="oslash" xMin="128" yMin="-173" xMax="744" yMax="1672">
      <contour>
        <pt x="539" y="1302" on="1"/>
        <pt x="488" y="1372" on="0"/>
        <pt x="428" y="1387" on="1"/>
        <pt x="314" y="1387" on="0"/>
        <pt x="292" y="1260" on="1"/>
        <pt x="277" y="1181" on="0"/>
        <pt x="277" y="1053" on="1"/>
        <pt x="277" y="463" on="1"/>
        <pt x="277" y="414" on="0"/>
        <pt x="279" y="372" on="1"/>
      </contour>
      <contour>
        <pt x="327" y="159" on="1"/>
        <pt x="365" y="113" on="0"/>
        <pt x="516" y="113" on="0"/>
        <pt x="568" y="296" on="0"/>
        <pt x="568" y="463" on="1"/>
        <pt x="568" y="1017" on="1"/>
      </contour>
      <contour>
        <pt x="670" y="1379" on="1"/>
        <pt x="717" y="1281" on="0"/>
        <pt x="717" y="1018" on="1"/>
        <pt x="717" y="515" on="1"/>
        <pt x="717" y="338" on="0"/>
        <pt x="702" y="234" on="0"/>
        <pt x="695" y="196" on="1"/>
        <pt x="655" y="-18" on="0"/>
        <pt x="417" y="-18" on="1"/>
        <pt x="338" y="-18" on="0"/>
        <pt x="285" y="8" on="1"/>
        <pt x="234" y="-173" on="1"/>
        <pt x="134" y="-145" on="1"/>
        <pt x="199" y="87" on="1"/>
        <pt x="146" y="166" on="0"/>
        <pt x="128" y="391" on="0"/>
        <pt x="128" y="515" on="1"/>
        <pt x="128" y="1018" on="1"/>
        <pt x="128" y="1278" on="0"/>
        <pt x="226" y="1474" on="0"/>
        <pt x="310" y="1502" on="1"/>
        <pt x="360" y="1518" on="0"/>
        <pt x="522" y="1518" on="0"/>
        <pt x="588" y="1475" on="1"/>
        <pt x="643" y="1672" on="1"/>
        <pt x="744" y="1644" on="1"/>
      </contour>
    </TTGlyph>
    <TTGlyph name="otilde" xMin="128" yMin="-18" xMax="717" yMax="1820">
      <component glyphName="tilde" x="-135" y="1650" flags="0x1004"/>
      <component glyphName="o" x="0" y="0" flags="0x1004"/>
    </TTGlyph>
    <TTGlyph name="p" xMin="160" yMin="-265" xMax="745" yMax="1511">
      <contour>
        <pt x="596" y="1061" on="1"/>
        <pt x="596" y="1237" on="0"/>
        <pt x="567" y="1324" on="0"/>
        <pt x="527" y="1386" on="0"/>
        <pt x="435" y="1386" on="0"/>
        <pt x="413" y="1380" on="1"/>
        <pt x="359" y="1365" on="0"/>
        <pt x="309" y="1222" on="0"/>
        <pt x="309" y="1059" on="1"/>
        <pt x="309" y="463" on="1"/>
        <pt x="309" y="272" on="0"/>
        <pt x="370" y="115" on="0"/>
        <pt x="540" y="115" on="0"/>
        <pt x="596" y="271" on="0"/>
        <pt x="596" y="468" on="1"/>
      </contour>
      <contour>
        <pt x="309" y="1385" on="1"/>
        <pt x="362" y="1511" on="0"/>
        <pt x="508" y="1511" on="1"/>
        <pt x="610" y="1511" on="0"/>
        <pt x="713" y="1376" on="0"/>
        <pt x="745" y="1163" on="0"/>
        <pt x="745" y="1013" on="1"/>
        <pt x="745" y="475" on="1"/>
        <pt x="745" y="472" on="0"/>
        <pt x="745" y="468" on="1"/>
        <pt x="745" y="185" on="0"/>
        <pt x="597" y="-18" on="0"/>
        <pt x="469" y="-18" on="1"/>
        <pt x="418" y="-18" on="0"/>
        <pt x="329" y="55" on="0"/>
        <pt x="309" y="108" on="1"/>
        <pt x="309" y="-265" on="1"/>
        <pt x="160" y="-265" on="1"/>
        <pt x="160" y="1500" on="1"/>
        <pt x="309" y="1500" on="1"/>
      </contour>
    </TTGlyph>
    <TTGlyph name="paragraph" xMin="159" yMin="0" xMax="942" yMax="1761">
      <contour>
        <pt x="666" y="1761" on="1"/>
        <pt x="942" y="1761" on="1"/>
        <pt x="942" y="0" on="1"/>
        <pt x="779" y="0" on="1"/>
        <pt x="779" y="1620" on="1"/>
        <pt x="636" y="1620" on="1"/>
        <pt x="636" y="0" on="1"/>
        <pt x="473" y="0" on="1"/>
        <pt x="473" y="1180" on="1"/>
        <pt x="320" y="1197" on="0"/>
        <pt x="159" y="1348" on="0"/>
        <pt x="159" y="1588" on="0"/>
        <pt x="246" y="1707" on="0"/>
        <pt x="462" y="1761" on="0"/>
      </contour>
    </TTGlyph>
    <TTGlyph name="parenleft" xMin="133" yMin="-99" xMax="421" yMax="1800">
      <contour>
        <pt x="401" y="14" on="1"/>
        <pt x="421" y="14" on="1"/>
        <pt x="421" y="-99" on="1"/>
        <pt x="297" y="-99" on="0"/>
        <pt x="206" y="-56" on="0"/>
        <pt x="169" y="-3" on="0"/>
        <pt x="133" y="125" on="0"/>
        <pt x="133" y="313" on="1"/>
        <pt x="133" y="1388" on="1"/>
        <pt x="133" y="1576" on="0"/>
        <pt x="169" y="1704" on="0"/>
        <pt x="206" y="1757" on="0"/>
        <pt x="297" y="1800" on="0"/>
        <pt x="421" y="1800" on="1"/>
        <pt x="421" y="1687" on="1"/>
        <pt x="412" y="1687" on="1"/>
        <pt x="335" y="1687" on="0"/>
        <pt x="316" y="1665" on="0"/>
        <pt x="306" y="1650" on="1"/>
        <pt x="282" y="1613" on="0"/>
        <pt x="282" y="1392" on="1"/>
        <pt x="282" y="309" on="1"/>
        <pt x="282" y="88" on="0"/>
        <pt x="306" y="51" on="1"/>
        <pt x="316" y="36" on="0"/>
        <pt x="336" y="14" on="0"/>
      </contour>
    </TTGlyph>
    <TTGlyph name="parenright" xMin="98" yMin="-99" xMax="386" yMax="1800">
      <contour>
        <pt x="98" y="1687" on="1"/>
        <pt x="98" y="1800" on="1"/>
        <pt x="222" y="1800" on="0"/>
        <pt x="313" y="1757" on="0"/>
        <pt x="350" y="1704" on="0"/>
        <pt x="386" y="1576" on="0"/>
        <pt x="386" y="1388" on="1"/>
        <pt x="386" y="313" on="1"/>
        <pt x="386" y="125" on="0"/>
        <pt x="350" y="-3" on="0"/>
        <pt x="313" y="-56" on="0"/>
        <pt x="222" y="-99" on="0"/>
        <pt x="98" y="-99" on="1"/>
        <pt x="98" y="14" on="1"/>
        <pt x="107" y="14" on="1"/>
        <pt x="184" y="14" on="0"/>
        <pt x="204" y="36" on="0"/>
        <pt x="214" y="51" on="1"/>
        <pt x="237" y="87" on="0"/>
        <pt x="237" y="292" on="1"/>
        <pt x="237" y="301" on="0"/>
        <pt x="237" y="309" on="1"/>
        <pt x="237" y="1392" on="1"/>
        <pt x="237" y="1401" on="0"/>
        <pt x="237" y="1409" on="1"/>
        <pt x="237" y="1614" on="0"/>
        <pt x="214" y="1650" on="1"/>
        <pt x="204" y="1665" on="0"/>
        <pt x="184" y="1687" on="0"/>
        <pt x="127" y="1687" on="1"/>
      </contour>
    </TTGlyph>
    <TTGlyph name="partialdiff" xMin="82" yMin="-17" xMax="869" yMax="1673">
      <contour>
        <pt x="687" y="919" on="1"/>
        <pt x="581" y="960" on="0"/>
        <pt x="466" y="960" on="0"/>
        <pt x="354" y="864" on="0"/>
        <pt x="320" y="787" on="1"/>
        <pt x="246" y="623" on="0"/>
        <pt x="246" y="246" on="0"/>
        <pt x="320" y="162" on="1"/>
        <pt x="358" y="117" on="0"/>
        <pt x="486" y="117" on="0"/>
        <pt x="608" y="275" on="0"/>
        <pt x="626" y="419" on="1"/>
      </contour>
      <contour>
        <pt x="298" y="1017" on="0"/>
        <pt x="438" y="1093" on="0"/>
        <pt x="587" y="1093" on="0"/>
        <pt x="709" y="1047" on="1"/>
        <pt x="721" y="1199" on="0"/>
        <pt x="721" y="1393" on="0"/>
        <pt x="635" y="1545" on="0"/>
        <pt x="397" y="1545" on="0"/>
        <pt x="225" y="1485" on="1"/>
        <pt x="201" y="1607" on="1"/>
        <pt x="408" y="1673" on="0"/>
        <pt x="542" y="1673" on="1"/>
        <pt x="716" y="1673" on="0"/>
        <pt x="869" y="1455" on="0"/>
        <pt x="869" y="1227" on="1"/>
        <pt x="869" y="1104" on="0"/>
        <pt x="847" y="925" on="1"/>
        <pt x="783" y="417" on="1"/>
        <pt x="757" y="201" on="0"/>
        <pt x="547" y="-17" on="0"/>
        <pt x="421" y="-17" on="1"/>
        <pt x="223" y="-17" on="0"/>
        <pt x="134" y="177" on="1"/>
        <pt x="82" y="291" on="0"/>
        <pt x="82" y="536" on="0"/>
        <pt x="120" y="721" on="0"/>
        <pt x="195" y="888" on="0"/>
      </contour>
    </TTGlyph>
    <TTGlyph name="percent" xMin="180" yMin="-20" xMax="1968" yMax="1782">
      <contour>
        <pt x="1821" y="835" on="1"/>
        <pt x="1821" y="958" on="0"/>
        <pt x="1763" y="1045" on="0"/>
        <pt x="1604" y="1045" on="0"/>
        <pt x="1547" y="958" on="0"/>
        <pt x="1547" y="835" on="1"/>
        <pt x="1547" y="335" on="1"/>
        <pt x="1547" y="207" on="0"/>
        <pt x="1604" y="117" on="0"/>
        <pt x="1764" y="117" on="0"/>
        <pt x="1821" y="207" on="0"/>
        <pt x="1821" y="335" on="1"/>
      </contour>
      <contour>
        <pt x="1399" y="763" on="1"/>
        <pt x="1399" y="1056" on="0"/>
        <pt x="1488" y="1128" on="1"/>
        <pt x="1553" y="1180" on="0"/>
        <pt x="1816" y="1180" on="0"/>
        <pt x="1880" y="1128" on="1"/>
        <pt x="1968" y="1055" on="0"/>
        <pt x="1968" y="763" on="1"/>
        <pt x="1968" y="411" on="1"/>
        <pt x="1968" y="280" on="0"/>
        <pt x="1943" y="119" on="0"/>
        <pt x="1876" y="18" on="0"/>
        <pt x="1770" y="-20" on="0"/>
        <pt x="1597" y="-20" on="0"/>
        <pt x="1492" y="18" on="0"/>
        <pt x="1424" y="119" on="0"/>
        <pt x="1399" y="280" on="0"/>
        <pt x="1399" y="411" on="1"/>
      </contour>
      <contour>
        <pt x="180" y="1364" on="1"/>
        <pt x="180" y="1658" on="0"/>
        <pt x="268" y="1730" on="1"/>
        <pt x="332" y="1782" on="0"/>
        <pt x="595" y="1782" on="0"/>
        <pt x="660" y="1730" on="1"/>
        <pt x="749" y="1658" on="0"/>
        <pt x="749" y="1364" on="1"/>
        <pt x="749" y="1012" on="1"/>
        <pt x="749" y="881" on="0"/>
        <pt x="724" y="720" on="0"/>
        <pt x="656" y="619" on="0"/>
        <pt x="551" y="581" on="0"/>
        <pt x="378" y="581" on="0"/>
        <pt x="272" y="619" on="0"/>
        <pt x="205" y="720" on="0"/>
        <pt x="180" y="881" on="0"/>
        <pt x="180" y="1012" on="1"/>
      </contour>
      <contour>
        <pt x="601" y="1436" on="1"/>
        <pt x="601" y="1559" on="0"/>
        <pt x="544" y="1646" on="0"/>
        <pt x="385" y="1646" on="0"/>
        <pt x="327" y="1559" on="0"/>
        <pt x="327" y="1436" on="1"/>
        <pt x="327" y="936" on="1"/>
        <pt x="327" y="808" on="0"/>
        <pt x="384" y="718" on="0"/>
        <pt x="544" y="718" on="0"/>
        <pt x="601" y="808" on="0"/>
        <pt x="601" y="936" on="1"/>
      </contour>
      <contour>
        <pt x="1372" y="1760" on="1"/>
        <pt x="1512" y="1760" on="1"/>
        <pt x="790" y="0" on="1"/>
        <pt x="642" y="0" on="1"/>
      </contour>
    </TTGlyph>
    <TTGlyph name="period" xMin="174" yMin="0" xMax="328" yMax="164">
      <contour>
        <pt x="174" y="164" on="1"/>
        <pt x="328" y="164" on="1"/>
        <pt x="328" y="0" on="1"/>
        <pt x="174" y="0" on="1"/>
      </contour>
    </TTGlyph>
    <TTGlyph name="periodcentered" xMin="163" yMin="786" xMax="333" yMax="961">
      <contour>
        <pt x="163" y="961" on="1"/>
        <pt x="333" y="961" on="1"/>
        <pt x="333" y="786" on="1"/>
        <pt x="163" y="786" on="1"/>
      </contour>
    </TTGlyph>
    <TTGlyph name="perthousand" xMin="180" yMin="-20" xMax="2800" yMax="1782">
      <contour>
        <pt x="2653" y="835" on="1"/>
        <pt x="2653" y="958" on="0"/>
        <pt x="2596" y="1045" on="0"/>
        <pt x="2437" y="1045" on="0"/>
        <pt x="2379" y="958" on="0"/>
        <pt x="2379" y="835" on="1"/>
        <pt x="2379" y="335" on="1"/>
        <pt x="2379" y="207" on="0"/>
        <pt x="2436" y="117" on="0"/>
        <pt x="2596" y="117" on="0"/>
        <pt x="2653" y="207" on="0"/>
        <pt x="2653" y="335" on="1"/>
      </contour>
      <contour>
        <pt x="2232" y="763" on="1"/>
        <pt x="2232" y="1056" on="0"/>
        <pt x="2320" y="1128" on="1"/>
        <pt x="2384" y="1180" on="0"/>
        <pt x="2648" y="1180" on="0"/>
        <pt x="2712" y="1128" on="1"/>
        <pt x="2800" y="1055" on="0"/>
        <pt x="2800" y="763" on="1"/>
        <pt x="2800" y="411" on="1"/>
        <pt x="2800" y="280" on="0"/>
        <pt x="2775" y="119" on="0"/>
        <pt x="2708" y="18" on="0"/>
        <pt x="2602" y="-20" on="0"/>
        <pt x="2430" y="-20" on="0"/>
        <pt x="2324" y="18" on="0"/>
        <pt x="2257" y="119" on="0"/>
        <pt x="2232" y="280" on="0"/>
        <pt x="2232" y="411" on="1"/>
      </contour>
      <contour>
        <pt x="1845" y="835" on="1"/>
        <pt x="1845" y="958" on="0"/>
        <pt x="1787" y="1045" on="0"/>
        <pt x="1628" y="1045" on="0"/>
        <pt x="1571" y="958" on="0"/>
        <pt x="1571" y="835" on="1"/>
        <pt x="1571" y="335" on="1"/>
        <pt x="1571" y="207" on="0"/>
        <pt x="1628" y="117" on="0"/>
        <pt x="1788" y="117" on="0"/>
        <pt x="1845" y="207" on="0"/>
        <pt x="1845" y="335" on="1"/>
      </contour>
      <contour>
        <pt x="1424" y="763" on="1"/>
        <pt x="1424" y="1056" on="0"/>
        <pt x="1512" y="1128" on="1"/>
        <pt x="1576" y="1180" on="0"/>
        <pt x="1840" y="1180" on="0"/>
        <pt x="1904" y="1128" on="1"/>
        <pt x="1992" y="1055" on="0"/>
        <pt x="1992" y="763" on="1"/>
        <pt x="1992" y="411" on="1"/>
        <pt x="1992" y="280" on="0"/>
        <pt x="1967" y="119" on="0"/>
        <pt x="1900" y="18" on="0"/>
        <pt x="1794" y="-20" on="0"/>
        <pt x="1622" y="-20" on="0"/>
        <pt x="1516" y="18" on="0"/>
        <pt x="1449" y="119" on="0"/>
        <pt x="1424" y="280" on="0"/>
        <pt x="1424" y="411" on="1"/>
      </contour>
      <contour>
        <pt x="180" y="1364" on="1"/>
        <pt x="180" y="1658" on="0"/>
        <pt x="268" y="1730" on="1"/>
        <pt x="332" y="1782" on="0"/>
        <pt x="595" y="1782" on="0"/>
        <pt x="660" y="1730" on="1"/>
        <pt x="749" y="1658" on="0"/>
        <pt x="749" y="1364" on="1"/>
        <pt x="749" y="1012" on="1"/>
        <pt x="749" y="881" on="0"/>
        <pt x="724" y="720" on="0"/>
        <pt x="656" y="619" on="0"/>
        <pt x="551" y="581" on="0"/>
        <pt x="378" y="581" on="0"/>
        <pt x="272" y="619" on="0"/>
        <pt x="205" y="720" on="0"/>
        <pt x="180" y="881" on="0"/>
        <pt x="180" y="1012" on="1"/>
      </contour>
      <contour>
        <pt x="601" y="1436" on="1"/>
        <pt x="601" y="1559" on="0"/>
        <pt x="544" y="1646" on="0"/>
        <pt x="385" y="1646" on="0"/>
        <pt x="327" y="1559" on="0"/>
        <pt x="327" y="1436" on="1"/>
        <pt x="327" y="936" on="1"/>
        <pt x="327" y="808" on="0"/>
        <pt x="384" y="718" on="0"/>
        <pt x="544" y="718" on="0"/>
        <pt x="601" y="808" on="0"/>
        <pt x="601" y="936" on="1"/>
      </contour>
      <contour>
        <pt x="1372" y="1760" on="1"/>
        <pt x="1512" y="1760" on="1"/>
        <pt x="790" y="0" on="1"/>
        <pt x="642" y="0" on="1"/>
      </contour>
    </TTGlyph>
    <TTGlyph name="plus" xMin="112" yMin="576" xMax="694" yMax="1208">
      <contour>
        <pt x="342" y="1208" on="1"/>
        <pt x="460" y="1208" on="1"/>
        <pt x="460" y="948" on="1"/>
        <pt x="694" y="948" on="1"/>
        <pt x="694" y="842" on="1"/>
        <pt x="460" y="842" on="1"/>
        <pt x="460" y="576" on="1"/>
        <pt x="342" y="576" on="1"/>
        <pt x="342" y="842" on="1"/>
        <pt x="112" y="842" on="1"/>
        <pt x="112" y="948" on="1"/>
        <pt x="342" y="948" on="1"/>
      </contour>
    </TTGlyph>
    <TTGlyph name="plusminus" xMin="138" yMin="259" xMax="720" yMax="1185">
      <contour>
        <pt x="173" y="377" on="1"/>
        <pt x="689" y="377" on="1"/>
        <pt x="689" y="259" on="1"/>
        <pt x="173" y="259" on="1"/>
      </contour>
      <contour>
        <pt x="368" y="1185" on="1"/>
        <pt x="486" y="1185" on="1"/>
        <pt x="486" y="926" on="1"/>
        <pt x="720" y="926" on="1"/>
        <pt x="720" y="820" on="1"/>
        <pt x="486" y="820" on="1"/>
        <pt x="486" y="554" on="1"/>
        <pt x="368" y="554" on="1"/>
        <pt x="368" y="820" on="1"/>
        <pt x="138" y="820" on="1"/>
        <pt x="138" y="926" on="1"/>
        <pt x="368" y="926" on="1"/>
      </contour>
    </TTGlyph>
    <TTGlyph name="product" xMin="155" yMin="0" xMax="778" yMax="1760">
      <contour>
        <pt x="155" y="1760" on="1"/>
        <pt x="778" y="1760" on="1"/>
        <pt x="778" y="0" on="1"/>
        <pt x="628" y="0" on="1"/>
        <pt x="628" y="1649" on="1"/>
        <pt x="305" y="1649" on="1"/>
        <pt x="305" y="0" on="1"/>
        <pt x="155" y="0" on="1"/>
      </contour>
    </TTGlyph>
    <TTGlyph name="q" xMin="128" yMin="-265" xMax="715" yMax="1511">
      <contour>
        <pt x="564" y="1037" on="1"/>
        <pt x="564" y="1269" on="0"/>
        <pt x="485" y="1385" on="0"/>
        <pt x="332" y="1385" on="0"/>
        <pt x="276" y="1228" on="0"/>
        <pt x="276" y="1031" on="1"/>
        <pt x="276" y="437" on="1"/>
        <pt x="276" y="229" on="0"/>
        <pt x="340" y="114" on="0"/>
        <pt x="469" y="114" on="0"/>
        <pt x="524" y="164" on="0"/>
        <pt x="564" y="276" on="0"/>
        <pt x="564" y="441" on="1"/>
      </contour>
      <contour>
        <pt x="128" y="1013" on="1"/>
        <pt x="128" y="1268" on="0"/>
        <pt x="168" y="1366" on="1"/>
        <pt x="206" y="1464" on="0"/>
        <pt x="274" y="1494" on="1"/>
        <pt x="312" y="1510" on="0"/>
        <pt x="364" y="1511" on="1"/>
        <pt x="511" y="1511" on="0"/>
        <pt x="565" y="1381" on="1"/>
        <pt x="565" y="1500" on="1"/>
        <pt x="715" y="1500" on="1"/>
        <pt x="715" y="-265" on="1"/>
        <pt x="565" y="-265" on="1"/>
        <pt x="565" y="106" on="1"/>
        <pt x="543" y="53" on="0"/>
        <pt x="455" y="-18" on="0"/>
        <pt x="322" y="-18" on="0"/>
        <pt x="266" y="19" on="1"/>
        <pt x="128" y="110" on="0"/>
        <pt x="128" y="479" on="1"/>
      </contour>
    </TTGlyph>
    <TTGlyph name="question" xMin="157" yMin="1" xMax="623" yMax="1782">
      <contour>
        <pt x="227" y="299" on="1"/>
        <pt x="353" y="299" on="1"/>
        <pt x="353" y="1" on="1"/>
        <pt x="227" y="1" on="1"/>
      </contour>
      <contour>
        <pt x="158" y="1365" on="1"/>
        <pt x="157" y="1476" on="1"/>
        <pt x="157" y="1480" on="0"/>
        <pt x="157" y="1483" on="1"/>
        <pt x="157" y="1615" on="0"/>
        <pt x="192" y="1678" on="1"/>
        <pt x="251" y="1782" on="0"/>
        <pt x="485" y="1782" on="0"/>
        <pt x="550" y="1729" on="0"/>
        <pt x="567" y="1712" on="1"/>
        <pt x="623" y="1656" on="0"/>
        <pt x="623" y="1383" on="1"/>
        <pt x="623" y="1314" on="1"/>
        <pt x="623" y="1048" on="0"/>
        <pt x="506" y="793" on="0"/>
        <pt x="353" y="750" on="1"/>
        <pt x="353" y="494" on="1"/>
        <pt x="228" y="494" on="1"/>
        <pt x="228" y="810" on="1"/>
        <pt x="313" y="842" on="0"/>
        <pt x="384" y="900" on="1"/>
        <pt x="420" y="930" on="0"/>
        <pt x="454" y="1035" on="1"/>
        <pt x="474" y="1095" on="0"/>
        <pt x="474" y="1371" on="1"/>
        <pt x="474" y="1379" on="1"/>
        <pt x="474" y="1556" on="0"/>
        <pt x="451" y="1655" on="0"/>
        <pt x="334" y="1655" on="0"/>
        <pt x="308" y="1555" on="0"/>
        <pt x="308" y="1375" on="1"/>
        <pt x="308" y="1160" on="1"/>
        <pt x="158" y="1160" on="1"/>
      </contour>
    </TTGlyph>
    <TTGlyph name="questiondown" xMin="253" yMin="-288" xMax="719" yMax="1493">
      <component glyphName="question" x="876" y="1494" scale="-1.0" flags="0x1004"/>
    </TTGlyph>
    <TTGlyph name="quotedbl" xMin="267" yMin="1125" xMax="692" yMax="1761">
      <contour>
        <pt x="267" y="1761" on="1"/>
        <pt x="423" y="1761" on="1"/>
        <pt x="359" y="1125" on="1"/>
        <pt x="325" y="1125" on="1"/>
      </contour>
      <contour>
        <pt x="535" y="1761" on="1"/>
        <pt x="692" y="1761" on="1"/>
        <pt x="627" y="1125" on="1"/>
        <pt x="593" y="1125" on="1"/>
      </contour>
    </TTGlyph>
    <TTGlyph name="quotedblbase" xMin="181" yMin="-428" xMax="903" yMax="206">
      <contour>
        <pt x="181" y="206" on="1"/>
        <pt x="456" y="206" on="1"/>
        <pt x="456" y="9" on="1"/>
        <pt x="336" y="-428" on="1"/>
        <pt x="233" y="-428" on="1"/>
        <pt x="327" y="0" on="1"/>
        <pt x="181" y="0" on="1"/>
      </contour>
      <contour>
        <pt x="628" y="206" on="1"/>
        <pt x="903" y="206" on="1"/>
        <pt x="903" y="9" on="1"/>
        <pt x="783" y="-428" on="1"/>
        <pt x="680" y="-428" on="1"/>
        <pt x="774" y="0" on="1"/>
        <pt x="628" y="0" on="1"/>
      </contour>
    </TTGlyph>
    <TTGlyph name="quotedblleft" xMin="176" yMin="1149" xMax="898" yMax="1783">
      <contour>
        <pt x="295" y="1783" on="1"/>
        <pt x="399" y="1783" on="1"/>
        <pt x="305" y="1355" on="1"/>
        <pt x="451" y="1355" on="1"/>
        <pt x="451" y="1149" on="1"/>
        <pt x="176" y="1149" on="1"/>
        <pt x="176" y="1346" on="1"/>
      </contour>
      <contour>
        <pt x="742" y="1783" on="1"/>
        <pt x="845" y="1783" on="1"/>
        <pt x="752" y="1355" on="1"/>
        <pt x="898" y="1355" on="1"/>
        <pt x="898" y="1149" on="1"/>
        <pt x="623" y="1149" on="1"/>
        <pt x="623" y="1346" on="1"/>
      </contour>
    </TTGlyph>
    <TTGlyph name="quotedblright" xMin="191" yMin="1149" xMax="913" yMax="1783">
      <contour>
        <pt x="191" y="1783" on="1"/>
        <pt x="466" y="1783" on="1"/>
        <pt x="466" y="1586" on="1"/>
        <pt x="346" y="1149" on="1"/>
        <pt x="243" y="1149" on="1"/>
        <pt x="337" y="1577" on="1"/>
        <pt x="191" y="1577" on="1"/>
      </contour>
      <contour>
        <pt x="638" y="1783" on="1"/>
        <pt x="913" y="1783" on="1"/>
        <pt x="913" y="1586" on="1"/>
        <pt x="793" y="1149" on="1"/>
        <pt x="690" y="1149" on="1"/>
        <pt x="783" y="1577" on="1"/>
        <pt x="638" y="1577" on="1"/>
      </contour>
    </TTGlyph>
    <TTGlyph name="quoteleft" xMin="167" yMin="1164" xMax="438" yMax="1783">
      <contour>
        <pt x="281" y="1783" on="1"/>
        <pt x="387" y="1783" on="1"/>
        <pt x="296" y="1366" on="1"/>
        <pt x="438" y="1366" on="1"/>
        <pt x="438" y="1164" on="1"/>
        <pt x="167" y="1164" on="1"/>
        <pt x="167" y="1357" on="1"/>
      </contour>
    </TTGlyph>
    <TTGlyph name="quoteright" xMin="189" yMin="1164" xMax="460" yMax="1783">
      <contour>
        <pt x="189" y="1783" on="1"/>
        <pt x="460" y="1783" on="1"/>
        <pt x="460" y="1590" on="1"/>
        <pt x="346" y="1164" on="1"/>
        <pt x="240" y="1164" on="1"/>
        <pt x="331" y="1581" on="1"/>
        <pt x="189" y="1581" on="1"/>
      </contour>
    </TTGlyph>
    <TTGlyph name="quotesinglbase" xMin="113" yMin="-437" xMax="388" yMax="207">
      <contour>
        <pt x="113" y="207" on="1"/>
        <pt x="388" y="207" on="1"/>
        <pt x="388" y="9" on="1"/>
        <pt x="269" y="-437" on="1"/>
        <pt x="166" y="-437" on="1"/>
        <pt x="259" y="0" on="1"/>
        <pt x="113" y="0" on="1"/>
      </contour>
    </TTGlyph>
    <TTGlyph name="quotesingle" xMin="124" yMin="1125" xMax="282" yMax="1761">
      <contour>
        <pt x="124" y="1761" on="1"/>
        <pt x="282" y="1761" on="1"/>
        <pt x="217" y="1125" on="1"/>
        <pt x="184" y="1125" on="1"/>
      </contour>
    </TTGlyph>
    <TTGlyph name="r" xMin="161" yMin="0" xMax="569" yMax="1518">
      <contour>
        <pt x="565" y="1518" on="1"/>
        <pt x="569" y="1518" on="0"/>
        <pt x="569" y="1454" on="0"/>
        <pt x="568" y="1422" on="1"/>
        <pt x="568" y="1391" on="1"/>
        <pt x="489" y="1391" on="0"/>
        <pt x="368" y="1328" on="0"/>
        <pt x="310" y="1246" on="1"/>
        <pt x="310" y="0" on="1"/>
        <pt x="161" y="0" on="1"/>
        <pt x="161" y="1500" on="1"/>
        <pt x="310" y="1500" on="1"/>
        <pt x="310" y="1333" on="1"/>
        <pt x="336" y="1421" on="0"/>
        <pt x="467" y="1518" on="0"/>
      </contour>
    </TTGlyph>
    <TTGlyph name="racute" xMin="160" yMin="0" xMax="569" yMax="1861">
      <component glyphName="r" x="0" y="0" flags="0x1004"/>
      <component glyphName="acute" x="60" y="-286" flags="0x1004"/>
    </TTGlyph>
    <TTGlyph name="radical" xMin="89" yMin="0" xMax="1122" yMax="1500">
      <contour>
        <pt x="669" y="1500" on="1"/>
        <pt x="1122" y="1500" on="1"/>
        <pt x="1122" y="1367" on="1"/>
        <pt x="808" y="1367" on="1"/>
        <pt x="534" y="0" on="1"/>
        <pt x="380" y="0" on="1"/>
        <pt x="89" y="741" on="1"/>
        <pt x="258" y="741" on="1"/>
        <pt x="442" y="218" on="1"/>
      </contour>
    </TTGlyph>
    <TTGlyph name="rcaron" xMin="130" yMin="0" xMax="569" yMax="1830">
      <component glyphName="r" x="0" y="0" flags="0x1004"/>
      <component glyphName="caron" x="-151" y="0" flags="0x1004"/>
    </TTGlyph>
    <TTGlyph name="rcommaaccent" xMin="161" yMin="-612" xMax="569" yMax="1518">
      <component glyphName="uni0326" x="1" y="-389" flags="0x1004"/>
      <component glyphName="r" x="0" y="0" flags="0x1004"/>
    </TTGlyph>
    <TTGlyph name="registered" xMin="76" yMin="205" xMax="1390" yMax="1519">
      <contour>
        <pt x="1309" y="700" on="0"/>
        <pt x="1309" y="1024" on="0"/>
        <pt x="1158" y="1296" on="0"/>
        <pt x="893" y="1453" on="0"/>
        <pt x="573" y="1453" on="0"/>
        <pt x="308" y="1296" on="0"/>
        <pt x="157" y="1024" on="0"/>
        <pt x="157" y="700" on="0"/>
        <pt x="308" y="428" on="0"/>
        <pt x="573" y="271" on="0"/>
        <pt x="893" y="271" on="0"/>
        <pt x="1158" y="428" on="0"/>
      </contour>
      <contour>
        <pt x="76" y="678" on="0"/>
        <pt x="76" y="1046" on="0"/>
        <pt x="248" y="1347" on="0"/>
        <pt x="549" y="1519" on="0"/>
        <pt x="917" y="1519" on="0"/>
        <pt x="1218" y="1347" on="0"/>
        <pt x="1390" y="1046" on="0"/>
        <pt x="1390" y="678" on="0"/>
        <pt x="1218" y="377" on="0"/>
        <pt x="917" y="205" on="0"/>
        <pt x="549" y="205" on="0"/>
        <pt x="248" y="377" on="0"/>
      </contour>
      <contour>
        <pt x="726" y="951" on="1"/>
        <pt x="727" y="951" on="0"/>
        <pt x="728" y="951" on="1"/>
        <pt x="863" y="951" on="0"/>
        <pt x="863" y="1086" on="1"/>
        <pt x="863" y="1158" on="0"/>
        <pt x="777" y="1210" on="0"/>
        <pt x="648" y="1210" on="1"/>
        <pt x="648" y="951" on="1"/>
      </contour>
      <contour>
        <pt x="753" y="866" on="1"/>
        <pt x="647" y="864" on="1"/>
        <pt x="647" y="446" on="1"/>
        <pt x="527" y="446" on="1"/>
        <pt x="527" y="1298" on="1"/>
        <pt x="740" y="1298" on="1"/>
        <pt x="856" y="1298" on="0"/>
        <pt x="981" y="1194" on="0"/>
        <pt x="981" y="949" on="0"/>
        <pt x="858" y="910" on="1"/>
        <pt x="902" y="902" on="0"/>
        <pt x="967" y="837" on="0"/>
        <pt x="967" y="787" on="1"/>
        <pt x="967" y="446" on="1"/>
        <pt x="849" y="446" on="1"/>
        <pt x="849" y="748" on="1"/>
        <pt x="849" y="825" on="0"/>
        <pt x="785" y="866" on="0"/>
      </contour>
    </TTGlyph>
    <TTGlyph name="ring" xMin="292" yMin="-81" xMax="630" yMax="224">
      <contour>
        <pt x="561" y="30" on="0"/>
        <pt x="561" y="114" on="0"/>
        <pt x="508" y="174" on="0"/>
        <pt x="416" y="174" on="0"/>
        <pt x="364" y="113" on="0"/>
        <pt x="364" y="31" on="0"/>
        <pt x="416" y="-30" on="0"/>
        <pt x="508" y="-30" on="0"/>
      </contour>
      <contour>
        <pt x="381" y="-81" on="0"/>
        <pt x="292" y="11" on="0"/>
        <pt x="292" y="132" on="0"/>
        <pt x="381" y="224" on="0"/>
        <pt x="542" y="224" on="0"/>
        <pt x="630" y="132" on="0"/>
        <pt x="630" y="10" on="0"/>
        <pt x="542" y="-81" on="0"/>
      </contour>
    </TTGlyph>
    <TTGlyph name="s" xMin="120" yMin="-20" xMax="710" yMax="1518">
      <contour>
        <pt x="120" y="1180" on="1"/>
        <pt x="120" y="1346" on="0"/>
        <pt x="279" y="1518" on="0"/>
        <pt x="559" y="1518" on="0"/>
        <pt x="689" y="1296" on="0"/>
        <pt x="689" y="1037" on="1"/>
        <pt x="689" y="957" on="1"/>
        <pt x="534" y="957" on="1"/>
        <pt x="534" y="1064" on="1"/>
        <pt x="534" y="1223" on="0"/>
        <pt x="479" y="1381" on="0"/>
        <pt x="342" y="1381" on="0"/>
        <pt x="271" y="1290" on="0"/>
        <pt x="271" y="1178" on="1"/>
        <pt x="271" y="1175" on="0"/>
        <pt x="271" y="1172" on="1"/>
        <pt x="271" y="997" on="0"/>
        <pt x="434" y="839" on="1"/>
        <pt x="511" y="764" on="1"/>
        <pt x="710" y="565" on="0"/>
        <pt x="710" y="325" on="1"/>
        <pt x="710" y="165" on="0"/>
        <pt x="572" y="-20" on="0"/>
        <pt x="276" y="-20" on="0"/>
        <pt x="129" y="184" on="0"/>
        <pt x="129" y="407" on="1"/>
        <pt x="129" y="536" on="1"/>
        <pt x="282" y="536" on="1"/>
        <pt x="282" y="433" on="1"/>
        <pt x="282" y="116" on="0"/>
        <pt x="420" y="116" on="1"/>
        <pt x="494" y="116" on="0"/>
        <pt x="556" y="212" on="0"/>
        <pt x="556" y="334" on="1"/>
        <pt x="556" y="515" on="0"/>
        <pt x="400" y="674" on="1"/>
        <pt x="321" y="754" on="1"/>
        <pt x="120" y="958" on="0"/>
      </contour>
    </TTGlyph>
    <TTGlyph name="sacute" xMin="120" yMin="-20" xMax="710" yMax="1861">
      <component glyphName="s" x="0" y="0" flags="0x1004"/>
      <component glyphName="acute" x="153" y="-286" flags="0x1004"/>
    </TTGlyph>
    <TTGlyph name="scaron" xMin="120" yMin="-20" xMax="710" yMax="1830">
      <component glyphName="s" x="0" y="0" flags="0x1004"/>
      <component glyphName="caron" x="-59" y="0" flags="0x1004"/>
    </TTGlyph>
    <TTGlyph name="scedilla" xMin="120" yMin="-596" xMax="710" yMax="1518">
      <component glyphName="cedilla" x="-108" y="0" flags="0x1004"/>
      <component glyphName="s" x="0" y="0" flags="0x1004"/>
    </TTGlyph>
    <TTGlyph name="scircumflex" xMin="120" yMin="-20" xMax="710" yMax="1831">
      <component glyphName="s" x="0" y="0" flags="0x1004"/>
      <component glyphName="circumflex" x="-59" y="0" flags="0x1004"/>
    </TTGlyph>
    <TTGlyph name="scommaaccent" xMin="120" yMin="-612" xMax="710" yMax="1518">
      <component glyphName="uni0326" x="151" y="-389" flags="0x1004"/>
      <component glyphName="s" x="0" y="0" flags="0x1004"/>
    </TTGlyph>
    <TTGlyph name="section" xMin="201" yMin="-20" xMax="791" yMax="1781">
      <contour>
        <pt x="585" y="682" on="1"/>
        <pt x="592" y="703" on="0"/>
        <pt x="592" y="797" on="0"/>
        <pt x="564" y="869" on="0"/>
        <pt x="510" y="942" on="0"/>
        <pt x="456" y="1003" on="0"/>
        <pt x="375" y="1092" on="0"/>
        <pt x="349" y="1125" on="1"/>
        <pt x="336" y="1093" on="0"/>
        <pt x="336" y="994" on="0"/>
        <pt x="362" y="926" on="0"/>
        <pt x="419" y="854" on="0"/>
        <pt x="469" y="800" on="0"/>
        <pt x="559" y="710" on="0"/>
      </contour>
      <contour>
        <pt x="274" y="1227" on="1"/>
        <pt x="201" y="1344" on="0"/>
        <pt x="201" y="1443" on="1"/>
        <pt x="201" y="1606" on="0"/>
        <pt x="354" y="1781" on="0"/>
        <pt x="586" y="1781" on="0"/>
        <pt x="648" y="1734" on="1"/>
        <pt x="770" y="1642" on="0"/>
        <pt x="770" y="1300" on="1"/>
        <pt x="770" y="1220" on="1"/>
        <pt x="615" y="1220" on="1"/>
        <pt x="615" y="1327" on="1"/>
        <pt x="615" y="1492" on="0"/>
        <pt x="555" y="1646" on="0"/>
        <pt x="475" y="1646" on="1"/>
        <pt x="420" y="1646" on="0"/>
        <pt x="352" y="1550" on="0"/>
        <pt x="352" y="1398" on="0"/>
        <pt x="461" y="1242" on="0"/>
        <pt x="606" y="1075" on="0"/>
        <pt x="719" y="876" on="0"/>
        <pt x="719" y="650" on="0"/>
        <pt x="683" y="570" on="1"/>
        <pt x="791" y="433" on="0"/>
        <pt x="791" y="325" on="1"/>
        <pt x="791" y="165" on="0"/>
        <pt x="653" y="-20" on="0"/>
        <pt x="357" y="-20" on="0"/>
        <pt x="210" y="184" on="0"/>
        <pt x="210" y="407" on="1"/>
        <pt x="210" y="536" on="1"/>
        <pt x="363" y="536" on="1"/>
        <pt x="363" y="433" on="1"/>
        <pt x="363" y="116" on="0"/>
        <pt x="501" y="116" on="1"/>
        <pt x="577" y="116" on="0"/>
        <pt x="637" y="194" on="0"/>
        <pt x="637" y="406" on="0"/>
        <pt x="552" y="502" on="1"/>
        <pt x="514" y="544" on="0"/>
        <pt x="349" y="704" on="0"/>
        <pt x="293" y="774" on="1"/>
        <pt x="208" y="880" on="0"/>
        <pt x="208" y="1125" on="0"/>
      </contour>
    </TTGlyph>
    <TTGlyph name="semicolon" xMin="179" yMin="0" xMax="381" yMax="1279">
      <contour>
        <pt x="181" y="523" on="1"/>
        <pt x="381" y="523" on="1"/>
        <pt x="381" y="359" on="1"/>
        <pt x="277" y="0" on="1"/>
        <pt x="200" y="0" on="1"/>
        <pt x="296" y="350" on="1"/>
        <pt x="181" y="350" on="1"/>
      </contour>
      <contour>
        <pt x="179" y="1279" on="1"/>
        <pt x="362" y="1279" on="1"/>
        <pt x="362" y="1048" on="1"/>
        <pt x="179" y="1048" on="1"/>
      </contour>
    </TTGlyph>
    <TTGlyph name="seven" xMin="56" yMin="1" xMax="689" yMax="1761">
      <contour>
        <pt x="56" y="1761" on="1"/>
        <pt x="689" y="1761" on="1"/>
        <pt x="689" y="1654" on="1"/>
        <pt x="689" y="1655" on="0"/>
        <pt x="683" y="1655" on="0"/>
        <pt x="590" y="1360" on="0"/>
        <pt x="543" y="1175" on="1"/>
        <pt x="388" y="560" on="0"/>
        <pt x="352" y="1" on="1"/>
        <pt x="197" y="1" on="1"/>
        <pt x="246" y="619" on="0"/>
        <pt x="395" y="1165" on="1"/>
        <pt x="477" y="1450" on="0"/>
        <pt x="538" y="1592" on="1"/>
        <pt x="559" y="1644" on="1"/>
        <pt x="56" y="1644" on="1"/>
      </contour>
    </TTGlyph>
    <TTGlyph name="six" xMin="85" yMin="-20" xMax="694" yMax="1780">
      <contour>
        <pt x="544" y="547" on="1"/>
        <pt x="544" y="797" on="0"/>
        <pt x="488" y="978" on="0"/>
        <pt x="329" y="978" on="0"/>
        <pt x="236" y="927" on="0"/>
        <pt x="233" y="926" on="1"/>
        <pt x="233" y="504" on="1"/>
        <pt x="233" y="262" on="0"/>
        <pt x="282" y="132" on="0"/>
        <pt x="328" y="116" on="1"/>
        <pt x="354" y="107" on="0"/>
        <pt x="454" y="107" on="0"/>
        <pt x="517" y="163" on="0"/>
        <pt x="544" y="305" on="0"/>
        <pt x="544" y="446" on="1"/>
      </contour>
      <contour>
        <pt x="233" y="1013" on="1"/>
        <pt x="299" y="1102" on="0"/>
        <pt x="411" y="1102" on="1"/>
        <pt x="567" y="1102" on="0"/>
        <pt x="694" y="866" on="0"/>
        <pt x="694" y="559" on="1"/>
        <pt x="694" y="442" on="1"/>
        <pt x="694" y="212" on="0"/>
        <pt x="568" y="-20" on="0"/>
        <pt x="224" y="-20" on="0"/>
        <pt x="85" y="213" on="0"/>
        <pt x="85" y="506" on="1"/>
        <pt x="85" y="1264" on="1"/>
        <pt x="85" y="1486" on="0"/>
        <pt x="138" y="1664" on="0"/>
        <pt x="172" y="1702" on="1"/>
        <pt x="243" y="1780" on="0"/>
        <pt x="522" y="1780" on="0"/>
        <pt x="657" y="1617" on="0"/>
        <pt x="660" y="1284" on="1"/>
        <pt x="660" y="1252" on="1"/>
        <pt x="508" y="1252" on="1"/>
        <pt x="508" y="1283" on="1"/>
        <pt x="508" y="1519" on="0"/>
        <pt x="469" y="1636" on="0"/>
        <pt x="432" y="1648" on="1"/>
        <pt x="412" y="1654" on="0"/>
        <pt x="376" y="1655" on="1"/>
        <pt x="266" y="1655" on="0"/>
        <pt x="247" y="1531" on="1"/>
        <pt x="233" y="1445" on="0"/>
        <pt x="233" y="1255" on="1"/>
      </contour>
    </TTGlyph>
    <TTGlyph name="slash" xMin="88" yMin="0" xMax="673" yMax="1768">
      <contour>
        <pt x="538" y="1768" on="1"/>
        <pt x="673" y="1768" on="1"/>
        <pt x="222" y="0" on="1"/>
        <pt x="88" y="0" on="1"/>
      </contour>
    </TTGlyph>
    <TTGlyph name="sterling" xMin="62" yMin="0" xMax="775" yMax="1782">
      <contour>
        <pt x="162" y="1386" on="1"/>
        <pt x="162" y="1782" on="0"/>
        <pt x="473" y="1782" on="1"/>
        <pt x="695" y="1782" on="0"/>
        <pt x="756" y="1549" on="1"/>
        <pt x="775" y="1476" on="0"/>
        <pt x="775" y="1381" on="1"/>
        <pt x="775" y="1246" on="1"/>
        <pt x="642" y="1246" on="1"/>
        <pt x="642" y="1393" on="1"/>
        <pt x="642" y="1656" on="0"/>
        <pt x="464" y="1656" on="1"/>
        <pt x="300" y="1656" on="0"/>
        <pt x="300" y="1409" on="1"/>
        <pt x="300" y="1237" on="0"/>
        <pt x="378" y="936" on="1"/>
        <pt x="684" y="936" on="1"/>
        <pt x="684" y="833" on="1"/>
        <pt x="398" y="833" on="1"/>
        <pt x="415" y="700" on="0"/>
        <pt x="415" y="583" on="1"/>
        <pt x="415" y="252" on="0"/>
        <pt x="277" y="107" on="1"/>
        <pt x="766" y="107" on="1"/>
        <pt x="766" y="0" on="1"/>
        <pt x="62" y="0" on="1"/>
        <pt x="62" y="86" on="1"/>
        <pt x="184" y="139" on="0"/>
        <pt x="280" y="386" on="0"/>
        <pt x="280" y="633" on="1"/>
        <pt x="280" y="735" on="0"/>
        <pt x="261" y="833" on="1"/>
        <pt x="78" y="833" on="1"/>
        <pt x="78" y="936" on="1"/>
        <pt x="233" y="936" on="1"/>
        <pt x="162" y="1202" on="0"/>
      </contour>
    </TTGlyph>
    <TTGlyph name="summation" xMin="102" yMin="0" xMax="553" yMax="1761">
      <contour>
        <pt x="102" y="1761" on="1"/>
        <pt x="553" y="1761" on="1"/>
        <pt x="553" y="1631" on="1"/>
        <pt x="265" y="1631" on="1"/>
        <pt x="505" y="880" on="1"/>
        <pt x="265" y="145" on="1"/>
        <pt x="553" y="145" on="1"/>
        <pt x="553" y="0" on="1"/>
        <pt x="102" y="0" on="1"/>
        <pt x="102" y="141" on="1"/>
        <pt x="337" y="881" on="1"/>
        <pt x="102" y="1605" on="1"/>
      </contour>
    </TTGlyph>
    <TTGlyph name="t" xMin="45" yMin="-9" xMax="522" yMax="1760">
      <contour>
        <pt x="195" y="1760" on="1"/>
        <pt x="345" y="1760" on="1"/>
        <pt x="345" y="1506" on="1"/>
        <pt x="522" y="1506" on="1"/>
        <pt x="522" y="1390" on="1"/>
        <pt x="345" y="1390" on="1"/>
        <pt x="345" y="209" on="1"/>
        <pt x="345" y="164" on="0"/>
        <pt x="367" y="130" on="0"/>
        <pt x="427" y="118" on="0"/>
        <pt x="521" y="118" on="1"/>
        <pt x="521" y="-9" on="1"/>
        <pt x="417" y="-9" on="1"/>
        <pt x="275" y="-9" on="0"/>
        <pt x="234" y="41" on="1"/>
        <pt x="210" y="70" on="0"/>
        <pt x="195" y="149" on="0"/>
        <pt x="195" y="217" on="1"/>
        <pt x="195" y="1390" on="1"/>
        <pt x="45" y="1390" on="1"/>
        <pt x="45" y="1506" on="1"/>
        <pt x="195" y="1506" on="1"/>
      </contour>
    </TTGlyph>
    <TTGlyph name="tcaron" xMin="45" yMin="-9" xMax="880" yMax="1760">
      <component glyphName="t" x="0" y="0" flags="0x1004"/>
      <component glyphName="quoteright" x="420" y="-24" flags="0x1004"/>
    </TTGlyph>
    <TTGlyph name="thorn" xMin="160" yMin="-265" xMax="747" yMax="1783">
      <contour>
        <pt x="597" y="1062" on="1"/>
        <pt x="597" y="1238" on="0"/>
        <pt x="568" y="1324" on="0"/>
        <pt x="528" y="1386" on="0"/>
        <pt x="482" y="1386" on="1"/>
        <pt x="475" y="1386" on="0"/>
        <pt x="454" y="1386" on="1"/>
        <pt x="367" y="1386" on="0"/>
        <pt x="335" y="1294" on="1"/>
        <pt x="310" y="1222" on="0"/>
        <pt x="310" y="1059" on="1"/>
        <pt x="310" y="463" on="1"/>
        <pt x="310" y="272" on="0"/>
        <pt x="371" y="115" on="0"/>
        <pt x="541" y="115" on="0"/>
        <pt x="597" y="271" on="0"/>
        <pt x="597" y="468" on="1"/>
      </contour>
      <contour>
        <pt x="160" y="1783" on="1"/>
        <pt x="310" y="1783" on="1"/>
        <pt x="310" y="1385" on="1"/>
        <pt x="363" y="1511" on="0"/>
        <pt x="509" y="1511" on="1"/>
        <pt x="678" y="1510" on="0"/>
        <pt x="722" y="1310" on="1"/>
        <pt x="746" y="1198" on="0"/>
        <pt x="747" y="1013" on="1"/>
        <pt x="747" y="475" on="1"/>
        <pt x="747" y="110" on="0"/>
        <pt x="607" y="18" on="1"/>
        <pt x="551" y="-18" on="0"/>
        <pt x="419" y="-18" on="0"/>
        <pt x="330" y="55" on="0"/>
        <pt x="310" y="108" on="1"/>
        <pt x="310" y="-265" on="1"/>
        <pt x="160" y="-265" on="1"/>
      </contour>
    </TTGlyph>
    <TTGlyph name="three" xMin="38" yMin="-20" xMax="664" yMax="1780">
      <contour>
        <pt x="44" y="1321" on="1"/>
        <pt x="44" y="1555" on="0"/>
        <pt x="182" y="1780" on="0"/>
        <pt x="511" y="1780" on="0"/>
        <pt x="661" y="1552" on="0"/>
        <pt x="661" y="1321" on="1"/>
        <pt x="661" y="980" on="0"/>
        <pt x="486" y="914" on="1"/>
        <pt x="575" y="874" on="0"/>
        <pt x="664" y="626" on="0"/>
        <pt x="664" y="468" on="1"/>
        <pt x="664" y="218" on="0"/>
        <pt x="510" y="-20" on="0"/>
        <pt x="179" y="-20" on="0"/>
        <pt x="38" y="219" on="0"/>
        <pt x="38" y="474" on="1"/>
        <pt x="38" y="517" on="1"/>
        <pt x="190" y="517" on="1"/>
        <pt x="190" y="474" on="1"/>
        <pt x="190" y="250" on="0"/>
        <pt x="247" y="104" on="0"/>
        <pt x="443" y="104" on="0"/>
        <pt x="514" y="263" on="0"/>
        <pt x="514" y="620" on="0"/>
        <pt x="468" y="788" on="0"/>
        <pt x="377" y="854" on="0"/>
        <pt x="300" y="854" on="1"/>
        <pt x="261" y="854" on="1"/>
        <pt x="261" y="982" on="1"/>
        <pt x="298" y="982" on="1"/>
        <pt x="389" y="982" on="0"/>
        <pt x="464" y="1032" on="0"/>
        <pt x="479" y="1070" on="1"/>
        <pt x="511" y="1150" on="0"/>
        <pt x="511" y="1288" on="1"/>
        <pt x="511" y="1529" on="0"/>
        <pt x="417" y="1655" on="0"/>
        <pt x="294" y="1655" on="0"/>
        <pt x="264" y="1630" on="1"/>
        <pt x="195" y="1572" on="0"/>
        <pt x="195" y="1318" on="1"/>
        <pt x="195" y="1287" on="1"/>
        <pt x="44" y="1287" on="1"/>
      </contour>
    </TTGlyph>
</ttFont>
